FantasqueSansMono-Light.sfdir
StartChar: exclam
Encoding: 33 33 68
Width: 1060
VWidth: 0
Flags: W
LayerCount: 2
Fore
SplineSet
572.446318096 456 m 1
 587.545417195 1294 l 1
 440.454582805 1294 l 1
 455.553681904 456 l 1
 572.446318096 456 l 1
613 245 m 1
 413 245 l 1
 413 25 l 1
 613 25 l 1
 613 245 l 1
EndSplineSet
Validated: 1
EndChar
StartChar: quotedbl
Encoding: 34 34 92
Width: 1060
VWidth: -25
Flags: W
LayerCount: 2
Fore
SplineSet
630 1439 m 1
 630 1261.53568895 l 1
 650.036187076 1191.09619549 659 1118.31583427 659 1031 c 0
 659 971.401659135 655.38134633 898.439589627 647.685077647 842.412265355 c 1
 726.274867883 831.974558839 l 1
 755.806870381 1015.62607538 764.466140763 1182.05122358 764.97570111 1439 c 1
 630 1439 l 1
259 1439 m 1
 259 1261.53568895 l 1
 279.036187076 1191.09619549 288 1118.31583427 288 1031 c 0
 288 971.401659135 284.38134633 898.439589627 276.685077647 842.412265355 c 1
 355.274867883 831.974558839 l 1
 384.806870381 1015.62607538 393.466140763 1182.05122358 393.97570111 1439 c 1
 259 1439 l 1
EndSplineSet
Validated: 1
EndChar
StartChar: numbersign
Encoding: 35 35 93
Width: 1060
VWidth: 6
Flags: W
LayerCount: 2
Fore
SplineSet
599 823 m 2
 627.052510905 823 l 1
 616.47398644 731.319454634 607.852861315 631.864266294 595.787415007 539.728130848 c 2
 592.942064538 518 l 1
 497 518 l 2
 462.975946603 518 432.608388526 517.999467998 392.235878294 516.030077255 c 2
 362.950597201 514.601526958 l 1
 372.945481812 605.666031193 385.396147086 707.898449806 392.070711824 796.892646314 c 2
 393.778357755 819.661258727 l 1
 468.924755726 820.766352815 520.345323979 823 599 823 c 2
526 410 m 0
 543.334595675 410 560.669191351 410 578.003787026 410 c 1
 559.580276068 247.873103567 548.763757771 130.85489947 536.532806772 3.8325907271 c 1
 649.79358197 3.14197624419 l 1
 658.041503458 114.711658083 664.543092363 204.226584048 685.155403499 388.800461035 c 2
 687.63453983 411 l 1
 710 411 l 2
 795.128713729 411 844.937604881 409.881483828 876 408.896163133 c 1
 876 519 l 1
 693.884323418 519 l 1
 705.579949604 618.412822576 719.543874574 726.649773792 729.402125329 824 c 1
 752 824 l 2
 818.271008252 824 854.631140942 822.435536066 880 821.187843437 c 1
 880 931 l 1
 741.81140756 931 l 1
 745.179788989 959.010750824 l 2
 762.630811747 1104.12978219 776.00541889 1192.03220644 797.474451031 1299.37262942 c 1
 686.332235123 1300.73633759 l 1
 669.46502966 1192.11712084 655.725965793 1071.28455871 639.25721355 930 c 1
 407.258828998 930 l 1
 410.135467518 957.615729798 l 2
 424.011860632 1090.82910369 430.147671287 1195.58397366 436.567465332 1306.90803659 c 1
 429.26457405 1306.99284238 421.360646239 1307 413 1307 c 0
 384.680535868 1307 353.236432286 1306.4427183 324.718503498 1306.14753168 c 1
 317.902042357 1166.5700815 323.341194341 1117.61924314 302.822229632 946.006083755 c 2
 300.344721394 925.285105765 l 1
 220.612407778 920.539134716 133.460292302 917.056649453 70.2388459536 899.305190344 c 1
 106.44347402 798.888580423 l 1
 142.661333269 808.093623607 187.069283552 811.729208184 240.219650562 815 c 1
 283.011799725 815 l 1
 278.688673266 777.052556639 275.263072808 740.762117465 272.073134585 699.018307366 c 0
 267.757464324 642.543069551 263.284429797 582.92650565 252.514689853 529.077805931 c 2
 248.799740728 510.503060307 l 1
 186.008799372 505.746170811 119.736518956 501.09415709 65.9482212419 486.722426762 c 1
 100.039822471 386.493119147 l 1
 128.431600916 393.502297512 164.901161275 399.19134545 207.520067702 399.995475759 c 2
 236.068345641 400.534122513 l 1
 232.838792216 372.148047675 l 2
 215.350825721 218.438026375 205.53261051 110.877405412 198.643479665 6.84279236084 c 1
 317.596135712 6.13893049074 l 1
 321.955264511 71.6807937316 334.838891737 259.652112438 347.124976273 382.5129578 c 2
 349.241696373 403.6801588 l 1
 406.824187464 407.135108265 463.649977754 410 526 410 c 0
EndSplineSet
Validated: 1
EndChar
StartChar: dollar
Encoding: 36 36 94
Width: 960
VWidth: 0
Flags: HW
LayerCount: 2
Fore
SplineSet
460.424913438 1508 m 1
 452.785674632 1267.81835938 l 1
 443.350541664 1250 433.915408696 1250 424.480275728 1267.81835938 c 0
 312.664962229 1267.81835938 198.162109375 1231.59472656 133.024414062 1162.53808594 c 0
 94.4248046875 1121.61523438 71.4287109375 1068.484375 71.4287109375 998.7734375 c 0
 71.4287109375 859.477539062 147.899414062 774.515625 231.950195312 733.5234375 c 0
 294.483398438 704.048828125 355.072477904 687.615234375 414.628776237 670.266601562 c 1
 384.055099466 171.00390625 l 1
 359.656690049 177.883789062 l 2
 315.272687503 190.401367188 271.055664062 210.62109375 235.830078125 244.416992188 c 0
 196.115234375 282.51953125 172.76171875 335.951171875 168.239257812 406.049804688 c 1
 60 406.049804688 l 1
 64.5703125 304.923828125 96.4921875 228.323242188 153.54296875 172.56640625 c 0
 203.213867188 124.021484375 273.881835938 89.767578125 358.26796556 71.6142578125 c 2
 378.064605207 67.1103515625 l 1
 353.529915181 -164.122070312 l 1
 462.46745042 -174.07421875 l 1
 472.619101682 60.1923828125 l 1
 492.215082763 61.013671875 l 2
 566.256421298 64.119140625 644.495117188 83.2021484375 710.23046875 124.068359375 c 0
 792.907226562 175.467773438 847.428710938 260.514648438 847.428710938 398.109375 c 0
 847.428710938 565.721679688 754.90625 660.102539062 652.756835938 710.848632812 c 0
 605.493164062 733.485351562 562.407957226 746.032226562 516.465506488 758.057617188 c 1
 541.083804249 1152.88964844 l 1
 564.93040261 1146.99023438 l 2
 627.134765625 1132.44824219 712.588867188 1098.21679688 755.205078125 1014.6484375 c 1
 849.087890625 1068.2578125 l 1
 793.897460938 1167.49316406 676.127929688 1238.78125 567.58076783 1257.08984375 c 2
 547.667077354 1260.80664062 l 1
 566.355914503 1498.1015625 l 1
 460.424913438 1508 l 1
223.447265625 875.087890625 m 0
 197 903.836914062 180.428710938 942.9921875 180.428710938 994 c 0
 180.428710938 1066.81933594 230.077148438 1104.90527344 284.905273438 1124.08105469 c 0
 326.300547835 1139.765625 372.768055153 1145.5546875 422.601609908 1145.99902344 c 2
 445.901413679 1146.20703125 l 1
 421.647645645 779.1015625 l 1
 397.395549766 785.638671875 l 2
 362.923244281 794.930664062 329.117292449 807.314453125 296.922851562 824.311523438 c 0
 270.370117188 836.639648438 244.415039062 852.294921875 223.447265625 875.087890625 c 0
683.272460938 547.71484375 m 0
 717.254882812 511.620117188 737.428710938 462.68359375 737.428710938 398 c 0
 737.428710938 314.666015625 704.5546875 259.9765625 652.32421875 226.770507812 c 0
 608.926757812 199.1796875 560.134662893 186.194335938 503.751278128 182.049804688 c 2
 479.163915229 180.2421875 l 1
 509.718362221 645.345703125 l 1
 536.216997957 634.512695312 562.069345896 624.672851562 587.887414664 611.975585938 c 0
 622.127929688 596.123046875 656.314453125 576.348632812 683.272460938 547.71484375 c 0
EndSplineSet
EndChar
StartChar: percent
Encoding: 37 37 156
Width: 960
VWidth: 0
Flags: HW
LayerCount: 2
Fore
SplineSet
910.942382812 1247.70019531 m 1
 820.453125 1314.01269531 l 1
 583.293092149 973 249.400390625 429.634765625 45.318359375 73.732421875 c 1
 150.791015625 16.07421875 l 1
 347.304687681 399.622070312 663.733387031 913.608398438 910.942382812 1247.70019531 c 1
659.708302674 487 m 0
 546.218217393 487 453.402625556 382.174804688 453.402625556 254 c 0
 453.402625556 125.825195312 546.218217393 21 659.708302674 21 c 0
 787.174804688 21 892 125.825195312 892 254 c 0
 892 382.174804688 787.174804688 487 659.708302674 487 c 0
659.708302674 121 m 0
 594.422385546 121 541.94583462 180.266601562 541.94583462 254 c 0
 541.94583462 327.733398438 594.422385546 387 659.708302674 387 c 0
 732.733398438 387 792 327.733398438 792 254 c 0
 792 180.266601562 732.733398438 121 659.708302674 121 c 0
266 1264 m 0
 137.825195312 1264 33 1159.17480469 33 1031 c 0
 33 902.825195312 137.825195312 798 266 798 c 0
 380.951971804 798 473.767563641 902.825195312 473.767563641 1031 c 0
 473.767563641 1159.17480469 380.951971804 1264 266 1264 c 0
266 898 m 0
 192.266601562 898 133 957.266601562 133 1031 c 0
 133 1104.73339844 192.266601562 1164 266 1164 c 0
 332.747803651 1164 385.224354578 1104.73339844 385.224354578 1031 c 0
 385.224354578 957.266601562 332.747803651 898 266 898 c 0
EndSplineSet
EndChar
StartChar: ampersand
Encoding: 38 38 168
Width: 1060
VWidth: 0
Flags: W
LayerCount: 2
Fore
SplineSet
424 108 m 0
 294.417138166 108 181 214.674515358 181 376 c 0
 181 501.533691558 254.257464206 595.791982629 334.447243471 666.729095056 c 2
 354.26434336 684.259606496 l 1
 465.571429614 542.899606955 576.248805689 391.047868754 687.12567999 243.902858 c 1
 673.8975579 228.639640204 l 2
 618.547355642 164.774022213 533.157234835 108 424 108 c 0
578 1069 m 0
 578 1033.54396803 563.248670946 1002.68546474 536.089704171 966.125317157 c 0
 511.482578716 932.959191543 472.96927874 891.669272515 397.349971848 838.531381186 c 2
 378.7100849 825.43308225 l 1
 363.936214437 842.833418573 l 2
 319.183280279 895.542429915 265 960.590020986 265 1044 c 0
 265 1094.83040883 289.004122282 1142.21514353 323.528059514 1174.9419443 c 0
 351.150600075 1201.12659919 386.70726128 1219 425 1219 c 0
 461.881923786 1219 496.306578096 1211.04068577 523.86516676 1191.118482 c 0
 558.960607296 1165.74786066 578 1123.49978184 578 1069 c 0
685 1085 m 0
 685 1189.6724784 630.044294225 1258.79298236 553.493421749 1294.64251067 c 0
 515.021811975 1312.65914482 470.846462677 1322 426 1322 c 0
 280.064021943 1322 157 1193.27708894 157 1037 c 0
 157 931.655741782 224.355202036 844.817590494 272.267593651 786.923450625 c 2
 288.565184856 767.23052792 l 1
 268.47268873 751.368030979 l 2
 158.79333121 664.779064515 72 536.760066216 72 367 c 0
 72 266.409942553 102.687999724 183.672083254 152.945405897 122.730912136 c 0
 215.697587866 46.638814461 310.250583666 3 419 3 c 0
 543.59100031 3 645.693182438 40.4029019168 731.678871921 133.002875206 c 2
 751.996811097 154.883732781 l 1
 792.654313946 100.934354001 835.535488091 44.9762475125 867.491566309 3.34158753177 c 1
 950.273195112 68.4812298688 l 1
 912.288887574 118.201819854 844.231211883 205.27654877 806.467099024 253.425792665 c 1
 815.828541269 268.293965643 l 2
 836.093095425 300.478845773 852.275323141 346.258614964 863.508282007 401.796700479 c 0
 876.265088638 464.86900636 882.761185386 540.197615175 883.838519977 622.168295149 c 1
 784.938910572 622.832050917 l 1
 784.428904032 527.13307337 780.345237285 458.882466642 758.855215487 390.505124557 c 2
 744.121197685 343.624158822 l 1
 714.886745631 383.157111031 l 2
 621.857655963 508.957811832 531.514209039 625.322903939 438.600761492 746.003588685 c 1
 459.215425959 761.156248037 l 2
 576.825462782 847.604651172 685 937.088949976 685 1085 c 0
EndSplineSet
Validated: 1
EndChar
StartChar: quotesingle
Encoding: 39 39 70
Width: 1060
VWidth: -25
Flags: W
LayerCount: 2
Fore
SplineSet
399 1439 m 1
 399 1261.53568895 l 1
 419.036187076 1191.09619549 428 1118.31583427 428 1031 c 0
 428 971.602286841 424.40566849 898.930667052 416.76266359 842.978659376 c 1
 521.190611917 831.450898846 l 1
 550.790403919 1015.30982466 559.465656489 1181.80702598 559.97570111 1439 c 1
 399 1439 l 1
EndSplineSet
Validated: 1
EndChar
StartChar: parenleft
Encoding: 40 40 98
Width: 1060
VWidth: 66
Flags: W
LayerCount: 2
Fore
SplineSet
383 612 m 0
 383 864.673076868 442.520262991 1087.74743605 569.067916451 1220.43114186 c 0
 643.833828382 1298.82230907 743.502380692 1346.96451906 868 1350.75776008 c 1
 868 1457.83855498 l 1
 649.599922493 1444.47274552 494.606979767 1346.15552982 396.707533185 1177.74517231 c 0
 314.970578084 1037.13814835 273 845.540457296 273 612 c 0
 273 429.201346046 304.10280993 273.867602397 357.949588429 148.357096631 c 0
 461.508848688 -93.02735559 648.330236516 -225.147785135 867 -236.257930679 c 1
 867 -120.178130797 l 1
 772.174757168 -114.211685095 688.162475494 -76.1353196591 618.523733983 -15.2733616857 c 0
 467.450722758 116.759455976 383 353.700248232 383 612 c 0
EndSplineSet
Validated: 1
EndChar
StartChar: parenright
Encoding: 41 41 99
Width: 1060
VWidth: 66
Flags: W
LayerCount: 2
Fore
SplineSet
656 612 m 0
 656 353.700248232 571.549277242 116.759455976 420.476266017 -15.2733616857 c 0
 350.837524506 -76.1353196591 266.825242832 -114.211685095 172 -120.178130797 c 1
 172 -236.257930679 l 1
 390.669763484 -225.147785135 577.491151312 -93.02735559 681.050411571 148.357096631 c 0
 734.89719007 273.867602397 766 429.201346046 766 612 c 0
 766 845.540457296 724.029421916 1037.13814835 642.292466815 1177.74517231 c 0
 544.393020233 1346.15552982 389.400077507 1444.47274552 171 1457.83855498 c 1
 171 1350.75776008 l 1
 295.497619308 1346.96451906 395.166171618 1298.82230907 469.932083549 1220.43114186 c 0
 596.527167045 1087.69770622 656 864.750194272 656 612 c 0
EndSplineSet
Validated: 1
EndChar
StartChar: asterisk
Encoding: 42 42 191
Width: 1060
VWidth: 0
Flags: W
LayerCount: 2
Fore
SplineSet
459.362424806 649.612244592 m 1
 126.490813012 795.243574752 l 1
 81.6523175626 697.414130136 l 1
 441.236367798 552.765588681 l 1
 180.000819639 220.098445322 l 1
 271.321864639 147.45670498 l 1
 521.494932529 521.18463497 l 1
 784.408563154 147.195090631 l 1
 871.07881859 223.547458515 l 1
 592.917794598 551.818372858 l 1
 961.992967739 707.378983025 l 1
 911.9704891 800.664145893 l 1
 571.81857842 648.326173626 l 1
 573.881926208 1088.85092626 l 1
 455.235021239 1088.14887357 l 1
 459.362424806 649.612244592 l 1
EndSplineSet
Validated: 1
EndChar
StartChar: plus
Encoding: 43 43 101
Width: 1060
VWidth: 6
Flags: W
LayerCount: 2
Fore
SplineSet
562 935 m 1
 457 935 l 1
 457 575 l 1
 87 575 l 1
 87 469 l 1
 457 469 l 1
 457 76 l 1
 562 76 l 1
 562 469 l 1
 947 469 l 1
 947 575 l 1
 562 575 l 1
 562 935 l 1
EndSplineSet
Validated: 1
EndChar
StartChar: comma
Encoding: 44 44 54
Width: 1060
VWidth: 26
Flags: W
LayerCount: 2
Fore
SplineSet
426 249 m 1
 426 30 l 1
 514 30 l 1
 514 5 l 2
 514 -59.0046573707 503.693136241 -110.926025272 482.524635871 -154.006850046 c 0
 459.284994076 -201.302733952 423.483362837 -236.257647869 378.810362841 -264.265855995 c 1
 420.488979919 -359.238442451 l 1
 497.452864749 -319.99857399 552.229723548 -268.88333235 587.257026729 -203.491677654 c 0
 618.044207724 -146.015808094 634 -76.3779194659 634 8 c 2
 634 10.6614501002 l 1
 627.656388406 249 l 1
 426 249 l 1
EndSplineSet
Validated: 1
EndChar
StartChar: hyphen
Encoding: 45 45 100
Width: 1060
VWidth: 6
Flags: W
LayerCount: 2
Fore
SplineSet
914 575 m 1
 177 575 l 1
 177 469 l 1
 914 469 l 1
 914 575 l 1
EndSplineSet
Validated: 1
EndChar
StartChar: period
Encoding: 46 46 53
Width: 1060
VWidth: 26
Flags: W
LayerCount: 2
Fore
SplineSet
623 244 m 1
 422 244 l 1
 422 25 l 1
 623 25 l 1
 623 244 l 1
EndSplineSet
Validated: 1
EndChar
StartChar: slash
Encoding: 47 47 104
Width: 1060
VWidth: 60
Flags: W
LayerCount: 2
Fore
SplineSet
753.369687064 1405.51288199 m 1
 632.289547763 1090.88028399 300.312699694 315.894282841 175.006089013 22.2069140589 c 0
 162.430793322 -7.13544255422 145.387283969 -42.983887987 133.923676861 -66.9375830524 c 1
 234.678055612 -108.464725646 l 1
 251.884326526 -68.0813794448 273.235670642 -18.0778424698 297.646255673 39.090276362 c 0
 453.089491479 403.12896552 732.785713643 1058.19524931 854.554075747 1365.85954048 c 1
 753.369687064 1405.51288199 l 1
EndSplineSet
Validated: 1
EndChar
StartChar: zero
Encoding: 48 48 52
Width: 960
VWidth: 0
Flags: HW
LayerCount: 2
Fore
SplineSet
230.340820312 450.866210938 m 2
 226.04296875 476.651367188 218 545.412109375 218 598 c 0
 218 677.616210938 221.270507812 775.583007812 235.852539062 868.349609375 c 0
 247.513671875 942.541992188 266.23046875 1013.67675781 297.924804688 1070.13671875 c 0
 333.592773438 1133.67578125 381.487505809 1180 440.764683735 1180 c 0
 551.836914062 1180 590.515625 1048.68847656 621.752929688 947.922851562 c 1
 239.686523438 394.790039062 l 1
 230.340820312 450.866210938 l 2
655.880859375 820.453125 m 2
 659.98828125 778.353515625 662 728.702148438 662 679 c 0
 662 597.514648438 660.409179688 501.100585938 647.510742188 410.994140625 c 0
 632.0859375 303.235351562 600.809570312 200.895507812 529.005859375 147.452148438 c 0
 503.946677334 124.838867188 475.420389566 112 442.294051205 112 c 0
 386.647627497 112 348.056640625 145.279296875 317.412109375 188.379882812 c 0
 289.520507812 227.609375 274.880859375 273.866210938 261.569335938 322.504882812 c 1
 649.81640625 882.612304688 l 1
 655.880859375 820.453125 l 2
571.202148438 1264.68164062 m 0
 528.935546875 1292.08203125 488.139977513 1308 440 1308 c 0
 368.708176946 1308 303.889648438 1269.25976562 252.00390625 1205.40039062 c 0
 205.678710938 1148.38476562 172.557617188 1070.37011719 150.569335938 983.23828125 c 0
 123.10546875 874.40234375 113 752.06640625 113 641 c 0
 113 511.532226562 127.950195312 378.232421875 167.576171875 270.501953125 c 0
 199.334960938 184.161132812 246.276367188 115.467773438 312.109375 75.05078125 c 0
 354.490234375 49.0322265625 394.484889019 34 442.294051205 34 c 0
 492.911783241 34 536.64453125 51.0732421875 579.397460938 80.1904296875 c 0
 645.879882812 125.467773438 691 202.350585938 720.124023438 296.555664062 c 0
 756.435546875 414.009765625 767 555.853515625 767 685 c 0
 767 812.413085938 753.15625 948.580078125 714.419921875 1060.22070312 c 0
 683.36328125 1149.72460938 636.903320312 1222.08984375 571.202148438 1264.68164062 c 0
EndSplineSet
EndChar
StartChar: one
Encoding: 49 49 105
Width: 1010
VWidth: 0
Flags: HW
LayerCount: 2
Fore
SplineSet
519.587890625 16 m 1
 633.634765625 16 l 1
 633.634765625 1266.46875 l 1
 474.782226562 1276.09570312 l 1
 448.5234375 1228.3046875 359.17578125 1077.90429688 108 924.090820312 c 1
 179.889648438 816.61328125 l 1
 295.709960938 902.068359375 412.11328125 994.361328125 473.104492188 1070.59960938 c 2
 517.501953125 1126.09667969 l 1
 519.587890625 16 l 1
EndSplineSet
EndChar
StartChar: two
Encoding: 50 50 106
Width: 960
VWidth: 0
Flags: HW
LayerCount: 2
Fore
SplineSet
124.580078125 198.416992188 m 0
 119.966796875 172.581054688 119 147.353515625 119 122 c 0
 119 98.537109375 120.060546875 75.1083984375 120.643554688 52 c 1
 780 52 l 1
 780 156.9140625 l 1
 243.567382812 154.909179688 l 1
 245.0390625 181.40625 l 2
 246.189453125 202.108398438 253.2578125 227.3828125 266.966796875 256.274414062 c 0
 284.087890625 292.359375 311.942382812 333.875 353.452148438 374.799804688 c 0
 396.632967874 426.352539062 440.316684251 473.845703125 481.827865509 519.000976562 c 0
 522.184534005 562.900390625 568.28125 604.6640625 609.055664062 645.404296875 c 0
 687.48046875 728.796875 761 836.682617188 761 953 c 0
 761 1093.17382812 722.670898438 1184.84179688 654.244140625 1239.41210938 c 0
 599.114257812 1283.37695312 523.805074779 1306 444.480772736 1306 c 0
 380.172677501 1306 308.5078125 1282.38769531 250.043945312 1238.89648438 c 0
 177.26171875 1184.75390625 130 1099.12890625 130 983 c 0
 130 975.299804688 130.955078125 967.525390625 130.998046875 958.752929688 c 0
 132.444335938 933.8203125 137.796875 901.604492188 143.833007812 875.994140625 c 1
 244.376953125 900.125 l 1
 240.934570312 913.81640625 238 929.965820312 238 945 c 0
 238 1019.84082031 255.223632812 1079.20117188 289.4375 1122.28515625 c 0
 332.546875 1176.5703125 391.195974398 1200 450.658283215 1200 c 0
 518.614668941 1200 576.228515625 1162.22070312 612.0703125 1105.47070312 c 0
 640.387695312 1060.63476562 652 1006.06054688 652 951 c 0
 652 918.607421875 642.0546875 882.58203125 624.509765625 845.446289062 c 0
 602.586914062 799.043945312 568.311523438 750.661132812 525.806431323 707.9765625 c 0
 494.575013597 668.583984375 459.536946348 632.489257812 422.272803544 594.034179688 c 0
 385.38796833 555.969726562 340.8359375 515.599609375 288.962890625 467.641601562 c 0
 183.513671875 369.02734375 141.556640625 289.90234375 124.580078125 198.416992188 c 0
EndSplineSet
EndChar
StartChar: three
Encoding: 51 51 107
Width: 960
VWidth: 0
Flags: HW
LayerCount: 2
Fore
SplineSet
194.700195312 79.35546875 m 0
 255.014648438 31.8134765625 335.138503138 3 417.796857326 3 c 0
 544.172851562 3 628.368164062 46.248046875 689.231445312 117.255859375 c 0
 751.171875 190.290039062 779.21875 296.16015625 779.21875 376 c 0
 779.21875 448.938476562 767.7421875 513.506835938 742.338867188 568.734375 c 0
 710.678710938 637.564453125 657.341796875 693.307617188 572.342773438 734.487304688 c 2
 525.963826905 757.822265625 l 1
 572.969726562 779.805664062 l 2
 651.42578125 815.154296875 700.21875 910.626953125 700.21875 1033 c 0
 700.21875 1098.25195312 679.88671875 1147.13964844 646.692382812 1184.11914062 c 0
 592.11328125 1244.92089844 502.270440196 1278 411.337103477 1278 c 2
 402.454941934 1278 l 2
 233.094726562 1278 145.665039062 1150.83105469 118.623046875 1099.58203125 c 1
 218.296875 1044.12988281 l 1
 246.77734375 1092.42773438 311.217773438 1175 410.529634246 1175 c 0
 480.74397287 1175 545.247070312 1145.07226562 577.296875 1086.88867188 c 0
 586.919921875 1069.41894531 592.21875 1049.47070312 592.21875 1028 c 0
 592.21875 968.021484375 577.666015625 921.435546875 546.3359375 886.612304688 c 0
 523.746440696 858.9296875 496.734860115 840.505859375 464.753085625 826.360351562 c 0
 408.875268575 803.29296875 367.161281925 799.473632812 336.242464977 799.046875 c 1
 336.242464977 690.94140625 l 1
 394.928287821 690.426757812 457.745293577 685.426757812 527.771170145 636.82421875 c 0
 584.088867188 604.716796875 622.912109375 563.14453125 644.928710938 511.828125 c 0
 662.458007812 470.969726562 669.21875 425.09375 669.21875 374 c 0
 669.21875 285.704101562 636.875 212.22265625 576.53515625 165.06640625 c 0
 529.466540112 127.537109375 478.010090229 108 417.796857326 108 c 0
 361.493226423 108 312.357421875 126.38671875 268.966796875 159.600585938 c 0
 220.9453125 196.359375 192.9921875 250.0078125 186.6171875 310.850585938 c 1
 78 310.163085938 l 1
 84.076171875 214.513671875 125.403320312 133.978515625 194.700195312 79.35546875 c 0
EndSplineSet
EndChar
StartChar: four
Encoding: 52 52 108
Width: 960
VWidth: 0
Flags: HW
LayerCount: 2
Fore
SplineSet
550.921875 1084.94042969 m 1
 550.921875 545 l 1
 199.760742188 545 l 1
 239.782226562 587.197265625 l 2
 328.84740923 682.34765625 452.991493514 876.5390625 510.743950518 1002.28613281 c 2
 550.921875 1084.94042969 l 1
124.920898438 463 m 1
 550.921875 463 l 1
 550.921875 48 l 1
 656.921875 48 l 1
 656.921875 466 l 1
 784.921875 466 l 1
 784.921875 570 l 1
 656.921875 570 l 1
 656.921875 1306 l 1
 539.252929688 1306 l 1
 532.948203297 1277.14550781 520.476887306 1244.14550781 504.066426704 1206.97949219 c 0
 421.222331846 1019.36035156 202.67578125 719.71875 106.651367188 600.400390625 c 0
 94.6162109375 585.446289062 84.7685546875 573.189453125 78 564.661132812 c 1
 124.920898438 463 l 1
EndSplineSet
EndChar
StartChar: five
Encoding: 53 53 109
Width: 960
VWidth: 0
Flags: HW
LayerCount: 2
Fore
SplineSet
216.07421875 652.702148438 m 1
 247.9375 684.331054688 329.120117188 756 429.844205316 756 c 0
 460.369138007 756 496.415600929 749.555664062 532.695877083 727.649414062 c 0
 579.291992188 705.555664062 619.491210938 669.416992188 644.541015625 614.59375 c 0
 664.50390625 570.903320312 674.904296875 516.323242188 674.904296875 448 c 0
 674.904296875 360.404296875 655.64453125 287.56640625 616.338867188 233.02734375 c 0
 566.783203125 164.263671875 498.109208614 129 420.393228373 129 c 0
 323.786132812 129 249.743164062 204.017578125 197.359375 284.032226562 c 1
 106 223.583984375 l 1
 174.69140625 118.118164062 282.936523438 23 418.030484137 23 c 2
 419.521043489 23 l 2
 499.902033098 23.8701171875 578.775390625 52.6474609375 645.955078125 107.8671875 c 0
 729.66796875 176.67578125 782.904296875 288.901367188 782.904296875 450 c 0
 782.904296875 641.5078125 682.40625 768.857421875 579.599609375 823.694335938 c 0
 520.382226297 854.533203125 469.968555588 864 427.48146108 864 c 0
 370.577934947 864 317.11328125 839.981445312 272.672851562 813.506835938 c 2
 231.252929688 788.831054688 l 1
 259.764648438 1157 l 1
 665.904296875 1157 l 1
 665.904296875 1261.08300781 l 1
 165.087890625 1262.92285156 l 1
 122.176757812 692.943359375 l 1
 216.07421875 652.702148438 l 1
EndSplineSet
EndChar
StartChar: six
Encoding: 54 54 110
Width: 960
VWidth: 0
Flags: HW
LayerCount: 2
Fore
SplineSet
169.250976562 943.802734375 m 0
 111.768554688 799.610351562 94 650.493164062 94 534 c 0
 94 405.243164062 119.62890625 293.778320312 168.505859375 210.947265625 c 0
 229.229492188 108.040039062 325.389648438 47 438.625363317 47 c 0
 520.44333368 47 600.583984375 70.1708984375 665.731445312 116.0078125 c 0
 746.563476562 172.87890625 797 266.227539062 797 406 c 0
 797 503.748046875 768.453125 587.180664062 719.458984375 649.516601562 c 0
 658.362304688 727.251953125 564.390625 774 467.741471623 774 c 0
 417.885348993 774 383.921294919 765.977539062 358.368876952 754.143554688 c 0
 320.25 738.21875 294.290039062 714.44921875 263.197265625 687.962890625 c 2
 212.3671875 644.662109375 l 1
 222.27734375 710.733398438 l 2
 231.341796875 771.16015625 242.594726562 835.336914062 268.803710938 900.333984375 c 0
 336.48046875 1066.45019531 475.652358689 1178.14355469 669.240234375 1204.99902344 c 1
 653.041992188 1308.26074219 l 1
 421.124421263 1273.18457031 248.64453125 1144.1328125 169.250976562 943.802734375 c 0
288.325195312 568.34765625 m 0
 338.193359375 612.491210938 395.303462801 644 460.462444546 644 c 0
 528.629869666 644 591.889648438 609.014648438 635.344726562 551.21875 c 0
 669.94140625 505.205078125 688 446.087890625 688 381 c 0
 688 288.725585938 651.455078125 218.202148438 590.290039062 175.168945312 c 0
 543.588365088 141.0390625 493.551372536 125 438.625363317 125 c 0
 358.271728478 125 283.467773438 187.200195312 243.05859375 280.204101562 c 0
 222.87109375 326.666992188 212 380.879882812 212 440 c 2
 212 442.352539062 l 1
 220.7265625 488.7109375 247.53515625 532.23828125 288.325195312 568.34765625 c 0
EndSplineSet
EndChar
StartChar: seven
Encoding: 55 55 111
Width: 960
VWidth: 0
Flags: HW
LayerCount: 2
Fore
SplineSet
379.393234965 1261 m 2
 313.64453125 1261 214.677734375 1266.22753906 137.595703125 1266.91796875 c 1
 116.927734375 1210.06933594 90.58984375 1151.74316406 71 1097.41699219 c 1
 159.260742188 1057.53710938 l 1
 168.934570312 1089.39453125 178.763671875 1119.32617188 194.717773438 1150.39550781 c 2
 202.083007812 1164.73730469 l 1
 273.094726562 1161.35644531 355.531102837 1156 414.08700651 1156 c 2
 525.974419742 1156 l 2
 587.520289566 1156 653.856445312 1156.01464844 704.99609375 1157.98144531 c 2
 753.295898438 1159.83886719 l 1
 743.513671875 1144.82421875 733.73046875 1129.81054688 723.948242188 1114.79589844 c 0
 482.389522223 706.198242188 315.245117188 409.225585938 307.232421875 25 c 1
 408.218880307 25 l 1
 413.539834234 348.96484375 522.480479126 555.12109375 678.252929688 841.462890625 c 0
 742.717773438 947.361328125 814.096679688 1064.62695312 889.435546875 1203.76855469 c 1
 857.331054688 1261 l 1
 379.393234965 1261 l 2
EndSplineSet
EndChar
StartChar: eight
Encoding: 56 56 112
Width: 960
VWidth: 0
Flags: HW
LayerCount: 2
Fore
SplineSet
604.303710938 174.552734375 m 0
 556.346585931 140.008789062 501.791942856 122 437 122 c 0
 372.208057144 122 317.653414069 140.008789062 269.696289062 174.552734375 c 0
 207.58203125 218.055664062 174 286.578125 174 368 c 0
 174 542.341796875 325.018987826 623.484375 437 684.46484375 c 1
 548.985902994 623.481445312 700 542.348632812 700 368 c 0
 700 286.578125 666.41796875 218.055664062 604.303710938 174.552734375 c 0
279.155273438 907.560546875 m 0
 261.25390625 932.512695312 250 960.224609375 250 989 c 0
 250 1040.75878906 274.131835938 1089.17089844 317.638741611 1121.09179688 c 0
 347.460511852 1146.50976562 387.297049598 1161 435.33060037 1161 c 0
 483.364151142 1161 523.200688889 1146.50976562 553.02245913 1121.09179688 c 0
 595.868164062 1089.17089844 620 1040.75878906 620 989 c 0
 620 960.5703125 609.415039062 932.951171875 592.143554688 907.932617188 c 0
 558.558866495 857.94140625 506.372195062 816.002929688 442.070149266 796.744140625 c 2
 437 795.225585938 l 1
 431.929850734 796.744140625 l 2
 367.723175912 815.974609375 314.236361702 857.702148438 279.155273438 907.560546875 c 0
627.313476562 1201.84863281 m 0
 575.365234375 1242.66699219 512.738411424 1268 435.33060037 1268 c 0
 357.922789317 1268 294.634765625 1242.66699219 242.686523438 1201.84863281 c 0
 177.943359375 1150.97558594 143 1074.43554688 143 985 c 0
 143 945.485351562 157.940429688 903.631835938 182.514648438 866.126953125 c 0
 213.224609375 819.256835938 258.401367188 780.239257812 302.109375 760.868164062 c 2
 344.809687831 738.956054688 l 1
 302.833984375 715.466796875 l 2
 195.452148438 663.693359375 65 546.083007812 65 378 c 0
 65 261.619140625 112.0703125 163.64453125 194.809570312 99.0078125 c 0
 261.142578125 47.1865234375 344.891201484 16 437 16 c 0
 529.108798516 16 612.857421875 47.1865234375 679.190429688 99.0078125 c 0
 761.9296875 163.64453125 809 261.619140625 809 378 c 0
 809 546.083007812 678.547851562 663.693359375 571.166015625 715.466796875 c 2
 529.190312169 738.956054688 l 1
 571.890625 760.868164062 l 2
 615.435546875 780.166992188 659.280273438 818.983398438 688.946289062 865.805664062 c 0
 712.672851562 903.252929688 727 945.193359375 727 985 c 0
 727 1074.43554688 692.056640625 1150.97558594 627.313476562 1201.84863281 c 0
EndSplineSet
EndChar
StartChar: nine
Encoding: 57 57 113
Width: 960
VWidth: 0
Flags: HW
LayerCount: 2
Fore
SplineSet
302.202148438 1137.05175781 m 0
 344.260409428 1165.12402344 393.788356125 1177 444.382525516 1177 c 0
 481.323863074 1177 515.520709412 1162.5078125 544.818760363 1139.27636719 c 0
 613.561523438 1092.95214844 662.208984375 1011.84667969 671.768554688 930.959960938 c 2
 672.366210938 925.897460938 l 1
 670.958007812 921.036132812 l 2
 647.995117188 841.815429688 555.270507812 743 438.579424319 743 c 0
 363.760869602 743 295.99609375 771.0625 248.779296875 820.442382812 c 0
 217.305664062 853.358398438 197.942382812 897.783203125 197.942382812 952 c 0
 197.942382812 1039.54101562 240.340820312 1101.58789062 302.202148438 1137.05175781 c 0
210.551757812 1207.84863281 m 0
 134.905273438 1152.83300781 88.9423828125 1067.19726562 88.9423828125 955 c 0
 88.9423828125 837.6171875 138 755.5390625 215.3125 704.124023438 c 0
 277.55859375 662.727539062 351.366131974 641 426.973221925 641 c 0
 484.63263464 641 526.454956729 650.005859375 561.546875 667.446289062 c 0
 594.04296875 681.403320312 620.889648438 700.87890625 647.127929688 727.533203125 c 2
 688.2578125 769.315429688 l 1
 689.146484375 738.209960938 689.953125 707.486328125 691.112304688 676.555664062 c 0
 692.012695312 652.55859375 692.942382812 627.940429688 692.942382812 603 c 0
 692.942382812 413.391601562 663.446289062 235.889648438 542.220803926 162.858398438 c 0
 511.392638402 140.865234375 474.12341915 129 430.289279752 129 c 0
 361.122433944 129 312.297206533 140.861328125 268.231445312 171.068359375 c 0
 217.928710938 205.3046875 192.461914062 258.729492188 169.555664062 328.116210938 c 1
 65 297.365234375 l 1
 91.98828125 221.782226562 126.319335938 161.705078125 172.318359375 117.541992188 c 0
 235.514648438 56.8681640625 321.050433394 23 430.289279752 23 c 0
 515.016338312 23 581.615234375 51.8798828125 637.374023438 99.6103515625 c 0
 682.111328125 137.907226562 715.635742188 189.3515625 740.247070312 250.586914062 c 0
 784.549804688 360.819335938 798.942382812 501.602539062 798.942382812 644 c 0
 798.942382812 784.755859375 789.538085938 927.895507812 747.844726562 1041.03320312 c 0
 724.684570312 1103.87988281 691.936523438 1157.02050781 646.108398438 1196.78808594 c 0
 588.999023438 1246.34570312 517.289651393 1277 423.657164099 1277 c 0
 345.513646126 1277 271.325195312 1252.04785156 210.551757812 1207.84863281 c 0
EndSplineSet
EndChar
StartChar: less
Encoding: 60 60 102
Width: 1060
VWidth: 4
Flags: W
LayerCount: 2
Fore
SplineSet
753.00587868 6.00911122891 m 1
 839.701266832 78.8332372765 l 1
 805.193040783 120.982469254 747.315471704 172.780398467 680.91056359 225.283214741 c 0
 585.498061085 300.720787526 472.625542097 378.435652818 383.954785092 439.464241422 c 0
 340.773205924 469.184421099 311.09497531 489.860385987 273.964825457 516.085177142 c 1
 315.561005033 548.263353795 353.058488729 577.592401961 398.274410075 613.224377341 c 0
 539.669151199 724.649153941 709.426703899 858.810965367 841.223137417 932.27790592 c 1
 807.690428412 1044.29142323 l 1
 788.863129155 1036.09221988 769.507959509 1024.12361919 750.462885718 1013.32670442 c 0
 623.676811726 938.916130977 315.272365332 691.820076149 156 561.183331541 c 1
 156 465.919778792 l 1
 224.493744846 416.968450039 558.246015632 174.612116934 648.734496875 99.4247332933 c 0
 687.976865016 68.3569505643 725.626020245 38.313060371 753.00587868 6.00911122891 c 1
EndSplineSet
Validated: 1
EndChar
StartChar: equal
Encoding: 61 61 114
Width: 1060
VWidth: 6
Flags: W
LayerCount: 2
Fore
SplineSet
871.688213262 324.059357722 m 1
 710.251634433 324.81051494 581.984343455 332 416 332 c 0
 308.485411034 332 203.379229883 325.326264575 75 325.326264575 c 1
 75 215.36398916 l 1
 134.400416936 218.235873936 189.438826907 219 242 219 c 0
 293.315782693 219 343.277478526 218 394 218 c 0
 565.267415488 218 703.118295641 213.477584064 870.309005262 213.033113747 c 1
 871.688213262 324.059357722 l 1
870 797.973146952 m 1
 687.949870323 797.580499332 580.195117184 793 396 793 c 2
 304 793 l 2
 237.030624124 793 160.551955253 793.840093332 71.7310424674 798.603374559 c 1
 70.3162193434 763.505667938 70.0577098412 727.034883121 70.0105224521 690.538122077 c 1
 202.776217587 682.772705419 303.608263149 681 394 681 c 0
 579.699072385 681 688.854003359 688.302462924 870 688.955088483 c 1
 870 797.973146952 l 1
EndSplineSet
Validated: 1
EndChar
StartChar: greater
Encoding: 62 62 103
Width: 1060
VWidth: 6
Flags: W
LayerCount: 2
Fore
SplineSet
901 486.617804984 m 1
 901 578.583235726 l 1
 880.141187779 594.199085203 846.844394633 618.185677794 806.509057717 647.226949022 c 0
 717.538465647 711.285397348 593.782871117 800.378286498 486.9461376 883.906786092 c 0
 412.430861675 942.165298777 346.420392733 997.159278271 304.797303647 1041.05638275 c 1
 222.530596987 969.944483769 l 1
 236.235806671 952.748587612 255.017796539 935.899939344 273.976608803 918.345483544 c 0
 385.706809283 814.455998887 629.96554772 636.029838791 755.507888871 546.35673797 c 2
 782.40151289 527.147006528 l 1
 771.364066583 518.301224442 760.326196787 509.455865846 749.289162958 500.609671282 c 0
 612.101457113 390.651322422 371.471946384 197.357110956 196.916559699 98.6105218964 c 1
 244.16380724 2.0315894222 l 1
 297.990533164 26.3823468607 373.570112174 75.3013379434 453.482003806 133.334640332 c 0
 567.111780348 215.854413645 690.638500608 316.610480648 783.48037027 392.355085743 c 0
 833.502215284 433.165174019 874.328535626 466.527965449 901 486.617804984 c 1
EndSplineSet
Validated: 1
EndChar
StartChar: question
Encoding: 63 63 119
Width: 1060
VWidth: 0
Flags: W
LayerCount: 2
Fore
SplineSet
505 1312 m 0
 416.888502662 1312 334.424750591 1291.03386211 270.97467408 1248.94708867 c 0
 192.211049418 1196.70275724 140 1111.52956994 140 984 c 0
 140 915.739734328 166.009097417 861.238349987 199.896347318 808.745259913 c 1
 291.050546666 869.968229625 l 1
 268.475728485 901.851655108 247 943.191598128 247 989 c 0
 247 989.128524975 247 989.257049949 247 989.385574924 c 0
 248.222376663 1070.06243471 283.627004442 1130.2789838 339.324593204 1166.02847957 c 0
 383.405881572 1194.32205327 438.296838394 1207 497 1207 c 0
 576.075822408 1207 635.72976683 1179.29739337 671.912507408 1130.42803892 c 0
 700.534557755 1091.77035017 713 1042.60085787 713 989 c 0
 713 889.325372383 646.099815841 835.001181684 572.463987927 773.474136181 c 0
 555.454159951 759.261429003 537.715134814 744.435268678 519.609487096 728.32124221 c 0
 474.386775994 688.482187191 440.199717425 648.702004311 418.708663182 602.857769441 c 0
 401.51022943 566.170456322 392 525.049678345 392 475 c 2
 392 456 l 1
 517 456 l 1
 517 477 l 2
 517 573.551146647 583.55376646 645.702598141 638.705936387 692.339149505 c 0
 717.406942577 758.888544072 823 849.954225882 823 993 c 0
 823 1083.39946075 801.727068856 1156.01287007 761.222682018 1208.42681488 c 0
 710.962644569 1273.46487704 628.124058503 1312 505 1312 c 0
558 245 m 1
 358 245 l 1
 358 25 l 1
 558 25 l 1
 558 245 l 1
EndSplineSet
Validated: 1
EndChar
StartChar: at
Encoding: 64 64 163
Width: 1060
VWidth: 6
Flags: W
LayerCount: 2
Back
SplineSet
648 105 m 5
 631 69 599 6 510 6 c 4
 448 6 411 19 357 57 c 4
 276 114 250 211 250 309 c 4
 250 476 303 663 490 663 c 4
 530 663 561 662 585 651 c 5
 585 748 583 872 498 872 c 6
 490 872 l 6
 444 872 420 844 384 750 c 5
 254 816 l 5
 303 957 371 1025 498 1025 c 4
 706 1025 720 790 720 621 c 6
 720 267 l 5
 748 206 772 171 789 171 c 4
 805 171 815 206 815 288 c 6
 815 288 815 582 815 705 c 7
 815 936 739 1238 499 1238 c 4
 351 1238 177 1027 177 550 c 4
 177 97 288 -212 543 -212 c 4
 586 -212 621 -199 653 -178 c 5
 725 -313 l 5
 679 -342 620 -362 543 -362 c 4
 156 -362 17 0 17 550 c 4
 17 1095 241 1386 500 1386 c 4
 887 1386 962 943 962 721 c 4
 962 564 962 427 962 270 c 7
 962 76 889 3 809 3 c 4
 791 3 773 7 755 14 c 4
 708 32 658 84 648 105 c 5
404 324 m 4
 404 216 438 164 500 164 c 4
 570 164 565 248 576 276 c 5
 576 489 l 5
 557 508 529 510 500 510 c 5
 444 510 404 425 404 324 c 4
EndSplineSet
Fore
SplineSet
431 501 m 0
 431 596.240534209 457.391148982 671.11749231 522.06532885 702.674750587 c 0
 543.207152876 712.990737625 567.385077989 718 594 718 c 0
 663.136538705 718 745.831292397 695.475323451 800.223329446 649.015458471 c 2
 809 641.51871904 l 1
 809 530.099145981 l 1
 792.670859655 489.956675968 758.544421658 431.872819165 708.108352865 381.819189475 c 0
 670.002001959 344.001785724 622.236544579 311 568 311 c 0
 537.753975506 311 509.781671044 321.513560595 487.607196826 341.251742692 c 0
 450.163643931 374.581401747 431 430.467031528 431 501 c 0
917 479 m 2
 917 838 l 2
 917 927.247087294 899.188978701 1022.76763669 855.532940801 1099.78347714 c 0
 800.190697177 1197.41554843 705.042751769 1265 550 1265 c 0
 443.905221532 1265 351.528909056 1227.93946795 275.947667565 1156.55289496 c 0
 215.385515615 1099.35187001 165.270160775 1019.4304647 129.20124757 917.656601347 c 0
 88.6371679282 803.19894983 66 661.377078789 66 495 c 0
 66 267.488504123 154.485310774 32.4100581448 303.0030561 -96.4841447851 c 0
 377.098478357 -160.789392428 465.616413729 -199 567 -199 c 0
 625.787340076 -199 690.001409419 -182.102043219 759.488857565 -148.413548508 c 1
 720.601344387 -60.9166438571 l 1
 671.156257368 -88.6602567324 625.618715594 -103 579 -103 c 0
 492.748220765 -103 416.291314103 -70.1026178959 353.855824187 -15.0961609566 c 0
 229.282186536 94.6547906954 159 290.558353392 159 501 c 0
 159 643.625972616 175.493367154 763.833163359 206.459543986 861.516331806 c 0
 233.970799946 948.300911794 273.028008094 1017.60571465 322.793255054 1068.15383679 c 0
 385.174923751 1131.5168542 463.824547015 1164 552 1164 c 0
 625.358542956 1164 680.532821632 1143.85527091 719.951160422 1108.81130095 c 0
 751.336328476 1080.90903716 771.450549114 1044.93087842 784.381099258 1006.33344959 c 0
 807.648865968 936.879639848 809 857.17269772 809 787 c 2
 809 730.562909094 l 1
 767.210181463 768.483299989 l 2
 719.854180336 811.454486196 650.292264773 828 585 828 c 0
 488.585085638 828 406.241507535 770.4953577 360.890152772 670.542904585 c 0
 338.184356693 620.500297701 325 559.763128515 325 491 c 0
 325 406.263304963 363.010175113 327.865518122 417.937065423 275.459137212 c 0
 461.903450483 233.510301047 515.860777298 209 568 209 c 0
 619.429573234 209 656.597577908 219.831210076 687.403623435 236.486839356 c 0
 725.974197271 257.340446755 755.607389554 288.553997147 787.940256841 323.078923234 c 2
 826.753670538 364.523754808 l 1
 833.775585464 312.36095821 l 2
 839.243512979 271.742068104 847.925342936 235.238961366 860.722297256 206.125269099 c 1
 963.581836779 249.72136532 l 1
 919.326123505 329.828632879 917 409.905138107 917 479 c 2
EndSplineSet
Validated: 1
EndChar
StartChar: A
Encoding: 65 65 26
Width: 960
VWidth: 0
Flags: W
LayerCount: 2
Fore
SplineSet
672.241210938 480.56640625 m 1
 481.802288512 477.009765625 l 2
 468.462243977 476.283203125 455.937424387 475.688476562 444.081330543 475.125976562 c 0
 390.482444891 472.583007812 351.077607916 470.61328125 310.157796891 460.56640625 c 2
 271.421875 451.52734375 l 1
 468.81125677 1174.40820312 l 1
 672.241210938 480.56640625 l 1
880.981445312 164.475585938 m 1
 526.965405692 1276 l 1
 408.132151099 1276 l 1
 69.724609375 151.626953125 l 2
 60.4775390625 120.987304688 47.84765625 61.4912109375 42 25 c 1
 152.669921875 25 l 1
 157.044921875 59.31640625 167.37109375 103.505859375 176.1328125 128.978515625 c 2
 239.4296875 321.014648438 l 1
 252.91015625 324.29296875 l 2
 351.140516395 350.241210938 521.410500842 353.454101562 645.381568453 356.221679688 c 0
 662.974398502 356.614257812 680.5625 356.978515625 699.7265625 357.38671875 c 1
 725.08203125 281.2890625 750.467773438 205.220703125 775.805664062 129.104492188 c 0
 782.880859375 105.2265625 791.2421875 58.119140625 795.059570312 25 c 1
 908.842773438 25 l 1
 903.54296875 73.3857421875 889.706054688 134.9921875 880.981445312 164.475585938 c 1
EndSplineSet
EndChar
StartChar: C
Encoding: 67 67 28
Width: 960
VWidth: 0
Flags: W
LayerCount: 2
Fore
SplineSet
271.545898438 1034.37207031 m 0
 319.913816565 1107.07128906 403.065955896 1177 511.024960311 1177 c 0
 557.172225299 1177 601.131964316 1159.27636719 643.299804688 1121.40917969 c 0
 673.934570312 1095.62695312 701.658203125 1060.96191406 726.6640625 1016.85351562 c 1
 819.018554688 1071.859375 l 1
 735.026367188 1211.24023438 620.056640625 1281 513.616583829 1281 c 0
 370.190637907 1281 252.360351562 1194.59667969 184.6953125 1094.97753906 c 0
 134.955078125 1022.28027344 56 871.459960938 56 623 c 0
 56 404.529296875 113.236328125 248.1171875 227.651367188 131.69921875 c 0
 312.88639993 46.6875 420.591472484 22 513.616583829 22 c 2
 516.208207346 22 l 2
 670.10546875 22 792.212890625 118.046875 864.828125 255.643554688 c 1
 769.94921875 307.51953125 l 1
 747.723632812 265.24609375 719.596679688 228.138671875 683.885742188 198.627929688 c 0
 630.80859375 154.765625 569.832542399 128.947265625 495.357111362 126.014648438 c 2
 494.985071658 126 l 2
 490.829362853 126 486.672810421 126 482.517101616 126 c 0
 441.782550329 126 408.053481364 130.817382812 376.046256018 146.700195312 c 0
 350.490249761 159.3828125 326.884710161 178.692382812 301.905745078 205.7421875 c 0
 195.6640625 304.416992188 165 458.670898438 165 625 c 0
 165 843.75 223.305664062 965.912109375 271.545898438 1034.37207031 c 0
EndSplineSet
EndChar
StartChar: D
Encoding: 68 68 29
Width: 960
VWidth: 0
Flags: HW
LayerCount: 2
Fore
SplineSet
202.369140625 1174.61914062 m 2
 214.321289062 1176.72851562 224.6328125 1177.16015625 233.880859375 1177.16015625 c 0
 239.970703125 1177.16015625 245.684570312 1177 251.736328125 1177 c 2
 281.736328125 1177 l 2
 372.118977915 1177 437.786260301 1162.86621094 491.361678468 1134.30078125 c 0
 558.520557332 1098.49414062 604.531931512 1040.70019531 652.383789062 968.092773438 c 0
 721.040039062 867.748046875 757.736328125 697.537109375 757.736328125 533 c 0
 757.736328125 475.807617188 747.081054688 387.64453125 729.243164062 337.4765625 c 0
 691.216796875 232.7578125 630.356445312 173.53125 562.257124354 144.168945312 c 0
 509.374473625 120.926757812 449.375594556 116 383.730197897 116 c 0
 330.831553752 116 265.16015625 116.857421875 177.483398438 119.845703125 c 1
 178.727539062 239.245117188 181.736328125 545.083007812 181.736328125 866 c 0
 181.736328125 931.798828125 182.736328125 999.569335938 182.736328125 1064 c 0
 182.736328125 1103.65917969 182.235351562 1137.02441406 180.8828125 1170.82714844 c 1
 202.369140625 1174.61914062 l 2
67.736328125 124.602539062 m 1
 66.076171875 71.478515625 64.9658203125 33.5087890625 64.826171875 21.8955078125 c 1
 161.264648438 21.123046875 280.271484375 15 362.181174297 15 c 0
 409.059559973 15 452.261143498 16.96875 498.984645567 21.896484375 c 0
 564.363204708 29.0595703125 626.911132812 55.0517578125 687.092773438 100.907226562 c 0
 762.203125 158.138671875 820.599609375 246.947265625 846.237304688 373.001953125 c 0
 858.978515625 436.706054688 866.736328125 502 866.736328125 568 c 0
 866.736328125 740.694335938 820.403320312 912.348632812 740.0234375 1031.00390625 c 0
 673.71875 1127.49707031 602.472989648 1192.17675781 518.213782095 1231.74023438 c 0
 450.675270042 1263.45214844 369.306661983 1279 260.736328125 1279 c 0
 173.0234375 1279 129.346679688 1275.12890625 63 1268.57519531 c 1
 70.462890625 1183.46191406 73.736328125 1071.9296875 73.736328125 957 c 2
 73.736328125 883 l 2
 73.736328125 660.018554688 70.734375 400.178710938 68.9765625 248.037109375 c 0
 68.25 185.09765625 67.736328125 140.423828125 67.736328125 125 c 2
 67.736328125 124.602539062 l 1
EndSplineSet
EndChar
StartChar: F
Encoding: 70 70 31
Width: 960
VWidth: 0
Flags: HW
LayerCount: 2
Fore
SplineSet
116 27.38671875 m 1
 226.924804688 24.630859375 l 1
 226.274414062 160.655273438 222 554.907226562 222 665 c 2
 222 689.315429688 l 1
 336.858398438 692.505859375 426.548793177 693 520.376308037 693 c 2
 520.657053826 693 l 2
 552.083542792 693 586.351568623 689.743164062 617.533203125 683.392578125 c 1
 641.752929688 780.94140625 l 1
 624.037109375 784.3828125 579.737814484 793 523.149686965 793 c 0
 422.441466046 793 366.788887358 790 247 790 c 2
 222 790 l 1
 222 1167.86328125 l 1
 361.327148438 1168.625 516.894573402 1170 613 1170 c 2
 683.259765625 1170 l 2
 737.676757812 1169.44433594 770.59375 1165.34277344 794.979492188 1158.59277344 c 0
 802.658203125 1156.46777344 809.4140625 1154.05273438 815.466796875 1151.53710938 c 1
 853.1640625 1249.81933594 l 1
 823.954101562 1261.26464844 784.20703125 1270.66894531 725.5 1273 c 1
 116 1273 l 1
 116 27.38671875 l 1
EndSplineSet
EndChar
StartChar: G
Encoding: 71 71 32
Width: 960
VWidth: 0
Flags: HW
LayerCount: 2
Fore
SplineSet
769.6015625 990.358398438 m 1
 867.568359375 1037.62988281 l 1
 796.983398438 1175.55273438 677.193359375 1272.24707031 497.275994965 1277 c 1
 479.863965806 1277 l 2
 381.995639315 1277 285.291682395 1253.20214844 195.959960938 1167.62890625 c 0
 69.900390625 1050.24511719 20 861.48046875 20 628 c 0
 20 476.592773438 50.376953125 338.142578125 113.494140625 232.354492188 c 0
 191.967773438 100.829101562 314.4242263 17 486.050919903 17 c 0
 522.55809213 17 578.188027754 18.30859375 614.344767033 27.3154296875 c 0
 652.108398438 38.1923828125 689.811523438 53.1708984375 722.9453125 75.2177734375 c 0
 764.4140625 102.810546875 799.563476562 141.663085938 827.4609375 200.744140625 c 0
 867.670898438 285.900390625 892 413.668945312 892 605 c 2
 892 712.677734375 l 1
 858.087890625 709.900390625 823.049804688 708 786 708 c 0
 731.069335938 708 675.09765625 710 623.047760639 710 c 0
 541.503912783 710 459.38953247 704.756835938 383.811676065 677.100585938 c 1
 407.407206781 580.32421875 l 1
 479.192446513 606.59375 537.779483803 611 595.648392492 611 c 0
 622.096585498 611 647.87109375 610 678 610 c 0
 701.004882812 610 724.2421875 610.016601562 749.059570312 611.92578125 c 2
 776 613.998046875 l 1
 776 587 l 2
 776 441.91796875 762.391601562 343.52734375 734.1796875 274.162109375 c 0
 701.73046875 194.379882812 648.958007812 151.166992188 573.580611323 131.729492188 c 0
 549.562144292 124.474609375 499.030749106 121.965820312 495.035295629 121.965820312 c 0
 494.976602426 121.965820312 494.928266847 122 494.889425757 122 c 0
 428.932075822 122.000976562 373.628405356 135.418945312 327.856338419 160.649414062 c 0
 270.522573639 192.251953125 224.408203125 242.141601562 192.79296875 302.908203125 c 0
 147.328125 390.29296875 132 499.775390625 132 617 c 0
 132 713.96875 139.98046875 818.095703125 167.220703125 909.825195312 c 0
 188.97265625 983.07421875 223.307617188 1049.39746094 276.364273602 1095.99902344 c 0
 308.701639013 1127.42675781 339.078824074 1147.10742188 369.844420037 1158.73242188 c 0
 408.311772614 1173.26757812 446.107605899 1175 487.818621074 1175 c 0
 568.225719691 1175 630.640762201 1148.79296875 682.364257812 1103.52929688 c 0
 718.91796875 1072.76171875 747.115234375 1033.94726562 769.6015625 990.358398438 c 1
EndSplineSet
EndChar
StartChar: H
Encoding: 72 72 33
Width: 960
VWidth: 0
Flags: W
LayerCount: 2
Fore
SplineSet
812 1266 m 1
 703.0078125 1266 l 1
 703.130859375 1076.86132812 704 1014.24511719 704 777 c 2
 704 752 l 1
 469.558361247 752 l 2
 369.668982302 752 289.071289062 745.053710938 199.578125 724.625976562 c 2
 168.942382812 717.6328125 l 1
 169.954101562 1270.68457031 l 1
 60 1269.31054688 l 1
 60 25 l 1
 170.987304688 25 l 1
 170.751953125 248.21484375 169 300.2890625 169 597 c 2
 169 617.262695312 l 1
 188.80078125 621.458007812 l 2
 309.547408448 647.193359375 429.828243768 650 552.615305334 650 c 2
 704 650 l 1
 704 25 l 1
 812 25 l 1
 812 1266 l 1
EndSplineSet
EndChar
StartChar: I
Encoding: 73 73 50
Width: 1010
VWidth: 0
Flags: W
LayerCount: 2
Fore
SplineSet
531.03125 1177 m 1
 556.03125 1177 l 2
 651.3984375 1177 699.323242188 1172.64746094 798.03125 1172.07128906 c 1
 798.03125 1274.30371094 l 1
 649.815429688 1276.10253906 558.451171875 1277 459.03125 1277 c 0
 368.36328125 1277 291.485351562 1273.63867188 152 1273.63867188 c 1
 156.026367188 1170.30175781 l 1
 262.015625 1175.49707031 331.310546875 1175.02246094 421.03125 1176.38183594 c 1
 421.03125 126 l 1
 321.03125 126 l 2
 269.869140625 126 224.676757812 125.19921875 154.03125 122.110351562 c 1
 154.03125 22.0615234375 l 1
 233.557617188 22.4501953125 297.788085938 24.6201171875 351.458007812 26.4345703125 c 0
 392.358398438 27.81640625 427.138671875 29 458.03125 29 c 0
 512.999023438 29 560.802734375 30 613.03125 30 c 0
 669.584960938 30 725.689453125 29.1904296875 798.03125 25.42578125 c 1
 798.03125 125.28125 l 1
 755.784179688 127.29296875 716.748046875 128 679.03125 128 c 0
 629.734375 128 603.916015625 127 556.03125 127 c 2
 531.03125 127 l 1
 531.03125 1177 l 1
EndSplineSet
EndChar
StartChar: J
Encoding: 74 74 51
Width: 960
VWidth: 0
Flags: W
LayerCount: 2
Fore
SplineSet
396.77470874 1171 m 1
 397.091889369 1171 l 2
 434.87952077 1171 501.806325092 1169 540.000793513 1169 c 2
 559.84107621 1169 l 1
 570.552477501 1027.81835938 585.904865754 763.360351562 585.904865754 659 c 0
 585.904865754 514.77734375 580.459508717 397.233398438 560.113428644 307.681640625 c 0
 543.908458861 236.358398438 517.498730978 180.584960938 473.677055293 147.963867188 c 0
 445.636596071 127.08984375 411.858973634 117 372.840681392 117 c 0
 327.975269985 117 290.433770751 131.151367188 256.836914062 156.466796875 c 0
 229.452148438 176.666992188 208.39453125 203.408203125 192.61328125 233.74609375 c 0
 167.501953125 282.020507812 155.107421875 339.760742188 150.66796875 400.147460938 c 1
 40 400.838867188 l 1
 43.869140625 316.740234375 63.2939453125 234.584960938 102.099609375 168.8046875 c 0
 155.043945312 79.0615234375 243.651367188 17 374.572910534 17 c 0
 458.732349876 17 517.710184731 43.4921875 560.703807521 88.1767578125 c 0
 595.244355098 124.076171875 622.21875 173.096679688 643.098632812 233.434570312 c 0
 680.682617188 342.0390625 690.301757812 485.60546875 690.301757812 642 c 0
 690.301757812 764.211914062 684.302734375 965.852539062 668.403320312 1142.73730469 c 2
 665.953125 1170 l 1
 693.301757812 1170 l 2
 736.688476562 1170 806.586914062 1169.27539062 853.627929688 1169.06445312 c 1
 854.973632812 1272.04882812 l 1
 395.620171251 1272.99902344 l 1
 320.63613314 1270.78320312 288.907920473 1264.01171875 263.78515625 1257.82226562 c 1
 288.830105492 1158.43066406 l 1
 306.874722922 1163.54589844 333.810547741 1168.90332031 396.457528111 1170.98925781 c 2
 396.77470874 1171 l 1
EndSplineSet
EndChar
StartChar: L
Encoding: 76 76 35
Width: 960
VWidth: 0
Flags: HW
LayerCount: 2
Fore
SplineSet
252 1273 m 1
 141 1273 l 1
 141 22 l 1
 750 22 l 2
 809.9921875 22 842.678710938 30.7578125 879.51953125 43.0546875 c 1
 851.947265625 141.237304688 l 1
 821.23828125 132.118164062 796.22265625 126 748.645507812 126 c 2
 252 126 l 1
 252 1273 l 1
EndSplineSet
EndChar
StartChar: M
Encoding: 77 77 36
Width: 960
VWidth: 31
Flags: W
LayerCount: 2
Fore
SplineSet
61.8837890625 20 m 1
 169.94140625 20 l 1
 169.94140625 999.610351562 l 1
 216.994140625 911.779296875 l 2
 232.720703125 882.423828125 232.936523438 877.625976562 248.325195312 848.147460938 c 2
 379.537942503 566.629882812 l 1
 453.750604244 564.420898438 l 1
 458.565606341 577.365234375 465.541672371 593.713867188 474.354521745 614.096679688 c 0
 513.676366648 705.043945312 582.692382812 838.041992188 631.790039062 931.591796875 c 2
 678.723632812 1021.01953125 l 1
 680.887695312 20 l 1
 787.922851562 20 l 1
 786.9609375 1266 l 1
 672.356445312 1266 l 1
 615.395507812 1116.19824219 504.968384132 906.21875 434.641442797 747.224609375 c 2
 415.795255161 704.616210938 l 1
 383.912503798 781.810546875 374.36639309 807.16796875 319.886447265 925.885742188 c 0
 256.4296875 1043.71679688 216.684570312 1126.53613281 170.74609375 1266.1171875 c 1
 59 1266.83789062 l 1
 61.8837890625 20 l 1
EndSplineSet
EndChar
StartChar: N
Encoding: 78 78 37
Width: 960
VWidth: 0
Flags: HW
LayerCount: 2
Fore
SplineSet
811.063476562 19.84375 m 1
 811.290039062 66.8720703125 812 114.46875 812 162 c 0
 812 390.3515625 808 644.303710938 808 872 c 0
 808 1022.92089844 809.702148438 1161.91210938 814.736328125 1272 c 1
 710.76171875 1272 l 1
 702.728515625 1108.45117188 700 934.151367188 700 757 c 0
 700 582.484375 702.166015625 411.40625 704.77734375 241.641601562 c 1
 655.375976562 346.35546875 l 2
 546.013302667 587.971679688 322.548840651 1079.58886719 195.522460938 1269.33105469 c 1
 75 1272.36328125 l 1
 75 22 l 1
 183.96875 22 l 1
 183 796.967773438 l 1
 183 1095.02441406 l 1
 229.71484375 1013.38964844 l 2
 411.022794343 664.775390625 538.363772793 370.220703125 693.014648438 19.1015625 c 1
 811.063476562 19.84375 l 1
EndSplineSet
EndChar
StartChar: O
Encoding: 79 79 38
Width: 960
VWidth: 0
Flags: W
LayerCount: 2
Fore
SplineSet
165.172851562 1171.23828125 m 0
 98.208984375 1080.359375 24 938.36328125 24 597 c 0
 24 421.390625 70.859375 275.311523438 156.357421875 170.814453125 c 0
 231.250976562 78.353515625 340.086944831 37 441.613879736 37 c 0
 577.413951289 37 693.741210938 114.067382812 764.8125 250.5234375 c 0
 810.727539062 339.484375 854 489.486328125 854 649 c 2
 854 659.896484375 l 1
 851.79296875 930.32421875 788.073242188 1091.15722656 710.705078125 1186.30761719 c 0
 614.372070312 1304.78320312 507.967455089 1325.94628906 452.280415015 1326 c 0
 323.321356835 1323.08105469 226.825195312 1255.31054688 165.172851562 1171.23828125 c 0
158.734375 372.506835938 m 0
 140.8359375 441.040039062 132 515.760742188 132 576 c 0
 132 840.834960938 181.376953125 989.03515625 255.115234375 1084.14648438 c 0
 286.47858581 1128.47949219 317.443530917 1159.60449219 355.17716525 1177.72558594 c 0
 385.262308388 1192.17285156 418.61990643 1198 457.297158155 1198 c 0
 503.883268001 1198 547.137361882 1183.33984375 585.059889867 1148.4921875 c 0
 616.30078125 1120.73828125 646.362304688 1081.25097656 673.245117188 1028.41308594 c 0
 729.55859375 918.973632812 746 763.270507812 746 646 c 2
 746 626.76171875 l 2
 745.422851562 565.000976562 736.055664062 486.305664062 720.74609375 416.287109375 c 0
 708.576171875 360.625976562 693.208007812 310.705078125 672.633789062 277.448242188 c 0
 624.908203125 189.794921875 552.182183808 115 441.613879736 115 c 0
 338.305218214 115 272.406008675 161.295898438 221.153320312 229.803710938 c 0
 192.87890625 266.661132812 173.038085938 317.739257812 158.734375 372.506835938 c 0
EndSplineSet
EndChar
StartChar: P
Encoding: 80 80 39
Width: 960
VWidth: 0
Flags: W
LayerCount: 2
Fore
SplineSet
709.23046875 1035.32910156 m 0
 726.231445312 998.357421875 734 953.767578125 734 900 c 0
 734 841.333007812 725.684570312 791.788085938 707.431640625 750.186523438 c 0
 684.499023438 697.920898438 645.755859375 659.763671875 594.971585567 634.54296875 c 0
 533.029601596 598.387695312 449.549163006 587 341 587 c 2
 340.506835938 587 l 2
 300.666992188 587 254.9375 587.51953125 212.891601562 588.6875 c 1
 213.041015625 622.336914062 214 807.63671875 214 1020 c 2
 214 1170.45117188 l 1
 240.514648438 1171.04003906 263.974609375 1171.77929688 290.846679688 1173.06835938 c 0
 319.928710938 1174.46386719 351.523877161 1176 383.304046858 1176 c 2
 383.562918601 1176 l 1
 383.820976282 1175.9921875 l 2
 475.669973095 1173.3046875 548.899741923 1165.02246094 605.309570312 1135.16796875 c 0
 651.828125 1114.33300781 687.828125 1081.87207031 709.23046875 1035.32910156 c 0
104 15.841796875 m 1
 212.008789062 15.158203125 l 1
 212.13671875 192.875976562 213 235.776367188 213 463 c 2
 213 488.943359375 l 1
 272.405273438 486.743164062 336.280273438 485 384.137646432 485 c 0
 494.071846504 485 572.760715667 493.986328125 639.231445312 523.47265625 c 0
 696.614257812 546.98828125 741.149414062 583.232421875 782.504882812 642.3125 c 0
 837.842773438 722.551757812 846 816.189453125 846 906 c 0
 846 992.604492188 826.360351562 1076.54296875 777.762695312 1135.04003906 c 0
 670.326171875 1263.96289062 552.836546162 1277 364.96485623 1277 c 0
 250.048828125 1277 211.15625 1270.21582031 104 1269.125 c 1
 104 15.841796875 l 1
EndSplineSet
EndChar
StartChar: Q
Encoding: 81 81 40
Width: 960
VWidth: 0
Flags: HW
LayerCount: 2
Fore
SplineSet
752.52734375 218.803710938 m 0
 820.456054688 334.001953125 842 505.112304688 842 654 c 0
 842 764.21484375 836.798828125 914.810546875 754.19140625 1061.77636719 c 0
 712.244140625 1136.64355469 660.813476562 1187.16015625 600.829437118 1217.97949219 c 0
 556.267844972 1242.6875 503.91896313 1255 441.949040579 1255 c 0
 396.284312702 1255 355.778017217 1248.36523438 318.302799295 1231.56542969 c 0
 267.91015625 1210.61035156 218.30859375 1173.625 168.771484375 1109.70507812 c 0
 79.91796875 995.598632812 50 809.275390625 50 604 c 0
 50 385.971679688 98.3125 209.737304688 191.01953125 113.321289062 c 0
 265.005859375 37.462890625 356.994860785 -3 452.376218937 -3 c 0
 484.553839651 -3 518.376829736 3.5361328125 552.749690556 14.1494140625 c 2
 575.043215118 21.0322265625 l 1
 579.667899529 -4.9677734375 l 2
 598.921012303 -113.194335938 701.08984375 -146 814 -146 c 0
 843.860351562 -146 859.249023438 -144.422851562 873 -141.834960938 c 1
 873 -44.7021484375 l 1
 856.233398438 -47.375 837.42578125 -49 814 -49 c 0
 810.174804688 -24 806.348632812 -24 802.5234375 -49 c 2
 802.048828125 -48.982421875 l 2
 765.413085938 -47.6083984375 735.703125 -44.080078125 710.782226562 -30.3427734375 c 0
 678.006835938 -12.2763671875 662.825195312 20.8125 656.280273438 64.25 c 2
 654.528320312 75.8720703125 l 1
 662.338867188 84.62890625 l 2
 690.25 115.922851562 708.44140625 145.85546875 741.454101562 200.497070312 c 0
 744.97265625 206.3203125 748.654296875 212.4140625 752.52734375 218.803710938 c 0
550.352491755 382.875 m 0
 524.577301112 397.950195312 491.565540072 405 453.245150467 405 c 0
 397.400176922 405 314.354421943 376.537109375 283.041992188 257.127929688 c 2
 268.317382812 205.592773438 l 1
 238.275390625 250.021484375 l 2
 202.963867188 302.2421875 184.638671875 374.7109375 173.77734375 448.002929688 c 0
 160.181640625 539.740234375 159 633.889648438 159 691 c 0
 159 790.201171875 169.91015625 876.215820312 191.958007812 947.66796875 c 0
 211.540039062 1011.12890625 240.047851562 1063.45214844 278.301757812 1102.32128906 c 0
 322.324153318 1151.12304688 376.718079093 1177 440.211177519 1177 c 0
 535.891230884 1177 612.647415064 1119.54296875 660.5546875 1035.66503906 c 0
 730.32421875 917.267578125 733 796.268554688 733 691 c 2
 733 664 l 2
 733 572.12890625 729.056640625 486.252929688 715.380859375 414.174804688 c 0
 704.46484375 356.64453125 687.479492188 307.102539062 658.638671875 270.536132812 c 2
 626.880411694 230.202148438 l 1
 616.348011159 280.084960938 l 2
 605.053598403 333.578125 582.124497946 364.29296875 550.352491755 382.875 c 0
553.198581942 144.096679688 m 2
 514.042354879 124.3125 475.311259355 119 442.817972109 119 c 0
 402.856455962 119 352.885255903 128.65234375 320.090727745 168.909179688 c 2
 314.216105694 176.12109375 l 1
 314.216105694 180.747070312 314.216105694 185.374023438 314.216105694 190 c 0
 314.216105694 270.286132812 373.226230221 329 441.080109049 329 c 0
 484.451163171 329 520.308165832 315.545898438 541.996662874 278.926757812 c 0
 558.704077806 250.716796875 564.982617249 213.850585938 566.196066553 167.76953125 c 2
 566.64071511 150.887695312 l 1
 553.198581942 144.096679688 l 2
EndSplineSet
EndChar
StartChar: R
Encoding: 82 82 41
Width: 960
VWidth: 0
Flags: HW
LayerCount: 2
Fore
SplineSet
772.670898438 687.427734375 m 0
 806.614257812 741.348632812 825.578125 814.508789062 825.578125 909 c 0
 825.578125 986.229492188 792.5546875 1068.69238281 748.176757812 1123.23925781 c 0
 634.364257812 1263.17382812 499.427129826 1278 276.578125 1278 c 0
 227.033203125 1278 136.853515625 1270.18945312 85 1265.37792969 c 1
 87.818359375 1214.79492188 88.578125 1171.13769531 88.578125 1113 c 2
 88.578125 25 l 1
 196.534179688 25 l 1
 195.526367188 596.651367188 l 1
 280.435546875 582.127929688 354.406177272 567.731445312 432.255860978 558.880859375 c 2
 443.029813372 557.65625 l 1
 445.543121029 552.739257812 448.057266734 547.822265625 450.57057439 542.905273438 c 0
 500.161260372 445.89453125 635.7109375 186.221679688 726.576171875 83.259765625 c 0
 755.1015625 50.9365234375 795.084960938 19.0888671875 838.920898438 6.7578125 c 1
 879.034179688 97.8623046875 l 1
 843.172851562 115.041992188 824.27734375 137.158203125 803.727539062 155.424804688 c 1
 744.404296875 224.282226562 631.481794932 406.615234375 565.673193055 526.559570312 c 2
 548.147921394 558.501953125 l 1
 580.253562047 564.666992188 l 2
 664.04296875 579.916992188 730.522460938 620.473632812 772.670898438 687.427734375 c 0
657.397460938 1064.45019531 m 0
 703.4375 1011.83398438 720.578125 954.849609375 720.578125 895 c 0
 720.578125 800.986328125 695.024414062 739.788085938 641.200195312 703.559570312 c 0
 604.223427198 675.439453125 558.274062246 664.31640625 504.061538409 656.194335938 c 0
 489.352109938 654.051757812 473.968890418 653 459.328181929 653 c 0
 405.629381865 653 354.789165468 665.484375 294.23828125 678.881835938 c 0
 263.129882812 685.340820312 229.032226562 692.049804688 195.67578125 698.114257812 c 1
 193.465820312 1173.14941406 l 1
 224.916992188 1174.23339844 252.704101562 1175 281.578125 1175 c 0
 480.727752121 1175 588.96172472 1152.64941406 657.397460938 1064.45019531 c 0
EndSplineSet
EndChar
StartChar: S
Encoding: 83 83 42
Width: 960
VWidth: 0
Flags: W
LayerCount: 2
Fore
SplineSet
430.743044895 1277 m 1
 423.127562976 1277 l 2
 308.476651172 1277 197.875 1236.640625 133.8984375 1164.5625 c 0
 95.0029296875 1120.74121094 71.5234375 1063.46386719 71.5234375 989 c 0
 71.5234375 853.90234375 147.958007812 771.487304688 231.985351562 731.709960938 c 0
 297.873945925 701.364257812 362.412627926 683.84765625 425.893229695 666.780273438 c 0
 482.43397084 651.578125 538.1356611 636.779296875 587.786244434 611.969726562 c 0
 623.557617188 595.547851562 658.192382812 571.482421875 684.9140625 538.923828125 c 0
 718.393554688 498.129882812 738.5234375 444.711914062 738.5234375 380 c 0
 738.5234375 295.842773438 713.099609375 221.918945312 648.98828125 174.116210938 c 0
 598.863232459 136.279296875 537.322725254 117 455.90783205 117 c 0
 366.953274778 117 299.915973378 139.844726562 246.872070312 183.012695312 c 0
 184.114257812 232.430664062 155.821289062 305.3203125 151.208007812 388 c 1
 43 388 l 1
 46.322265625 302.166015625 67.244140625 224.461914062 112.801757812 163.095703125 c 0
 174.762695312 79.6357421875 285.642578125 20.9375 451.01336856 16 c 1
 467.122134628 16 l 2
 555.773420496 16 639.57421875 40.474609375 708.497070312 88.5166015625 c 0
 794.10546875 148.189453125 848.5234375 245.33984375 848.5234375 388 c 0
 848.5234375 551.296875 753.376953125 660.883789062 652.947265625 709.341796875 c 0
 587.739911303 740.01953125 514.158686944 758.629882812 446.334564735 775.541015625 c 0
 388.240400066 790.025390625 334.541985912 802.920898438 295.676913088 824.423828125 c 0
 270.436523438 837.125 244.51953125 852.79296875 223.579101562 875.459960938 c 0
 197.146484375 904.0703125 180.5234375 942.977539062 180.5234375 994 c 0
 180.5234375 1033.93261719 193.75390625 1070.56445312 222.763671875 1099.59277344 c 0
 274.284179688 1151.14550781 336.436589766 1173 427.440756275 1173 c 0
 487.801874688 1173 537.797008033 1166.42773438 579.170809303 1145.61816406 c 0
 630.375 1121.77246094 668.802734375 1079.04980469 692.364257812 1015.48730469 c 1
 804.643554688 1035.96582031 l 1
 781.224609375 1129.61523438 727.61328125 1189.52441406 651.446289062 1227.22949219 c 0
 587.401258235 1260.14453125 514.109826551 1275.68261719 430.743044895 1277 c 1
EndSplineSet
EndChar
StartChar: U
Encoding: 85 85 44
Width: 960
VWidth: 0
Flags: HW
LayerCount: 2
Fore
SplineSet
827 702 m 2
 827 760 l 2
 827 885.834960938 825 1009.28515625 825 1143 c 0
 825 1188.88476562 825.006835938 1228.38085938 830.733398438 1277.25390625 c 1
 723.166015625 1286.16113281 l 1
 716.126953125 1237.72851562 714 1202.20117188 714 1141 c 0
 714 985.625976562 719 846.7734375 719 702 c 0
 719 591.995117188 715.686523438 478.842773438 700.78515625 385.54296875 c 0
 694.15625 344.040039062 685.256835938 306.3828125 672.823242188 274.215820312 c 0
 662.8203125 248.336914062 650.508789062 225.873046875 634.26953125 207.9375 c 0
 608.786132812 181.509765625 582.784084476 160.685546875 556.046368787 145.916992188 c 0
 522.618429625 127.453125 483.615304234 118.868164062 432.076908606 116 c 1
 431.569471463 116 l 2
 355.309036235 116 291.633789062 146.14453125 243.983398438 213.962890625 c 0
 206.408203125 267.44140625 185.298828125 341.09375 177.091796875 436.840820312 c 0
 171.953125 498.506835938 170 604.630859375 170 728 c 0
 170 903.936523438 173.607421875 1114.79199219 177.397460938 1277 c 1
 69.1015625 1277 l 1
 63.705078125 1124.14453125 61 942.0625 61 779 c 0
 61 644.309570312 63.0263671875 522.447265625 67.9443359375 448.684570312 c 0
 75.8212890625 321.333007812 99.49609375 221.064453125 146.622070312 150.538085938 c 0
 204.637695312 63.7138671875 300.670898438 12.24609375 442.171844916 15 c 0
 548.925692925 17.091796875 641.377929688 47.630859375 717.069335938 135.322265625 c 0
 822.129882812 256.330078125 827 473.090820312 827 702 c 2
EndSplineSet
EndChar
StartChar: V
Encoding: 86 86 45
Width: 960
VWidth: 0
Flags: HW
LayerCount: 2
Fore
SplineSet
112.470703125 1332.50683594 m 1
 8 1296.08007812 l 1
 64.19140625 1156.1484375 168.084960938 852.004882812 255.637358092 571.421875 c 0
 316.702545885 350.063476562 368.633006921 145.658203125 383.850664527 45.1337890625 c 1
 487.288897803 45.8623046875 l 1
 500.640182059 149.478515625 553.417742439 350.12109375 616.166798437 567.147460938 c 0
 705.108398438 842.279296875 813.297851562 1140.01953125 871.583007812 1282.17480469 c 1
 768.046875 1318.51464844 l 1
 666.587890625 1067.85839844 520.528938277 646.369140625 457.763525686 344.251953125 c 2
 437.616507474 247.274414062 l 1
 415.01341769 343.55859375 l 2
 331.410566487 699.685546875 211.970703125 1081.0234375 112.470703125 1332.50683594 c 1
EndSplineSet
EndChar
StartChar: W
Encoding: 87 87 46
Width: 960
VWidth: 0
Flags: W
LayerCount: 2
Back
SplineSet
521 613 m 5
 568 388 702 22 710 0 c 5
 841 0 l 5
 884 170 990 1035 1036 1286 c 5
 882 1318 l 5
 761.5 675.2 796 608 752 298 c 5
 682 528 613 886 607 957 c 1029
EndSplineSet
Fore
SplineSet
111.212890625 1288.32226562 m 1
 6 1266.45996094 l 1
 51.111328125 1005.44140625 147.795898438 227.615234375 191.975585938 25 c 1
 282.005685682 25 l 1
 306.924491228 102.221679688 407.469816348 418.670898438 444.704462046 618.129882812 c 2
 468.579493157 746.025390625 l 1
 488.584878914 617.306640625 l 2
 513.275031532 458.447265625 617.374949689 106.250976562 641.70292305 25 c 1
 735.158203125 25 l 1
 749.21875 107.874023438 773.25390625 281.5078125 800.140625 476.0078125 c 0
 840.171875 765.6015625 886.5703125 1101.75097656 917.73828125 1263.44238281 c 1
 809.141601562 1285.43652344 l 1
 725.09375 824.276367188 716.099609375 664.567382812 707.580078125 515.5546875 c 0
 703.783203125 449.155273438 700.083984375 384.471679688 689.966796875 297.098632812 c 2
 676.446289062 180.331054688 l 1
 644.538393902 292.521484375 l 2
 593.713735247 473.923828125 555.826294166 730.561523438 521.295338434 938.681640625 c 1
 489.643489607 933.044921875 443.801195708 932.20703125 409.623692021 932.03515625 c 1
 396.59483873 824.184570312 339.838294764 505.154296875 281.515216425 290.719726562 c 2
 252.17520579 182.84765625 l 1
 236.3828125 294.461914062 l 2
 220.860351562 403.828125 214.948242188 483.48828125 208.708984375 567.599609375 c 0
 197.376953125 720.3671875 184.942382812 889.153320312 111.212890625 1288.32226562 c 1
EndSplineSet
EndChar
StartChar: X
Encoding: 88 88 47
Width: 960
VWidth: 0
Flags: W
LayerCount: 2
Fore
SplineSet
472.264447265 656.749023438 m 1
 807.413085938 1269.74609375 l 1
 715.844726562 1330.05566406 l 1
 416.940329183 775.061523438 l 1
 398.068099221 811.182617188 l 2
 310.720237815 978.358398438 226.419921875 1180.83007812 107.71484375 1322.08203125 c 1
 23 1256.62402344 l 1
 115.537109375 1142.92089844 188.603515625 1001.5234375 262.616210938 858.895507812 c 0
 294.591634223 790.004882812 326.181680087 721.052734375 359.20573936 654.228515625 c 1
 25.125 39.4267578125 l 1
 115.104492188 -20.748046875 l 1
 418.8293415 552.501953125 l 1
 435.055931748 521.750976562 452.235122704 489.173828125 468.091067774 459.041015625 c 0
 578.333724389 249.528320312 659.373046875 107.5390625 786.546875 -25.0458984375 c 1
 856.69921875 54.09765625 l 1
 748.036132812 168.23828125 664.787109375 306.34375 560.152513367 491.567382812 c 0
 533.298205195 542.443359375 503.012659944 599.615234375 472.264447265 656.749023438 c 1
EndSplineSet
EndChar
StartChar: bracketleft
Encoding: 91 91 96
Width: 1060
VWidth: 66
Flags: W
LayerCount: 2
Fore
SplineSet
379.013494165 -238.908732107 m 1
 464.494780785 -238.360222449 670.445112992 -234 752 -234 c 0
 802.091003452 -234 837.655240906 -236.980750417 863 -239.802254806 c 1
 863 -127.995518924 l 1
 836.533281105 -125.37240696 788.997931672 -122 745 -122 c 2
 732 -122 l 2
 713.4584173 -122 608.348875673 -123.001514523 512.793637008 -125.987615731 c 2
 487 -126.793666888 l 1
 487 1340.40849659 l 1
 605.141995267 1343.23824498 749.477972663 1344.5313395 845.76060688 1351.6245233 c 1
 824.021149667 1456.24566114 l 1
 809.059978685 1455.13879491 787.558201598 1453.95953697 740.529314222 1452 c 1
 740 1452 l 2
 719.017261136 1452 662.152575903 1450.73738223 597.156972854 1449.28319988 c 0
 521.354634064 1447.58723248 434.214671797 1445.63232143 377 1445.12522388 c 1
 377 1049 l 2
 377 897.725798503 379 726.985234155 379 567 c 0
 379.692544359 443.034559733 381 275.226754351 381 177 c 0
 381 7.91969823576 379.191314601 -74.9537949926 379.013494165 -238.908732107 c 1
EndSplineSet
Validated: 1
EndChar
StartChar: backslash
Encoding: 92 92 115
Width: 1060
VWidth: 60
Flags: W
LayerCount: 2
Fore
SplineSet
152.444747119 1365.85907917 m 1
 296.293866054 1002.30138094 605.276530726 281.396286015 771.323577825 -108.464052405 c 1
 872.127051891 -66.9166745801 l 1
 860.823108271 -43.0273443643 844.238414221 -7.2682073281 832.838058808 22.5630186676 c 0
 736.851155251 242.96814834 372.706729296 1095.95683871 253.628601431 1405.51221127 c 1
 152.444747119 1365.85907917 l 1
EndSplineSet
Validated: 1
EndChar
StartChar: bracketright
Encoding: 93 93 97
Width: 1060
VWidth: 66
Flags: W
LayerCount: 2
Fore
SplineSet
664.000397478 567.14232741 m 0
 664.000397478 727.340844627 666 897.489096517 666 1049 c 2
 666 1445.12522388 l 1
 608.785328203 1445.63232143 521.645365936 1447.58723248 445.843027146 1449.28319988 c 0
 380.847424097 1450.73738223 323.982738864 1452 303 1452 c 2
 302.470685778 1452 l 1
 255.447755224 1453.95928877 233.933202933 1455.13929935 218.978850333 1456.24566114 c 1
 197.23939312 1351.6245233 l 1
 293.301914015 1344.54755534 438.300916209 1343.22763632 556 1340.40849659 c 1
 556 -126.793666888 l 1
 530.206362992 -125.987615731 l 2
 434.651124327 -123.001514523 329.5415827 -122 311 -122 c 2
 298 -122 l 2
 254.002068328 -122 206.466718895 -125.37240696 180 -127.995518924 c 1
 180 -239.802254806 l 1
 205.344759094 -236.980750417 240.908996548 -234 291 -234 c 0
 372.010174796 -234 579.030325176 -238.363591908 663.986505835 -238.908732107 c 1
 663.808709193 -74.9757332866 662 7.93837304085 662 177 c 0
 662 275.03872086 663.309564945 443.483303988 664.000397478 567.14232741 c 0
EndSplineSet
Validated: 1
EndChar
StartChar: asciicircum
Encoding: 94 94 116
Width: 1060
VWidth: -10
Flags: W
LayerCount: 2
Fore
SplineSet
943.785818549 590.723473641 m 1
 520.050611041 1063.49354141 l 1
 86.7899211483 577.463921334 l 1
 166.359653731 502.04565306 l 1
 522.497393995 865.20582764 l 1
 858.451250677 503.255541572 l 1
 943.785818549 590.723473641 l 1
EndSplineSet
Validated: 1
EndChar
StartChar: underscore
Encoding: 95 95 117
Width: 1060
VWidth: 41
Flags: W
LayerCount: 2
Fore
SplineSet
67 -309 m 1
 967 -309 l 1
 967 -203 l 1
 67 -203 l 1
 67 -309 l 1
EndSplineSet
Validated: 1
EndChar
StartChar: grave
Encoding: 96 96 118
Width: 1060
VWidth: -25
Flags: W
LayerCount: 2
Fore
SplineSet
790.797737017 1071.29290102 m 1
 774.624336107 1080.12507633 756.530570313 1091.65083526 736.56544134 1105.33008979 c 0
 696.43957436 1132.82262182 649.429321898 1169.05960011 601.560672341 1208.89452683 c 0
 505.83234643 1288.55691305 407.315176197 1381.31547936 355.134875244 1449.12496047 c 1
 249.194589178 1346.67822718 l 1
 404.542007946 1180.43231123 540.397908998 1073.5882106 718.618042716 960.438298617 c 1
 790.797737017 1071.29290102 l 1
EndSplineSet
Validated: 1
EndChar
StartChar: b
Encoding: 98 98 1
Width: 960
VWidth: -2
Flags: HW
LayerCount: 2
Fore
SplineSet
630.737304688 769.15625 m 0
 673.252929688 701.766601562 695.59375 606.568359375 695.59375 478 c 0
 695.59375 385.4453125 684.893554688 306.486328125 655.255859375 245.1640625 c 0
 619.385742188 170.943359375 554.228249202 122 466.341771766 122 c 0
 414.879365472 122 375.788432677 131.485351562 342.955131471 154.444335938 c 0
 293.418945312 183.170898438 259.111328125 229.978515625 219.356445312 293.809570312 c 2
 215.59375 299.852539062 l 1
 215.59375 754.491210938 l 1
 222.591796875 761.354492188 229.140625 767.803710938 236.260742188 774.889648438 c 0
 284.797851562 823.202148438 347.672386311 890 425.667563643 890 c 0
 504.312575002 890 576.94140625 854.427734375 630.737304688 769.15625 c 0
609.069335938 75.015625 m 0
 744.485351562 137.256835938 802.59375 287.467773438 802.59375 484 c 0
 802.59375 630.741210938 778.416992188 753.809570312 726.30078125 843.701171875 c 0
 690.150390625 906.053710938 640.907226562 952.853515625 575.099609375 982.795898438 c 0
 528.799719362 1006.78613281 476.799491996 1020 414.278785368 1020 c 0
 342.012951571 1020 305.811523438 991.66796875 255.572265625 953.98828125 c 2
 215.59375 924.00390625 l 1
 215.59375 1177 l 2
 215.59375 1257.62207031 211.590820312 1342.48535156 204.423828125 1410.70410156 c 1
 95.099609375 1404.51660156 l 1
 101.36328125 1341.21679688 107.59375 1265.62207031 107.59375 1182 c 2
 108.59375 292.028320312 l 1
 108.59375 268 l 2
 108.59375 193.627929688 101.57421875 116.857421875 93 53.896484375 c 1
 208.760742188 40.56640625 l 1
 212.219726562 61.603515625 214.892578125 79.86328125 215.600585938 109.60546875 c 2
 216.883789062 163.517578125 l 1
 257.19140625 127.689453125 l 2
 315.885742188 75.5166015625 379.723185662 43 466.341771766 43 c 0
 519.137211678 43 564.48046875 54.5224609375 609.069335938 75.015625 c 0
EndSplineSet
EndChar
StartChar: c
Encoding: 99 99 2
Width: 960
VWidth: 4
Flags: W
LayerCount: 2
Fore
SplineSet
330.0730481 163.592773438 m 0
 246.579101562 211.786132812 180 316.55078125 180 527 c 0
 180 636.122070312 200.443359375 720.649414062 247.084960938 781.493164062 c 0
 305.950195312 858.282226562 389.352145076 890 497.526155494 890 c 0
 578.484512832 890 629.4453125 857.844726562 662.009765625 818.513671875 c 0
 677.984375 799.220703125 687.668945312 779.067382812 693.926757812 762.040039062 c 1
 798.53125 802.794921875 l 1
 778.056640625 846.55859375 750.11328125 891.701171875 702.76171875 928.185546875 c 0
 647.57421875 970.495117188 584.551563569 993 506.939276638 993 c 0
 389.412314174 993 294.362304688 968.665039062 218.401367188 913.79296875 c 0
 124.353515625 845.85546875 71 726.818359375 71 527 c 0
 71 330.762695312 110.239257812 186.927734375 231.149414062 92.8837890625 c 0
 319.103051539 26.7236328125 486.675661448 23.759765625 506.939276638 18 c 1
 598.756484841 18 673.345703125 44.873046875 729.6875 79.056640625 c 0
 797.599609375 120.259765625 835.904296875 172.484375 859.112304688 205.361328125 c 1
 774.83984375 266.224609375 l 1
 746.645507812 224.784179688 710.884765625 187.993164062 661.536132812 162.514648438 c 0
 614.98828125 138.482421875 565.509715346 125 503.516323495 125 c 2
 492.391725779 125 l 2
 450.219873382 125 387.57799236 125.8203125 330.0730481 163.592773438 c 0
EndSplineSet
EndChar
StartChar: d
Encoding: 100 100 3
Width: 960
VWidth: -2
Flags: HW
LayerCount: 2
Back
SplineSet
749 478 m 4xd8
 749 761 637 865 474 865 c 4
 383 865 321 795 269 744 c 5
 269 307 l 5
 340 193 387 147 524 147 c 4
 694 147 749 274 749 478 c 4xd8
906 459 m 4
 906 191 799 -7 524 -7 c 4
 412 -7 332 28 269 84 c 5xd8
 268 42 263 20 258 -12 c 5
 93 7 l 5xe8
 103 73 112 160 112 243 c 4
 112 251 112 259 112 267 c 4
 112 516 111 877 111 1157 c 4
 111 1251 103 1335 96 1403 c 5
 255 1412 l 5
 264 1339 269 1243 269 1152 c 6
 269 949 l 5
 317 985 360 1020 460 1020 c 4
 783 1020 906 795 906 459 c 4
EndSplineSet
Fore
SplineSet
220.434570312 245.307617188 m 0
 191.278320312 306.630859375 181 385.517578125 181 478 c 0
 181 605.327148438 193.307617188 699.484375 224.231445312 767.4296875 c 0
 260.271484375 846.615234375 318.018005371 893 415.916666667 893 c 0
 457.446065267 893 499.685831706 877.001953125 538.267903646 855.453125 c 0
 586.602661133 828.45703125 629.586914062 792.235351562 657.34375 761.846679688 c 2
 664.0625 754.491210938 l 1
 663.971486762 299.852539062 l 1
 660.591080862 293.809570312 l 2
 624.852103488 229.918945312 593.718863369 183.1015625 548.139519157 154.412109375 c 0
 511.715514018 131.485351562 468.409655041 122 411.586558045 122 c 0
 314.733631142 122 255.798828125 170.924804688 220.434570312 245.307617188 c 0
651.985371908 1404.34375 m 1
 657.594828288 1340.86621094 663.166666667 1264.56640625 663.166666667 1181 c 2
 663.166666667 928.094726562 l 1
 628.643839518 952.983398438 l 2
 588.024271647 982.267578125 511.629109701 1023 428.458333333 1023 c 0
 359.622639974 1023 305.227884928 1009.59960938 261.4609375 985.7109375 c 0
 201.682617188 955.94921875 160.083007812 909.596679688 130.701171875 846.880859375 c 0
 88.314453125 756.40625 73 631.790039062 73 484 c 0
 73 287.54296875 130.505859375 137.26171875 264.909921557 75.0078125 c 0
 304.866950818 54.5224609375 353.294291386 43 411.586558045 43 c 0
 507.24485266 43 573.967960397 75.5908203125 626.609844386 127.689453125 c 2
 662.811939123 163.517578125 l 1
 663.965346948 109.60546875 l 2
 664.601256205 79.87109375 667.000169059 61.61328125 670.106037583 40.58203125 c 1
 781.587890625 53.8779296875 l 1
 773.203125 116.081054688 767 191.921875 767 266 c 2
 767 292 l 1
 768 1177.02832031 l 2
 768 1257.703125 763.995117188 1341.77832031 756.818359375 1409.859375 c 1
 651.985371908 1404.34375 l 1
EndSplineSet
EndChar
StartChar: e
Encoding: 101 101 4
Width: 960
VWidth: 32
Flags: W
LayerCount: 2
Fore
SplineSet
186.000976562 580.165039062 m 2
 187.145507812 756.499023438 308.958007812 894 458.434822723 894 c 0
 527.568433901 894 590.284179688 859.044921875 640.596679688 797.778320312 c 0
 680.73828125 748.8984375 706.35546875 684.173828125 713.876953125 608.498046875 c 2
 716.319335938 583.91796875 l 1
 691.825195312 581.158203125 l 2
 542.622410893 563.577148438 327.536349183 555.908203125 185.8359375 554.803710938 c 1
 186.000976562 580.165039062 l 2
625.874023438 949.829101562 m 0
 576.553402922 978.201171875 524.396299282 996 457.599578226 996 c 0
 332.692189482 996 227.608398438 932.818359375 160.474609375 830.587890625 c 0
 106.498046875 748.393554688 78 639.315429688 78 516 c 0
 78 380.26953125 106.309570312 265.74609375 161.03125 181.430664062 c 0
 228.974609375 76.7421875 336.041324155 15 468.457756689 15 c 0
 647.977539062 15 754.446289062 111.99609375 804.393554688 165.15625 c 1
 720.237304688 239.733398438 l 1
 672.78515625 184.206054688 585.989257812 118 471.798734678 118 c 0
 372.040035716 118 295.951171875 161.408203125 244.659179688 230.762695312 c 0
 203.926757812 285.83984375 186 354.895507812 186 427 c 2
 186 451.720703125 l 1
 367.316499697 453.854492188 545.454411766 464.372070312 822.90625 483.430664062 c 1
 822.971679688 489.1640625 823 495.787109375 823 503 c 0
 823 560.735351562 816.05078125 662.911132812 779.477539062 758.323242188 c 0
 750.173828125 834.768554688 702.6484375 905.78515625 625.874023438 949.829101562 c 0
EndSplineSet
EndChar
StartChar: f
Encoding: 102 102 5
Width: 960
VWidth: -2
Flags: HW
LayerCount: 2
Fore
SplineSet
288.702148438 1285.00390625 m 0
 260.8046875 1224.63183594 255 1151.18164062 255 1089 c 0
 255 1071.1640625 256 1062.4140625 256 1045 c 2
 256 1020 l 1
 112 1020 l 1
 112 917 l 1
 254.662109375 917 l 1
 256.6015625 774.470703125 257.779296875 193.1953125 257.971679688 50 c 1
 363.889009267 50 l 1
 361.318506415 917 l 1
 644.148291049 917 l 2
 678.541992188 917 702.440429688 914.225585938 720.723632812 910.295898438 c 1
 739.984375 1007.26464844 l 1
 716.709960938 1013.12109375 685.002929688 1017.7578125 614.660305698 1020.00097656 c 1
 361.392977364 1021.09179688 l 1
 361.392977364 1042.39453125 361.392977364 1063.69726562 361.392977364 1085 c 0
 361.392977364 1133.45996094 362.396243288 1182.47460938 377.256126147 1224.80957031 c 0
 387.646078591 1254.41015625 405.708212236 1280.6328125 433.642348695 1296.80957031 c 0
 455.78281271 1309.63183594 483.041690119 1316 516.479982749 1316 c 0
 614.538139873 1316 680.418945312 1310.63574219 735.215820312 1285.23046875 c 0
 771.76953125 1268.28320312 797.873046875 1242.27246094 819.112304688 1207.86621094 c 1
 902.765625 1258.98828125 l 1
 860.20703125 1332.63867188 803.870117188 1371.54101562 728.54296875 1393.49023438 c 0
 662.630859375 1412.69628906 592.305633112 1418 509.625308477 1418 c 0
 397.536489954 1418 327.506835938 1368.98046875 288.702148438 1285.00390625 c 0
EndSplineSet
EndChar
StartChar: g
Encoding: 103 103 6
Width: 960
VWidth: 14
Flags: HW
LayerCount: 2
Back
SplineSet
444 -222 m 0xf9
 473 -222 500 -222 525 -222 c 0
 724 -222 811 -155 811 -75 c 0
 811 8 733 22 554 22 c 0
 500 22 394 20 321 19 c 1
 272 0 237 -43 237 -109 c 0
 237 -207 305 -222 444 -222 c 0xf9
725 720 m 0xf6
 725 812 648 873 497 873 c 0
 329 873 253 780 253 682 c 0
 253 583 354 521 483 521 c 0
 689 521 725 607 725 720 c 0xf6
854 841 m 1
 872 800 881 783 881 725 c 0xf6
 881 509 780 373 479 373 c 2
 476 373 l 2
 401 373 343 385 281 408 c 1
 262 386 239 347 239 303 c 0
 239 195 273 173 419 173 c 0
 462 173 557 175 621 175 c 0
 784 175 968 127 968 -74 c 0
 968 -261 806 -369 440 -369 c 0
 236 -369 80 -321 80 -114 c 0xf9
 80 -13 114 41 167 88 c 1
 120 123 82 177 82 298 c 0
 82 399 119 455 156 496 c 1
 119 543 95 601 95 669 c 0
 95 672 95 675 95 678 c 0
 95 913 243 1025 497 1025 c 0
 597 1025 691 1012 767 965 c 1
 816 1011 848 1026 964 1026 c 1
 964 863 l 1
 952 865 941 866 931 866 c 0
 897 866 869 856 854 841 c 1
EndSplineSet
Fore
SplineSet
202.509765625 -187.72265625 m 0
 191.875976562 -163.27734375 187 -134.55859375 187 -101 c 0
 187 -31.6337890625 217.990234375 40.2177734375 282.527813317 67.2783203125 c 0
 284.695931784 68.4033203125 287.052155923 69.3212890625 290.542363077 68.998046875 c 0
 423.894129736 70.9990234375 476.077852787 71 484.393728223 71 c 0
 562.643905161 71 649.180538164 65.8662109375 702.270021233 34.720703125 c 0
 730.827315168 17.966796875 753.696864111 -10.2138671875 753.696864111 -50 c 0
 753.696864111 -94.486328125 745.237457807 -132.118164062 730.030317672 -163.16015625 c 0
 710.978154943 -202.048828125 681.827124619 -229.435546875 649.231353441 -247.62109375 c 0
 602.322612696 -273.791992188 548.001082045 -282 499 -282 c 2
 403.146341463 -282 l 2
 348.239097888 -282 301.540750218 -276.4765625 264.401915015 -255.708984375 c 0
 238.41926176 -241.180664062 215.896484375 -218.495117188 202.509765625 -187.72265625 c 0
591.437839314 577.047851562 m 0
 549.530157574 546.299804688 492.832813328 532 430.025423729 532 c 0
 336.377060712 532 258.965108581 555.315429688 222.125 625.243164062 c 0
 209.37890625 648.982421875 203 677.024414062 203 709 c 0
 203 746.112304688 217.008789062 780.331054688 240.499023438 808.62109375 c 0
 283.718737586 865.05859375 358.259893902 899 444.330508475 899 c 0
 496.69110004 899 543.428843353 891.400390625 580.864439883 868.321289062 c 0
 606.965282376 852.231445312 628.081522279 828.154296875 640.954701569 796.081054688 c 0
 651.208541611 770.533203125 656.224576271 740.581054688 656.224576271 706 c 0
 656.224576271 644.108398438 626.667952198 602.896484375 591.437839314 577.047851562 c 0
805.471679688 93.87890625 m 0
 747.587441474 151.0234375 651.338850174 175 545.557491289 175 c 0
 521.667179334 175 404.836618031 173 380.324041812 173 c 0
 327.056259527 173 285.229046439 181.3046875 253.562214177 200.22265625 c 0
 215.646484375 221.763671875 189 258.62109375 189 316 c 0
 189 366.869140625 217.654296875 406.68359375 237.980645688 430.327148438 c 2
 248.48068652 443.645507812 l 1
 263.439099249 437.342773438 l 2
 319.426836074 413.754882812 373.586114438 407 436.923344948 407 c 0
 524.810594512 407 598.979502395 428.8046875 653.403555096 467.169921875 c 0
 717.20703125 514.836914062 760 588.103515625 760 685 c 0
 760 731.69140625 756.40234375 767.81640625 733.108398438 809.924804688 c 2
 724.014648438 826.36328125 l 1
 737.326171875 839.673828125 l 2
 750.080078125 852.428710938 766.290039062 858.482421875 782.447265625 862.450195312 c 0
 802.903320312 867.474609375 825.203125 869 846 869 c 0
 851.504882812 869 858.158203125 868.502929688 865 867.766601562 c 1
 865 977.782226562 l 1
 817.955078125 976.900390625 784.044921875 973.217773438 756.81640625 964.451171875 c 0
 731.40625 956.26953125 710.82421875 943.870117188 688.002929688 922.678710938 c 2
 674.177527476 909.750976562 l 1
 659.732744637 919.692382812 l 2
 605.594494836 956.956054688 544.584845074 976 444.330508475 976 c 0
 349.669334282 976 273.099936275 953.471679688 213.952148438 912.888671875 c 0
 137.68359375 862.5859375 95 783.641601562 95 674 c 0
 95 608.2421875 120.08203125 551.6875 149.634765625 518.659179688 c 2
 164.375 502.184570312 l 1
 149.819335938 485.549804688 l 2
 110.700195312 440.841796875 82 387.608398438 82 303 c 0
 82 230.66015625 107.938476562 168.1484375 156.80859375 132.138671875 c 2
 181.90234375 113.6484375 l 1
 158.42578125 93.1591796875 l 2
 109.549804688 50.50390625 80 -12.4658203125 80 -107 c 0
 80 -216.094726562 121.950195312 -288.412109375 191.540039062 -333.158203125 c 0
 246.863512631 -369.334960938 316.922623584 -388 399.494773519 -388 c 2
 493.522648084 -388 l 2
 589.709726154 -388 671.707752613 -367.624023438 732.05044779 -325.393554688 c 0
 811.028320312 -273.169921875 861 -186.349609375 861 -49 c 0
 861 15.4873046875 839.924804688 60.6015625 805.471679688 93.87890625 c 0
EndSplineSet
EndChar
StartChar: h
Encoding: 104 104 8
Width: 960
VWidth: -2
Flags: W
LayerCount: 2
Fore
SplineSet
867.587890625 119.055664062 m 1
 826.357421875 148.575195312 792.336914062 183.19921875 792.336914062 248 c 0
 792.336914062 380.659179688 793.336914062 451.228515625 793.336914062 601 c 2
 793.336914062 667 l 2
 793.336914062 776.856445312 788.150390625 844.880859375 722.138671875 923.9921875 c 0
 650.419921875 1009.94335938 563.031385203 1020 460.63709751 1020 c 0
 363.838049319 1020 292.233398438 966.916015625 217.336914062 919.673828125 c 1
 217.336914062 1402 l 1
 108.358398438 1402 l 1
 109.336914062 229.021484375 l 2
 109.336914062 161.198242188 106.967773438 115.436523438 101 56.6318359375 c 1
 208.801757812 51.173828125 l 1
 212.828125 95.8740234375 216.336914062 157.474609375 216.336914062 223 c 2
 216.336914062 761.90625 l 1
 218.961914062 767.15625 l 2
 235.352539062 799.9375 265.727539062 832.096679688 303.67578125 858.709960938 c 0
 350.385840803 891.9296875 401.485888114 917 454.713795671 917 c 0
 550.338595548 917 613.119149485 896.881835938 650.45703125 828.04296875 c 0
 680.266601562 775.319335938 686.336914062 702.583984375 686.336914062 601 c 2
 686.336914062 233 l 2
 686.336914062 181.009765625 699.432617188 144.80859375 719.666015625 116.104492188 c 0
 741.3359375 85.36328125 772.73046875 62.16796875 808.673828125 40.7265625 c 1
 867.587890625 119.055664062 l 1
EndSplineSet
EndChar
StartChar: i
Encoding: 105 105 9
Width: 960
VWidth: 0
Flags: HW
LayerCount: 2
Fore
SplineSet
473 1231 m 1
 473 1406 l 1
 288 1406 l 1
 288 1231 l 1
 473 1231 l 1
EndSplineSet
Refer: 177 305 N 1 0 0 1 0 0 2
EndChar
StartChar: j
Encoding: 106 106 10
Width: 1010
VWidth: 0
Flags: W
LayerCount: 2
Fore
SplineSet
744 1226.32226562 m 1
 744 1401.31835938 l 1
 560 1403.67773438 l 1
 560 1228.68164062 l 1
 744 1226.32226562 l 1
EndSplineSet
Refer: 332 567 N 1 0 0 1 0 0 2
EndChar
StartChar: k
Encoding: 107 107 11
Width: 960
VWidth: -2
Flags: HW
LayerCount: 2
Fore
SplineSet
686.075195312 745 m 0
 686.075195312 648.595703125 624.419921875 541 521.369458132 541 c 0
 494.945298638 541 462.088000489 548.09765625 430.676196968 556.629882812 c 0
 391.040362174 567.395507812 336.319335938 581.208984375 258.227539062 593.294921875 c 2
 237.075195312 596.568359375 l 1
 237.075195312 721.27734375 l 1
 248.103515625 728.729492188 l 2
 323.193359375 779.465820312 395.634074537 825.075195312 478.393697586 872.509765625 c 0
 508.018652964 889.850585938 534.373247523 897 557.815012673 897 c 0
 625.559570312 897 665.637695312 842.639648438 677.905273438 802.581054688 c 0
 683.970703125 784.23046875 686.075195312 764.747070312 686.075195312 745 c 0
130.075195312 50 m 1
 236.936523438 50 l 1
 236.616210938 84.4951171875 236.075195312 116.03125 236.075195312 154 c 0
 236.075195312 335.9296875 237.985351562 485.609375 238.368164062 521.950195312 c 1
 265.905273438 518.840820312 l 2
 337.967773438 510.705078125 426.232938998 484.5703125 498.907264329 436.311523438 c 0
 556.733520609 397.913085938 610.47265625 344.350585938 635.716796875 271.143554688 c 0
 636.977539062 267.453125 638.270507812 263.637695312 639.55859375 259.833984375 c 0
 664.811523438 185.282226562 697.102539062 92.0966796875 790.258789062 37.9501953125 c 1
 845.739257812 109.283203125 l 1
 820.623046875 128.998046875 797.021484375 151.293945312 776.643554688 185.12890625 c 0
 755.524414062 220.194335938 743.158203125 258.091796875 731.043945312 294.556640625 c 0
 709.49609375 359.416992188 689.349609375 417.829101562 634.162109375 458.938476562 c 2
 600.85546875 483.749023438 l 1
 638.357421875 501.588867188 l 2
 680.033203125 521.415039062 712.995117188 551.05078125 737.211914062 580.86328125 c 0
 767.686523438 618.380859375 783.126953125 656.272460938 785.525390625 668.741210938 c 0
 790.126953125 692.672851562 793.075195312 725.556640625 793.075195312 757 c 0
 793.075195312 784.893554688 791.1015625 814.15234375 788.265625 835.896484375 c 2
 788.247070312 836.052734375 l 2
 776.217773438 938.303710938 667.611328125 1016 550.360240153 1016 c 0
 516.244302025 1016 472.034168338 1000.18164062 428.811694943 977.481445312 c 0
 374.849528108 949.141601562 315.044921875 910.811523438 276.116210938 884.317382812 c 2
 237.075195312 857.748046875 l 1
 237.075195312 1318 l 2
 237.075195312 1363.52929688 228.057617188 1397.71972656 219.784179688 1421.58398438 c 1
 113 1390.875 l 1
 123.083984375 1351.88769531 130.075195312 1305.25390625 130.075195312 1253 c 2
 130.075195312 50 l 1
EndSplineSet
Substitution2: "'ss01' Stylistic Set 1 - No loop k-1" k.noloop
EndChar
StartChar: l
Encoding: 108 108 12
Width: 960
VWidth: -2
Flags: HW
LayerCount: 2
Fore
SplineSet
101.453125 1306.50878906 m 1
 159.125 1316.81542969 221.307617188 1319 271.751953125 1319 c 0
 298.475585938 1319 322.217773438 1318 343.586357555 1318 c 2
 365.338798719 1318 l 1
 368.017805105 233.072265625 l 2
 368.017805105 175.62109375 374.360846942 109.149414062 437.884144354 68.8935546875 c 0
 470.737760835 48.35546875 534.366718804 34 606.224418716 34 c 0
 664.360731913 34 735.998046875 43.0517578125 800.752929688 62.6015625 c 0
 844.538085938 75.8203125 884.533203125 93.8251953125 916.8359375 116.381835938 c 1
 873.725585938 188.654296875 l 1
 843.436523438 170.744140625 808.022460938 157.65234375 771.05078125 147.971679688 c 0
 712.467773438 132.6328125 652.263450214 126 605.351867018 126 c 0
 569.53634653 126 540.301604134 126.053710938 515.147574709 136.303710938 c 0
 497.411938921 143.53125 481.83808405 157.263671875 472.505018864 177.95703125 c 0
 465.116448771 194.337890625 460.561115394 213.470703125 460.51169352 236.1953125 c 2
 457.9443124 1423 l 1
 378.488425483 1423 l 2
 289.556640625 1423 184.442382812 1421.16113281 83 1400.75 c 1
 101.453125 1306.50878906 l 1
EndSplineSet
EndChar
StartChar: m
Encoding: 109 109 13
Width: 960
VWidth: 4
Flags: HW
LayerCount: 2
Fore
SplineSet
771.901367188 957.25 m 0
 750.548828125 984.348632812 723.278320312 1001 683.029296875 1001 c 0
 612.334083763 1001 562.958520419 941.944335938 525.836088785 865.07421875 c 2
 484.15967184 778.774414062 l 1
 484.15967184 877 l 2
 484.15967184 934.661132812 442.292639072 1001 369.706999905 1001 c 0
 347.141552141 1001 319.582836236 989.759765625 292.581238396 969.407226562 c 0
 257.182617188 944.048828125 221.262695312 905.512695312 197.717773438 864.565429688 c 2
 154.791992188 789.911132812 l 1
 151.053710938 875.897460938 l 2
 150.0234375 899.591796875 145.305664062 938.899414062 138.890625 973.504882812 c 0
 135.915039062 989.5546875 132.375976562 1004.89160156 129.025390625 1016.85351562 c 1
 27 989.646484375 l 1
 40.37109375 945.59375 50.029296875 894.515625 50.029296875 815 c 2
 52.9375 25 l 1
 144.029296875 25 l 1
 144.029296875 696.4375 l 1
 146.268554688 701.349609375 l 2
 188.848632812 794.75 235.624023438 849.954101562 280.223267982 877.454101562 c 0
 300.433743891 891.208007812 320.53071674 898 339.541179395 898 c 0
 352.729195077 898 364.664344937 894.826171875 374.639617557 888.033203125 c 0
 387.267049431 879.435546875 394.738323278 866.233398438 398.675406469 853.943359375 c 0
 404.286443166 836.427734375 404.30897049 819.229492188 404.30897049 806.318359375 c 2
 404.30897049 25 l 1
 485.046901855 25 l 1
 485.046901855 697.473632812 l 1
 487.059631665 702.412109375 l 2
 524.371812686 793.984375 558.181861168 848.465820312 594.410131302 876.661132812 c 0
 612.631271161 890.840820312 631.821952413 898 650.958914661 898 c 0
 666.455078125 898 682.057617188 893.638671875 694.787109375 885.463867188 c 0
 714.716796875 872.665039062 724.999023438 852.88671875 730.51171875 834.80078125 c 0
 737.479492188 811.9453125 738.029296875 788.994140625 738.029296875 773 c 2
 738.029296875 191 l 2
 738.029296875 119.692382812 765.271484375 74.9140625 799.635742188 45.83984375 c 0
 821.326171875 27.48828125 846.557617188 15.3310546875 869.943359375 8.263671875 c 1
 911.900390625 99.7421875 l 1
 887.915039062 112.497070312 863.645507812 131.012695312 846.9453125 156.096679688 c 0
 835.711914062 172.96875 828.029296875 193.247070312 828.029296875 216 c 2
 828.029296875 739 l 2
 828.029296875 772.55859375 824.655273438 819.37890625 813.6484375 863.760742188 c 0
 804.825195312 899.333007812 791.073242188 932.91796875 771.901367188 957.25 c 0
EndSplineSet
EndChar
StartChar: n
Encoding: 110 110 15
Width: 960
VWidth: 6
Flags: HW
LayerCount: 2
Fore
SplineSet
80 984.3984375 m 1
 99.2353515625 908.102539062 106.458007812 866.358398438 106.458007812 705 c 2
 106.458007812 24.1591796875 l 1
 214.458007812 24.841796875 l 1
 214.458007812 775.741210938 l 1
 295.713867188 814.700195312 367.88298848 851.518554688 416.625116509 871.870117188 c 0
 454.544831275 887.702148438 486.505902163 897 515.23288224 897 c 0
 565.953364258 897 617.558167982 875.780273438 648.006835938 843.821289062 c 0
 668.692382812 824.319335938 683.458007812 797.471679688 683.458007812 765 c 2
 683.458007812 204 l 2
 683.458007812 139.637695312 707.6640625 99.71875 743.694335938 67.984375 c 0
 768.154296875 46.4404296875 798.775390625 28.9306640625 830.944335938 12.6435546875 c 1
 884.956054688 84.6591796875 l 1
 839.29296875 109.434570312 791.458007812 141.115234375 791.458007812 211 c 2
 791.458007812 796 l 2
 791.458007812 838.623046875 774.764648438 874.096679688 747.25 903.849609375 c 0
 722.765625 930.326171875 689.45703125 951.96484375 653.122070312 967.587890625 c 0
 612.061898024 987.104492188 569.156293257 997 534.206215001 997 c 0
 443.564082316 997 368.585392578 969.993164062 251.032226562 904.838867188 c 2
 220.364257812 888.774414062 l 1
 214.78515625 922.948242188 l 2
 209.046875 958.094726562 201.086914062 988.515625 193.673828125 1010.68554688 c 1
 80 984.3984375 l 1
EndSplineSet
EndChar
StartChar: o
Encoding: 111 111 14
Width: 960
VWidth: 6
Flags: W
LayerCount: 2
Fore
SplineSet
434.796871479 131.001953125 m 0
 434.704838994 131.001953125 434.611999207 131.001953125 434.519966722 131.001953125 c 0
 352.098418055 131.001953125 281.927734375 171.383789062 234.879882812 244.76171875 c 0
 197.634765625 302.850585938 180 379.114257812 180 469 c 0
 180 579.236328125 192.071289062 675.3515625 226.3671875 750.344726562 c 0
 267.907226562 841.177734375 340.157606788 903 447.746810871 903 c 0
 540.665713936 903 607.135742188 847.99609375 646.298828125 772.864257812 c 0
 678.826171875 710.463867188 692.083007812 632.491210938 692.998046875 548.276367188 c 2
 692.998046875 530 l 2
 692.998046875 379.802734375 670.4453125 264.75 595.594726562 196.295898438 c 0
 572.731445312 175.385742188 549.601745301 160.87109375 527.848979457 150.249023438 c 0
 500.830986713 137.055664062 471.215901828 131.58203125 434.796871479 131.001953125 c 0
736.47265625 211.146484375 m 0
 783.092773438 301.384765625 802 418.745117188 802 543 c 0
 802 635.978515625 783.896484375 746.02734375 745.845703125 819.411132812 c 0
 708.857421875 889.124023438 661.836914062 938.114257812 595.69140625 968.967773438 c 0
 544.938766065 993.74609375 489.880735612 1007 419.639767055 1007 c 0
 335.310562582 1007 264.084960938 971.958984375 208.23828125 914.249023438 c 0
 163.37890625 867.89453125 130.373046875 805.786132812 108.15625 733.67578125 c 0
 83.1806640625 652.611328125 72 559.369140625 72 464 c 0
 72 343.130859375 98.6025390625 243.209960938 149.012695312 170.208984375 c 0
 211.59375 79.5830078125 312.377929688 26.5322265625 432.944112243 26 c 2
 434.519966722 26 l 2
 497.495212786 26 548.423890954 40.96484375 596.677734375 66.77734375 c 0
 658.942382812 98.9912109375 704.118164062 148.521484375 736.47265625 211.146484375 c 0
EndSplineSet
EndChar
StartChar: p
Encoding: 112 112 7
Width: 960
VWidth: -2
Flags: W
LayerCount: 2
Fore
SplineSet
669.725585938 759.764648438 m 0
 699.122070312 698.44140625 709.611328125 619.518554688 709.611328125 527 c 0
 709.611328125 398.319335938 686.223632812 304.393554688 642.317382812 238.634765625 c 0
 586.787109375 155.469726562 513.788169689 123 435.73176943 123 c 0
 351.220703125 123 289.200195312 193.06640625 237.110351562 244.153320312 c 2
 229.611328125 251.508789062 l 1
 229.611328125 705.147460938 l 1
 233.374023438 711.190429688 l 2
 273.166015625 775.081054688 307.828125 821.8984375 357.673781675 850.587890625 c 0
 390.635761495 873.514648438 429.826283123 883 481.248463889 883 c 0
 568.967160494 883 634.110351562 834.059570312 669.725585938 759.764648438 c 0
243.063476562 -398.518554688 m 1
 236.623046875 -335.372070312 229.611328125 -259.745117188 229.611328125 -176 c 2
 229.611328125 76.9052734375 l 1
 246.958984375 65.701171875 264.5859375 54.439453125 281.7578125 43.0927734375 c 0
 327.541992188 12.8388671875 360.464600204 -7 424.352595815 -7 c 0
 486.904713274 -7 539.215098231 5.7685546875 585.194335938 29.1220703125 c 0
 651.682617188 58.2724609375 701.651367188 103.908203125 738.446289062 164.994140625 c 0
 791.495117188 253.065429688 816.611328125 374.361328125 816.611328125 521 c 0
 816.611328125 717.6015625 758.40625 868.377929688 623.051757812 930.84765625 c 0
 578.46875 951.423828125 533.173880989 963 480.435665774 963 c 0
 393.890128949 963 329.903320312 930.483398438 271.208984375 878.310546875 c 2
 230.90234375 842.482421875 l 1
 229.618164062 896.39453125 l 2
 228.912109375 926.061523438 226.250976562 944.303710938 222.8046875 965.275390625 c 1
 108 951.274414062 l 1
 116.579101562 888.497070312 123.611328125 812.419921875 123.611328125 738 c 2
 123.611328125 714 l 1
 122.611328125 -171.028320312 l 2
 122.611328125 -251.650390625 126.61328125 -336.490234375 133.780273438 -404.704101562 c 1
 243.063476562 -398.518554688 l 1
EndSplineSet
EndChar
StartChar: q
Encoding: 113 113 16
Width: 960
VWidth: -2
Flags: HW
LayerCount: 2
Fore
SplineSet
287.293945312 238.634765625 m 0
 243.38671875 304.393554688 220 398.319335938 220 527 c 0
 220 619.5546875 230.69921875 698.513671875 260.336914062 759.8359375 c 0
 296.208007812 834.056640625 361.550567159 883 449.365957439 883 c 0
 500.789913363 883 539.980994121 873.514648438 572.94411183 850.587890625 c 0
 622.782226562 821.8984375 657.4453125 775.081054688 697.236328125 711.190429688 c 2
 701 705.147460938 l 1
 701 251.508789062 l 1
 695.341796875 245.959960938 689.865234375 240.583984375 684.174804688 234.963867188 c 0
 635.172851562 186.5625 573.275910015 123 494.071397017 123 c 0
 416.011508378 123 342.82421875 155.469726562 287.293945312 238.634765625 c 0
820.494140625 -398.516601562 m 1
 814.23046875 -335.216796875 808 -259.622070312 808 -176 c 2
 808 738 l 2
 808 812.278320312 814.240234375 888.334960938 822.651367188 951.26953125 c 1
 707.806640625 965.275390625 l 1
 704.360351562 944.303710938 701.69921875 926.061523438 700.993164062 896.39453125 c 2
 699.708984375 842.482421875 l 1
 659.40234375 878.310546875 l 2
 600.791992188 930.409179688 535.935120088 963 449.365957439 963 c 0
 396.625127859 963 351.2109375 951.423828125 306.728515625 930.85546875 c 0
 171.575195312 868.360351562 114 717.541992188 114 521 c 0
 114 374.337890625 138.930664062 253.0234375 191.770507812 164.958007812 c 0
 228.419921875 103.875 278.221679688 58.2578125 344.583007812 29.1162109375 c 0
 390.637678805 5.7685546875 442.895892843 -7 505.450963455 -7 c 0
 569.946021538 -7 603.521484375 13.259765625 649.826171875 43.75 c 0
 666.706054688 54.8642578125 683.975585938 65.91015625 701 76.9052734375 c 1
 701 -171 l 2
 701 -251.755859375 704.21875 -336.634765625 711.200195312 -404.703125 c 1
 820.494140625 -398.516601562 l 1
EndSplineSet
EndChar
StartChar: r
Encoding: 114 114 17
Width: 960
VWidth: 4
Flags: HW
LayerCount: 2
Fore
SplineSet
108 908.603515625 m 0
 158.466796875 864.360351562 201.264648438 828.63671875 201.264648438 764 c 2
 201.264648438 25.83984375 l 1
 307.264648438 25.1611328125 l 1
 307.264648438 611.356445312 l 1
 309.440429688 616.208984375 l 2
 364.193956351 743.467773438 419.343941226 814.82421875 475.857647607 852.385742188 c 0
 520.964375148 882.366210938 565.720979582 890 610.264648438 890 c 0
 632.415039062 890 651.018554688 886.958984375 666.875976562 879.639648438 c 0
 687.129882812 870.290039062 700.610351562 853.845703125 707.672851562 835.8359375 c 0
 718.303710938 808.729492188 717.5859375 779.3671875 718.3984375 748 c 1
 825.08203125 748 l 1
 823.693359375 818.453125 814.341796875 875.678710938 794.381835938 916.338867188 c 0
 779.357421875 946.946289062 759.049804688 968.35546875 730.01953125 982.290039062 c 0
 706.643554688 993.509765625 676.680664062 1000 638.264648438 1000 c 0
 558.789661185 1000 504.53976448 989.127929688 457.964598247 961.900390625 c 0
 420.697270951 940.11328125 387.62582536 907.618164062 355.302588051 859.213867188 c 2
 329.833984375 827.573242188 l 1
 313.374023438 864.94140625 l 2
 283.231445312 933.373046875 237.046875 968.193359375 183.046875 1010.37207031 c 1
 108 908.603515625 l 0
EndSplineSet
EndChar
StartChar: s
Encoding: 115 115 18
Width: 960
VWidth: 6
Flags: W
LayerCount: 2
Fore
SplineSet
633.592773438 964.934570312 m 0
 561.260742188 991.955078125 494.098515346 1004 443.045157512 1004 c 0
 355.668945312 1004 258.666992188 973.999023438 204.129882812 918.00390625 c 0
 171.506835938 884.509765625 151.709960938 840.896484375 151.374023438 782.852539062 c 0
 151.374023438 680.346679688 196.887695312 621.9375 254.077148438 591.094726562 c 0
 331.130859375 550.778320312 449.349969787 516.481445312 521.273926144 480.731445312 c 0
 545.884471896 468.499023438 573.04296875 455.897460938 594.294921875 440.055664062 c 0
 625.254882812 416.9765625 651.286132812 395.930664062 668.90234375 367.421875 c 0
 683.065429688 344.500976562 690.375 317.748046875 690.375 286 c 0
 690.375 257.447265625 683.401367188 231.466796875 670.870117188 208.940429688 c 0
 630.197265625 135.827148438 535.113269967 98 450.137205592 98 c 0
 393.279234188 98 343.508789062 112.740234375 301.107421875 144.846679688 c 0
 253.197265625 181.124023438 229.666015625 236.501953125 225.177734375 304.153320312 c 1
 118 304.8359375 l 1
 123.137695312 203.286132812 159.885742188 125.821289062 226.092773438 75.015625 c 0
 283.7109375 30.8017578125 365.85988033 5 452.501221619 5 c 0
 495.691455833 5 541.525047811 11.7626953125 593.3671875 24.2744140625 c 0
 692.475585938 50.3330078125 795.375 132.896484375 795.375 281 c 0
 795.375 376.469726562 765.791992188 436.258789062 716.78125 481.844726562 c 0
 654.790039062 539.50390625 556.86328125 575.0859375 465.392496515 615.344726562 c 0
 425.358131353 633.265625 382.962058774 652.248046875 333.451171875 675.047851562 c 0
 308.899414062 686.095703125 287.399414062 700.438476562 273.754882812 723.254882812 c 0
 262.965820312 741.295898438 258.375 762.609375 258.375 787 c 0
 258.375 816.96875 272.965820312 842.041992188 294.611328125 859.658203125 c 0
 313.703125 875.196289062 337.791992188 885.612304688 364.545512044 892.857421875 c 0
 391.151465856 901.927734375 421.78671261 906 454.077232304 906 c 0
 495.225116734 906 541.795155111 892.236328125 592.514648438 868.73828125 c 0
 625.807617188 853.927734375 656.864257812 835.180664062 681.759765625 812.415039062 c 1
 759.7578125 889.032226562 l 1
 727.647460938 920.986328125 683.1953125 946.404296875 633.592773438 964.934570312 c 0
EndSplineSet
EndChar
StartChar: t
Encoding: 116 116 19
Width: 960
VWidth: 0
Flags: HW
LayerCount: 2
Fore
SplineSet
319.171875 1245.15820312 m 1
 211.176757812 1245.84179688 l 1
 211 1181.07714844 210.213867188 1099.71875 210.213867188 1037 c 2
 210.213867188 1012 l 1
 196.879882812 987 183.546875 987 170.213867188 1012 c 0
 147.2265625 1012 117.48828125 1010.34277344 96 1006.38183594 c 1
 109.288085938 909.377929688 l 1
 129.080078125 913.012695312 149.565429688 915 170.213867188 915 c 0
 183.4765625 890 196.740234375 890 210.002929688 915 c 1
 207.0546875 820.163085938 204.49609375 723.51953125 202.690429688 651.356445312 c 0
 200.842773438 577.561523438 199.302734375 515.95703125 197.213867188 461.51171875 c 1
 197.213867188 419 l 2
 197.213867188 333.51171875 201.46484375 263.243164062 233.711914062 196.90625 c 0
 254.258789062 154.076171875 278.541992188 124.15234375 306.979492188 102.494140625 c 0
 329.765625 85.140625 353.565693737 72.7548828125 379.054691157 63.9013671875 c 0
 424.929584591 47.966796875 482.056982314 44 550.828729613 44 c 0
 621.723632812 44 688.84375 53.2451171875 740.59765625 83.5830078125 c 0
 824.7734375 132.435546875 853.779296875 195.34375 867.134765625 232.451171875 c 1
 785.916015625 268.548828125 l 1
 773.654296875 241.115234375 749.754882812 201.189453125 702.106445312 176.006835938 c 0
 686.3671875 167.268554688 665.98046875 161.961914062 641.497070312 157.615234375 c 0
 612.374120812 152.16015625 581.002473538 149 549.13211408 149 c 0
 537.150595304 149 473.810005932 149.74609375 455.281440009 152.13671875 c 0
 422.464190145 155.997070312 394.861050712 170.00390625 373.428853226 192.540039062 c 0
 325.700195312 240.166015625 306.213867188 324.13671875 306.213867188 422 c 0
 306.213867188 435.502929688 306.213867188 449.005859375 306.213867188 462.5078125 c 0
 307.73828125 500.625976562 308.830078125 542.765625 310.099609375 591.939453125 c 0
 312.202148438 673.434570312 315.73046875 792.952148438 321.291992188 919 c 1
 344.68994236 919 l 2
 383.441204462 919 406.35048471 922 445.63856657 922 c 2
 706.213867188 922 l 1
 706.213867188 1018.953125 l 1
 445.782712616 1017.00097656 l 1
 316.842773438 1017.00097656 l 1
 317.864257812 1086.44726562 318.94140625 1171.81738281 319.171875 1245.15820312 c 1
EndSplineSet
EndChar
StartChar: u
Encoding: 117 117 20
Width: 960
VWidth: 6
Flags: HW
LayerCount: 2
Fore
SplineSet
791.760742188 238.024414062 m 2
 791.7421875 238.51171875 l 1
 791.7421875 995 l 1
 683.7421875 995 l 1
 683.7421875 338.82421875 l 1
 681.706054688 334.107421875 l 2
 644.9765625 249.05078125 587.404160184 212.400390625 548.794755349 186.688476562 c 0
 543.42465029 183.111328125 538.366314757 179.741210938 533.732285879 176.506835938 c 0
 486.684263609 143.004882812 446.216745738 134.075195312 387.593237771 131 c 1
 387.108077705 131 l 2
 357.156529304 131 321.59375 135.418945312 294.068359375 144.643554688 c 0
 287.481445312 146.850585938 281.478515625 149.182617188 275.234375 153.643554688 c 0
 248.694335938 172.9453125 222.4375 204.186523438 214.75390625 247.72265625 c 1
 214.7421875 249.860351562 l 2
 213.71875 437.177734375 215.283203125 693.17578125 210.494140625 846.30859375 c 0
 208.533203125 909.021484375 205.202148438 959.559570312 200.572265625 992.239257812 c 1
 91 973.749023438 l 1
 92.8271484375 962.806640625 94.333984375 950.387695312 95.736328125 936.373046875 c 0
 99.19140625 901.848632812 101.5703125 858.142578125 103.26953125 808.270507812 c 0
 109.075195312 637.888671875 106.684570312 397.936523438 108.740234375 214.28515625 c 0
 108.740234375 214.190429688 108.740234375 214.094726562 108.740234375 214 c 0
 108.740234375 146.424804688 165.862304688 94.939453125 209.900390625 64.6015625 c 0
 232.569335938 49.111328125 260.665039062 39.6630859375 290.811523438 34.2138671875 c 0
 328.45703125 27.41015625 363.841234749 27 393.083382434 27 c 2
 400.545844479 27 l 1
 521.52242422 29.9052734375 598.305256717 91.8154296875 674.859375 175.463867188 c 2
 705.943359375 207.287109375 l 1
 716.96484375 164.206054688 l 2
 734.3359375 96.30078125 772.328125 60.6259765625 819.888671875 25.203125 c 1
 874.084960938 102.53125 l 1
 855.908203125 118.40234375 837.176757812 137.192382812 821.947265625 158.639648438 c 0
 805.724609375 181.486328125 792.912109375 208.1015625 791.760742188 238.024414062 c 2
EndSplineSet
EndChar
StartChar: v
Encoding: 118 118 21
Width: 960
VWidth: 6
Flags: HW
LayerCount: 2
Fore
SplineSet
693.435546875 986.6875 m 1
 693.912109375 970.737304688 693.961914062 951.571289062 693.961914062 930.922851562 c 0
 693.961914062 925.377929688 693.958984375 919.725585938 693.958984375 914 c 0
 693.958984375 913.366210938 693.958984375 912.731445312 693.958984375 912.095703125 c 0
 693.958984375 879.58984375 693.94921875 844.275390625 692.942382812 816.09375 c 0
 690.158203125 720.03515625 663.446289062 609.752929688 623.831054688 503.297851562 c 0
 574.3125 370.232421875 511.953615762 243.465820312 450.89795592 160.634765625 c 2
 418.847677595 117.153320312 l 1
 413.705886201 174.344726562 l 2
 410.963154724 204.84765625 391.513336776 281.844726562 365.680691248 370.676757812 c 0
 333.261007503 482.163085938 290.891451034 614.931640625 256.635742188 716.095703125 c 0
 236.96484375 768.487304688 220.276367188 812.126953125 210.330078125 840.817382812 c 0
 186.657226562 909.106445312 168.658203125 951.19140625 112.713867188 1014.42578125 c 1
 24 948.40625 l 1
 35.9658203125 933.967773438 48.3798828125 916.967773438 59.541015625 900.584960938 c 0
 73.583984375 879.971679688 84.8701171875 862.0859375 90.2392578125 848.125 c 0
 125.029296875 761.688476562 202.329101562 554.629882812 264.486328125 362.737304688 c 0
 288.777953958 277.383789062 309.714524955 195.124023438 323.800908257 127.502929688 c 0
 332.389376737 86.2744140625 338.544750194 50.8056640625 341.001918829 22.0966796875 c 1
 421.274961747 22.98046875 476.316369304 30.953125 514.313659826 86.6337890625 c 0
 585.893554688 184.005859375 667.153320312 327.038085938 723.64453125 475.555664062 c 0
 768.830078125 594.349609375 798.087890625 716.655273438 798.958984375 821.10546875 c 0
 798.958984375 865.609375 797.690429688 948.540039062 795.829101562 989.3828125 c 1
 693.435546875 986.6875 l 1
EndSplineSet
EndChar
StartChar: w
Encoding: 119 119 22
Width: 960
Flags: W
LayerCount: 2
Fore
SplineSet
142.293945312 26.88671875 m 1
 151.802734375 24.1767578125 162.362304688 22.6201171875 178.528320312 22 c 0
 182.301757812 22 186.07421875 22 189.84765625 22 c 0
 354.857288157 24.8740234375 422.572696693 142.833007812 453.921431243 219.47265625 c 2
 481.241131804 286.264648438 l 1
 495.568601222 214.521484375 l 2
 506.564884338 159.458007812 526.991611639 83.9267578125 541.335490841 25 c 1
 551.613198121 25 561.891769074 25 572.169476354 25 c 0
 610.364545829 25 645.6796875 34.8388671875 680.065429688 54.783203125 c 0
 733.418945312 85.7275390625 778.92578125 142.471679688 813.178710938 231.021484375 c 0
 855.940429688 341.571289062 880.049804688 500.154296875 880.049804688 710 c 0
 880.049804688 779.217773438 877.591796875 929.384765625 873.853515625 995 c 1
 770.145507812 995 l 1
 780.81640625 917.064453125 790.049804688 791.544921875 790.049804688 681 c 0
 790.049804688 541.598632812 779.86328125 430.99609375 762.009765625 346.047851562 c 0
 747.731445312 278.110351562 728.663085938 226.346679688 704.591796875 189.030273438 c 0
 677.63671875 147.241210938 642.122070312 122 604.892314457 122 c 2
 588.498939509 122 l 1
 583.905927129 139.0859375 579.480467289 155.439453125 574.73458481 172.70703125 c 0
 549.022179479 266.244140625 519.105414566 374.9140625 519.105414566 520 c 2
 519.105414566 799 l 1
 439.509321883 799 l 1
 439.509321883 561 l 2
 439.509321883 463.5703125 431.946138467 380.294921875 416.459620044 312.932617188 c 0
 404.084051337 259.100585938 386.643904857 214.989257812 362.608752261 182.293945312 c 0
 335.391828772 145.271484375 299.264392174 124 257.322709743 124 c 2
 234.012695312 124 l 1
 232.325195312 166.920898438 231.014648438 208.35546875 229.764648438 254.112304688 c 0
 225.444335938 412.248046875 220.342773438 596.428710938 183.489257812 790.310546875 c 0
 163.567382812 894.251953125 137.870117188 964.798828125 109.828125 1018.64550781 c 1
 6 965.328125 l 1
 28.650390625 920.315429688 59.548828125 848.810546875 73.2421875 796.319335938 c 0
 121.275390625 612.194335938 134.45703125 238.03125 140.6015625 71.50390625 c 0
 141.241210938 54.1796875 141.796875 39.1298828125 142.293945312 26.88671875 c 1
EndSplineSet
EndChar
StartChar: x
Encoding: 120 120 23
Width: 960
VWidth: 4
Flags: W
LayerCount: 2
Fore
SplineSet
697.46875 88.7275390625 m 0
 733.747070312 63.3330078125 768.552734375 53 803.48828125 53 c 0
 814.791015625 53 827.5546875 54.150390625 840.48828125 55.7626953125 c 1
 840.48828125 157.6953125 l 1
 831.862304688 156.674804688 822.810546875 156 813.48828125 156 c 0
 792.928710938 156 777.7109375 157.977539062 766.491210938 160.73046875 c 0
 757.759765625 162.873046875 751.676757812 164.801757812 745.215820312 169.467773438 c 0
 738.041015625 174.2734375 734.885742188 178.745117188 729.68359375 185.04296875 c 0
 723.149414062 192.953125 715.248046875 203.434570312 705.99609375 216.157226562 c 0
 649.552734375 293.776367188 567.30761373 425.388671875 520.599223254 497.927734375 c 2
 510.956291775 512.904296875 l 1
 520.520339374 527.94921875 l 2
 587.760127744 633.716796875 703.932617188 817.369140625 754.106445312 900.95703125 c 0
 776.6328125 938.486328125 788.309570312 979.71484375 794.735351562 1019.81738281 c 1
 684.837890625 1019.12207031 l 1
 679.002929688 998.779296875 669.155273438 970.526367188 653.2109375 942.623046875 c 0
 584.914495592 819.580078125 536.733052465 722.209960938 474.011234488 633.076171875 c 2
 456.29972769 607.90625 l 1
 366.37293563 757.518554688 288.813476562 887.301757812 170.451171875 1050.43261719 c 1
 80.32421875 980.41015625 l 1
 212.461914062 805.724609375 317.983903346 658.09765625 392.593937114 534.834960938 c 1
 277.037109375 378.208984375 112.495117188 172.825195312 65 112.599609375 c 1
 148.487304688 42.2216796875 l 1
 194.780273438 97.107421875 324.428301108 254.34765625 432.267546269 419.22265625 c 2
 449.788071042 446.009765625 l 1
 473.281351015 407.196289062 495.080703474 370.272460938 519.22996518 328.504882812 c 0
 551.944355466 271.921875 585.702504029 213.595703125 620.565429688 167.537109375 c 0
 649.888671875 130.485351562 677.202148438 101.95703125 697.46875 88.7275390625 c 0
EndSplineSet
EndChar
StartChar: y
Encoding: 121 121 24
Width: 960
VWidth: 14
Flags: W
LayerCount: 2
Fore
SplineSet
416.784307541 -188.391601562 m 0
 391.455883408 -233.802734375 356.840508811 -273 309.331343086 -273 c 0
 248.975585938 -273 211.451171875 -246.8984375 189.53125 -201.723632812 c 0
 172.1171875 -165.834960938 163.584960938 -117.209960938 161.95703125 -50 c 1
 56 -50 l 1
 58.8349609375 -154.029296875 79.537109375 -228.774414062 112.4453125 -279.286132812 c 0
 156.142578125 -346.358398438 223.14453125 -376 312.732268352 -376 c 0
 377.466090974 -376 422.902817865 -348.870117188 459.126491349 -303.108398438 c 0
 488.353192856 -266.186523438 510.462528302 -215.46484375 531.108868065 -157.5625 c 0
 651.520507812 152.448242188 753.387695312 480.22265625 818.079101562 831.548828125 c 0
 825.551757812 873.893554688 830.19140625 920.641601562 831.368164062 970 c 1
 722.6015625 970 l 1
 710.916015625 743.270507812 646.459960938 465.440429688 576.022503424 253.936523438 c 2
 556.093546334 185.201171875 l 1
 535.815861555 253.796875 l 2
 482.673083054 433.5625 416.623228561 628.823242188 345.349101173 769.166015625 c 0
 313.693760408 831.497070312 277.366210938 882.743164062 239.926757812 916.668945312 c 0
 209.876953125 943.8984375 181.174804688 959.348632812 154.939453125 963.276367188 c 0
 134.905273438 966.138671875 101.288085938 969.11328125 72.6650390625 970.375 c 1
 72.6650390625 867.600585938 l 1
 104.674804688 866.182617188 142.305664062 859.744140625 174.47265625 830.500976562 c 0
 240.295898438 771.35546875 298.611328125 675.581054688 344.975464364 558.737304688 c 0
 403.17728526 410.553710938 454.874504462 227.34765625 500.001527953 42.1455078125 c 1
 496.188771893 29.63671875 492.689040448 17.95703125 488.661235647 4.3720703125 c 0
 470.94088725 -55.4033203125 448.966061055 -130.694335938 416.784307541 -188.391601562 c 0
EndSplineSet
EndChar
StartChar: z
Encoding: 122 122 25
Width: 960
VWidth: 6
Flags: HW
LayerCount: 2
Fore
SplineSet
100.2578125 895.58984375 m 1
 161.0078125 889.71484375 265.516601562 888 364.602609505 888 c 0
 432.838865357 888 508.153467569 886 573.03166286 886 c 2
 662.30859375 886 l 1
 616.068359375 842.7421875 l 2
 561.642337714 785.249023438 493.954404467 705.697265625 412.629023393 601.140625 c 0
 391.816026564 574.533203125 371.204081356 548.828125 351.108057872 523.766601562 c 0
 247.59765625 407.5546875 150.857421875 304.375976562 90.56640625 178.241210938 c 0
 73.234375 141.92578125 71.0888671875 95.4912109375 71 25 c 1
 710.997070312 25 l 2
 764.50390625 25 790.912109375 18.2939453125 820.692382812 9.2998046875 c 1
 847.485351562 106.424804688 l 1
 797.563476562 121.5703125 754.49609375 130 708.997070312 130 c 2
 178.2421875 131.079101562 l 1
 199.205078125 168.252929688 l 2
 276.307617188 304.982421875 377.250584267 415.619140625 480.374281276 540.430664062 c 0
 634.19140625 720.731445312 735.9375 839.293945312 800.907226562 912.413085938 c 1
 783.671875 995 l 1
 345.225220951 995 l 2
 253.65234375 995 169.635742188 995.125 118.614257812 998.249023438 c 1
 100.2578125 895.58984375 l 1
EndSplineSet
EndChar
StartChar: braceleft
Encoding: 123 123 160
Width: 1060
VWidth: 66
Flags: W
LayerCount: 2
Fore
SplineSet
549 321 m 0
 549 286.983586694 541.11754355 250.215812898 526.53411847 208.548884097 c 0
 503.210255985 145.380089866 475 73.042992622 475 9 c 0
 475 -35.7782445313 487.925484209 -79.3708881222 524.044794085 -121.811077228 c 0
 561.621209914 -165.448205286 609.176707768 -191.692656214 663.200113891 -208.273738128 c 0
 723.00078245 -226.628000753 790.066095174 -232.418517321 855.81600528 -235.811876498 c 1
 859.232911014 -127.837655291 l 1
 801.300562025 -125.229847444 746.932497144 -123.155064427 701.414908449 -111.31555474 c 0
 665.538143109 -101.983704725 632.752144588 -85.610372961 612.847892395 -54.3044453129 c 0
 600.171625887 -34.3668823088 594 -10.0653316411 594 18 c 0
 594 71.82423252 609.383712843 121.225893467 624.091213984 169.633562222 c 0
 639.843501417 221.479997918 655 272.301894249 655 327 c 0
 655 466.003791156 560.690865924 565.674400605 477.162390093 585.686431273 c 2
 375.67966845 610 l 1
 477.162390093 634.313568727 l 2
 560.690865924 654.325599395 655 753.996208844 655 893 c 0
 655 947.698105751 639.843501417 998.520002082 624.091213984 1050.36643778 c 0
 609.383712843 1098.77410653 594 1148.17576748 594 1202 c 0
 594 1230.48826491 600.366943413 1255.14451102 613.358512926 1275.33119075 c 0
 633.738496158 1306.99820326 667.190918817 1323.55858909 703.875226888 1333.06787225 c 0
 748.871748781 1344.73184222 802.243101125 1347.18282786 859.233485873 1349.81948977 c 1
 855.817006641 1457.7802335 l 1
 730.174473847 1450.99225203 603.079377218 1433.59252551 523.94990177 1341.70023144 c 0
 487.830591893 1299.26004234 475 1255.77824453 475 1211 c 0
 475 1146.91001651 503.189938005 1074.67493799 526.53411847 1011.4511159 c 0
 541.117430843 969.784509123 549 933.015983715 549 899 c 0
 549 751.526157993 413.995040497 703.744857954 300 671.091736486 c 1
 300 548.908263514 l 1
 413.995040497 516.255142046 549 468.473842007 549 321 c 0
EndSplineSet
Validated: 1
EndChar
StartChar: bar
Encoding: 124 124 161
Width: 1060
VWidth: 66
Flags: W
LayerCount: 2
Fore
SplineSet
415 152 m 0
 415 75.6058708767 416 28.2708899209 416 -37 c 0
 416 -84.155674964 415.256369642 -123.004803467 412.5377427 -172.164339191 c 1
 523.177506791 -172.851542695 l 1
 527.171143431 -86.6031194261 528 -31.5047384425 528 74 c 2
 528 224 l 2
 528 398.502499313 524.715565731 622.006949145 521.58233463 835.110455355 c 0
 518.728634789 1029.20192902 516 1214.64608139 516 1347 c 2
 516 1467 l 1
 406 1467 l 1
 406 1399 l 2
 406 1263.74903148 407.990517504 1060.5626895 410.099879277 845.3557235 c 0
 412.474737674 603.06154864 415 345.506466929 415 152 c 0
EndSplineSet
Validated: 1
EndChar
StartChar: braceright
Encoding: 125 125 162
Width: 1060
VWidth: 66
Flags: W
LayerCount: 2
Fore
SplineSet
583 9 m 0
 583 73.0899834904 554.810061995 145.325062005 531.46588153 208.548884097 c 0
 516.882569157 250.215490877 509 286.984016285 509 321 c 0
 509 468.473842007 644.004959503 516.255142046 758 548.908263514 c 1
 758 671.091736486 l 1
 644.004959503 703.744857954 509 751.526157993 509 899 c 0
 509 933.016413306 516.88245645 969.784187102 531.46588153 1011.4511159 c 0
 554.789744015 1074.61991013 583 1146.95700738 583 1211 c 0
 583 1255.77824453 570.074515791 1299.37088812 533.955205915 1341.81107723 c 0
 454.825966033 1433.70309774 327.814695001 1451.00568448 202.18303151 1457.78143907 c 1
 198.766514127 1349.81948977 l 1
 255.756898875 1347.18282786 309.128251219 1344.73184222 354.124773112 1333.06787225 c 0
 390.809081183 1323.55858909 424.261503842 1306.99820326 444.641487074 1275.33119075 c 0
 457.633056587 1255.14451102 464 1230.48826491 464 1202 c 0
 464 1148.17576748 448.616287157 1098.77410653 433.908786016 1050.36643778 c 0
 418.156498583 998.520002082 403 947.698105751 403 893 c 0
 403 753.996208844 497.309134076 654.325599395 580.837609907 634.313568727 c 2
 682.32033155 610 l 1
 580.837609907 585.686431273 l 2
 497.309134076 565.674400605 403 466.003791156 403 327 c 0
 403 272.301894249 418.156498583 221.479997918 433.908786016 169.633562222 c 0
 448.616287157 121.225893467 464 71.82423252 464 18 c 0
 464 -10.0653316411 457.828374113 -34.3668823088 445.152107605 -54.3044453129 c 0
 425.247855412 -85.610372961 392.461856891 -101.983704725 356.585091551 -111.31555474 c 0
 311.06668315 -123.155277639 256.700178143 -125.229814126 198.767088986 -127.837655291 c 1
 202.18399472 -235.811876498 l 1
 267.933904826 -232.418517321 334.99921755 -226.628000753 394.799886109 -208.273738128 c 0
 448.823292232 -191.692656214 496.473682402 -165.337359502 534.05009823 -121.700231444 c 0
 570.169408107 -79.2600423384 583 -35.7782445313 583 9 c 0
EndSplineSet
Validated: 1
EndChar
StartChar: tilde
Encoding: 126 126 120
Width: 1060
VWidth: -12
Flags: W
LayerCount: 2
Fore
SplineSet
335 725 m 0
 252.804814614 725 197.066018604 704.267790494 151.447625468 665.282210153 c 0
 118.814246134 637.393651518 90.6211180519 598.951008999 63.4573269337 549.6952642 c 1
 152.128714521 487.144130321 l 1
 176.530832702 526.796281641 203.852218029 559.94395619 233.284684651 583.653443191 c 0
 261.324229855 606.240854606 292.240092424 621 325 621 c 0
 352.791293151 621 378.570895457 612.413579786 402.859503111 600.170862679 c 0
 433.285666749 584.834499254 462.100739052 563.515275094 491.544488943 541.930447389 c 0
 556.573735736 494.258357624 622.866587122 447 704 447 c 0
 874.25425168 447 935.693202715 582.873901861 962.065461737 672.585719236 c 1
 866.112085209 713.516879852 l 1
 852.282721232 665.389851273 831.011164646 619.357316897 797.343159118 587.301763741 c 0
 774.475025386 565.528847142 744.350919592 550 708 550 c 0
 684.440454455 550 662.318191453 558.346254839 640.621697246 569.677904177 c 0
 613.362893686 583.914637559 585.819330433 603.703662367 556.918833926 624.305627682 c 0
 518.894040698 651.4119257 478.644183508 679.930531174 436.935802829 699.498298915 c 0
 403.546458055 715.163134924 369.556801984 725 335 725 c 0
EndSplineSet
Validated: 1
EndChar
StartChar: cent
Encoding: 162 162 155
Width: 1060
VWidth: 6
Flags: W
LayerCount: 2
Fore
SplineSet
506 259 m 2
 500.598176895 259 495.817118508 258 489 258 c 0
 411.363379007 258 352.98131588 294.276209427 318.575060158 351.281119475 c 0
 291.352123917 396.384575203 279 452.853600725 279 514 c 0
 279 553.016905781 284.9581843 583.953927042 293.80975805 608.581690522 c 0
 304.809206659 639.185493465 320.367464991 659.744232647 331.878755136 673.101178497 c 0
 375.979813209 726.531716493 447.961096992 744.999998229 513 745 c 0
 574.618134588 745 619.522312392 742.263940724 645.95287716 707.348685237 c 0
 653.808314734 696.97150971 658.933608538 684.891723548 662.245836858 671.525115441 c 1
 767.982105916 709.670478329 l 1
 755.294264763 737.157015896 738.88475888 760.840116642 718.237385102 780.450705797 c 0
 685.510359666 811.534380504 641.236856156 833.418219553 580.380123942 842.260650729 c 2
 559 845.367164465 l 1
 559 1008 l 1
 447 1008 l 1
 447 844.335055634 l 1
 426.729155573 840.447496428 l 2
 358.035397117 827.273350971 291.626794553 795.701387922 239.918871177 736.663516097 c 0
 203.101678236 693.503534215 167.000000975 618.609057808 167 501 c 2
 167 490 l 2
 167 432.367622372 173.745401629 384.189282712 189.135480927 343.252877269 c 0
 208.30070057 292.27489421 240.72867562 251.239066907 294.934401384 214.754443797 c 0
 336.209920051 187.237431352 382.888665581 172.130167049 426.820201631 163.534866518 c 2
 447 159.586645098 l 1
 447 16 l 1
 557 16 l 1
 557 157.377984968 l 1
 579.213394292 159.846139889 l 2
 679.550692866 170.99472862 765.248016567 213.7434073 812.659677704 279.786594126 c 1
 719.097132013 336.470472172 l 1
 703.547437227 316.429698906 679.539151157 300.064749929 650.178247661 287.109724177 c 0
 611.589437389 270.083033194 562.583769425 259 508 259 c 2
 506 259 l 2
EndSplineSet
Validated: 1
EndChar
StartChar: sterling
Encoding: 163 163 154
Width: 1060
VWidth: 0
Flags: W
LayerCount: 2
Fore
SplineSet
242 114 m 0
 232.453063764 114 222.103767242 116.838778316 213.360374272 123.354560315 c 0
 194.270425934 137.580838623 187.532862082 162.205283951 186 194.395387668 c 0
 186 196.596925112 186 198.798462556 186 201 c 0
 186 221.687733435 190.690087004 241.205825292 197.121959431 257.034913928 c 0
 199.999694024 264.11713088 203.234513249 270.50684793 207.168951509 276.283584493 c 0
 210.305634045 280.889016702 213.828640428 285.393697665 219.687241781 289.494718611 c 2
 233.505688058 299.167631006 l 1
 247.630933045 289.95551471 l 2
 265.125524874 278.545998299 276.436845174 262.349317885 288.278175182 246.767780563 c 0
 299.488884182 232.016052457 310.986916155 217.064807566 324.807012866 204.501083283 c 2
 342.178122462 188.709165468 l 1
 325.513981629 167.878989426 311.834352844 149.115719919 287.985568878 131.780155249 c 0
 275.569211025 122.754765325 260.69037927 114 242 114 c 0
459.693429549 707 m 1
 606 707 l 2
 694.167756332 707 769.512894807 707.070774789 836 713.437932691 c 1
 836 816.612031516 l 1
 784.93051024 812.680025288 727.652560792 812 665 812 c 2
 608.259719301 812 l 1
 439.891189928 808.563907564 l 1
 428.079959007 879.431293093 410 985.899843665 410 1051 c 0
 410 1082.04619138 413.898926748 1118.41092028 431.642324926 1150.98254007 c 0
 444.013515702 1173.69237942 463.562241373 1194.17783031 491.359811291 1207.15807144 c 0
 513.497503272 1217.4953988 540.201440357 1223 572 1223 c 0
 574.104706315 1223 576.20941263 1223 578.314118945 1223 c 2
 578.627602303 1222.99225967 l 2
 601.62148325 1222.42450952 621.75593607 1217.78566102 639.030925506 1209.42151691 c 0
 679.925722997 1189.62121655 701.653609026 1150.49303533 715.282387139 1106.10811768 c 1
 814.353108925 1135.08798868 l 1
 780.692601864 1243.89887074 701.938236616 1326 578 1326 c 0
 497.951169061 1326 435.196987088 1306.61117763 390.348707834 1270.55715629 c 0
 334.676361775 1225.80154946 302 1151.98831416 302 1043 c 0
 302 972.010667542 317.241988504 889.122208611 330.996759095 814 c 1
 197 814 l 1
 197 711.999610218 l 1
 244.166936945 711.99253679 298.796156718 711.257406814 351.694820649 709.222842816 c 1
 371.63578016 608.468521076 392.906708569 513.009054449 393.998867213 397.240238251 c 0
 393.998867213 397.160158834 393.998867213 397.080079417 393.998867213 397 c 0
 393.998867213 396.072002366 394.000085201 395.14436683 394.000085201 394.21708279 c 0
 394.000085201 373.167277983 393.956179867 352.298603603 391.875023727 331.4870422 c 2
 386.422783378 276.964638709 l 1
 348.809926171 316.857063019 l 2
 330.539715675 336.234559 307.436419113 360.401603821 282.489239904 377.265237085 c 0
 262.438726002 390.818854124 242.129135056 399 223 399 c 2
 214 399 l 2
 202.378018522 399 187.291605425 396.44316997 175.101820084 390.115587325 c 0
 113.623438178 354.004807017 85 288.066332547 85 192 c 0
 85 87.3715399487 141.043148105 12 222 12 c 0
 301.240289584 12 378.983669877 50.8525084177 421.768713324 109.681943157 c 2
 435.659582366 128.781888089 l 1
 455.483127247 116.051171193 l 2
 562.467446629 47.3456449849 657.247896344 9 769 9 c 0
 828.173119907 9.41966751707 873.367804135 22.5974048912 905.2808366 45.7809682325 c 0
 944.544840828 74.3047235372 967.864194723 120.357993591 970 190.380808201 c 1
 970 205.677394163 l 1
 863.972602622 204.318068556 l 1
 863.881423171 193.174463584 863.487995924 182.927556818 861.794923865 172.859634608 c 0
 859.095461273 156.807169948 851.572182867 139.557809749 835.205664407 128.579858717 c 0
 825.258833163 121.907955551 813.953058055 118.261377749 801.313889106 115.919340347 c 0
 785.43814121 112.977565022 766.732446774 112 743 112 c 0
 646.679923919 112 586.941868152 148.321632761 493.416840825 209.013405814 c 2
 478.413240204 218.749784941 l 1
 482.744394516 236.074402191 l 2
 494.209835621 281.936166609 500.989557019 335.186896274 500.999986584 384.885148488 c 0
 499.906952911 503.731650333 479.48948979 604.720355421 459.693429549 707 c 1
EndSplineSet
Validated: 1
EndChar
StartChar: currency
Encoding: 164 164 153
Width: 1060
VWidth: 6
Flags: W
LayerCount: 2
Fore
SplineSet
712 522 m 0
 712 453.127949258 702.549800225 391.194605288 681.3660117 341.378828417 c 0
 664.455862214 301.612937027 639.437384971 268.7527321 604.763977461 249.167334553 c 0
 582.542111215 236.615234372 556.963232093 230 529 230 c 0
 456.955679952 230 410.567519005 259.389227128 384.575318527 307.430037098 c 0
 362.955182702 347.390056547 355 399.051679544 355 462 c 0
 355 518.28110393 360.312709682 568.341645029 371.938638321 611.313934162 c 0
 382.260777905 649.467098563 397.643247245 682.334908944 419.523602456 708.283853033 c 0
 446.973517212 740.838000184 484.337091456 761.057125346 529.006653273 765.824620303 c 0
 534.840637095 766.602484812 540.674620916 767.380349322 546.508604737 768.158213831 c 1
 549.367560919 767.889135603 l 2
 653.257083572 758.111298176 712 655.15191517 712 522 c 0
240 461 m 2
 240 404.067031174 243.803154323 359.138216241 263.364714641 307.905558266 c 2
 268.627284468 294.122637292 l 1
 141.536645492 144.098349178 l 1
 213.397839091 77.6099551016 l 1
 337.537268014 200.756268594 l 1
 354.989281283 186.212924202 l 2
 400.136160663 148.590524719 446.242341258 123.958949223 524.150350973 123.000043604 c 0
 584.406712499 123.033295674 639.916093704 143.055769425 685.643264406 178.722960472 c 2
 703.80274752 192.887357301 l 1
 827.680125428 58.1087701379 l 1
 908.322505297 130.550230021 l 1
 768.712862378 279.788124176 l 1
 776.756622796 295.416001561 l 2
 809.826921323 359.66686727 823.021256766 419.356165717 824.999952323 520.245974046 c 0
 824.976394414 579.693234904 816.408496785 634.123032158 794.805794337 687.660161732 c 2
 788.950038073 702.172253343 l 1
 918.405043708 844.953509559 l 1
 842.20693416 911.711145357 l 1
 729.785226076 798.285672022 l 1
 712.066879825 814.614344057 l 2
 690.952134493 834.073030931 670.604700448 847.957299647 647.910840498 857.722007697 c 0
 619.583003365 869.910901958 586.773115111 876 543 876 c 2
 526.552369236 876 l 1
 461.33189876 873.121159005 416.295618133 855.75719954 373.033876784 810.692885635 c 2
 354.624942995 791.516912938 l 1
 236.271233428 919.986324178 l 1
 154.67052759 847.299981162 l 1
 289.189189083 702.286956008 l 1
 283.143407827 687.535249744 l 2
 259.2483631 629.231340609 240 552.149344605 240 468 c 2
 240 461 l 2
EndSplineSet
Validated: 1
EndChar
StartChar: yen
Encoding: 165 165 150
Width: 1060
VWidth: 0
Flags: W
LayerCount: 2
Fore
SplineSet
424 143 m 2
 424 19 l 1
 534 19 l 1
 534 128 l 2
 534 161.756081392 535.580484705 296.158086364 537.454202195 399.21254835 c 1
 660.779819543 398.149396476 775.72363251 395.190346547 897.460707137 393.113892357 c 1
 899.535212953 505.137206411 l 1
 774.147644156 507.250485485 663.550355145 510.31165888 538.857541764 512.443159964 c 1
 540.187225477 541.69620164 541 571.185143126 541 602 c 2
 541 610.124962336 l 1
 558.527570708 634.22537206 579.614127064 669.715446508 599.238153005 699.578094679 c 1
 705.2053287 702.924426543 785.167887584 707.797210139 905 707.994250008 c 1
 905 816.997055974 l 1
 812.640135125 816.918911082 748.525089689 815.037474654 670.179597653 812.335905963 c 1
 687.094420072 837.708139592 704.834837748 862.552026247 720.92406491 888.452606849 c 0
 818.665433128 1045.7975284 887.305806298 1182.71599447 934.241376077 1278.00849683 c 1
 839.386515426 1332.60122238 l 1
 789.501985183 1227.53963866 649.017574445 972.815030816 552.143741291 819.662113641 c 2
 544.767103145 808 l 1
 442.589807483 808 l 1
 354.502830877 960.065938563 212.967836644 1220.98094538 161.944662216 1321.19993244 c 1
 66.258612939 1271.98996424 l 1
 107.981751992 1188.58402485 207.793853695 1002.21887407 294.815384337 847.21177261 c 2
 316.640897243 808.335077746 l 1
 246.875686715 810.967727199 186.675902541 813.201820873 105.752302083 817.623204904 c 1
 105.009112051 795.640627755 105 773.231616184 105 750 c 2
 105 709.524375728 l 1
 216.9524128 702.708353864 302.192713197 697.856787794 381.967379449 696.820753167 c 1
 395.232619784 675.596368631 414.342422649 643.894362127 426.172754578 627.762091315 c 2
 431 621.179483921 l 1
 431 513 l 1
 406 513 l 2
 312.417771724 513 222.43097484 510.129628058 103 506.246699282 c 1
 103 395.245264795 l 1
 169.519625823 398.214928919 231.524729515 399 291 399 c 2
 428.549491908 399 l 1
 426.668201051 312.468515647 424 193.14851171 424 143 c 2
EndSplineSet
Validated: 1
EndChar
StartChar: brokenbar
Encoding: 166 166 164
Width: 1060
VWidth: 66
Flags: W
LayerCount: 2
Fore
SplineSet
532.000001909 150.113937834 m 0
 532.000001909 151.730518949 532 153.359152864 532 155 c 0
 532 236.44372126 530.275027428 392.410912966 528.429328527 503 c 1
 415.393163926 503 l 1
 417.254885889 379.803158586 419 209.795360837 419 118 c 2
 419 -29 l 2
 419 -82.5168649868 418.210697058 -112.980444486 415.344535162 -169.163139144 c 1
 526.302838146 -169.852321151 l 1
 531.975289432 -61.7156402844 532.000001909 -33.8028374756 532.000001909 150.113937834 c 0
524.590241958 800 m 1
 521.611249636 980.481428012 516 1213.38186236 516 1366 c 2
 516 1467 l 1
 406 1467 l 1
 406 1399 l 2
 406 1244.26576369 408.814202366 1054.55080759 412.628260345 800 c 1
 524.590241958 800 l 1
EndSplineSet
Validated: 1
EndChar
StartChar: section
Encoding: 167 167 159
Width: 1060
VWidth: 4
Flags: W
LayerCount: 2
Fore
SplineSet
253 637 m 0
 253 656.0979413 253.46595914 674.971176207 263.444962684 693.384813698 c 0
 276.143193499 716.81607294 299.561934257 730.810081808 334.535249744 745.143407827 c 2
 347.214987338 750.340021595 l 1
 390.968335701 719.410930511 436.551560427 689.762355029 483.778423686 659.556041399 c 0
 564.439416393 607.965250157 646.824665622 555.425195856 714.917395058 493.400135379 c 0
 744.533978652 466.152878473 756.092695334 438.146958276 760 410.795825616 c 0
 760 404.53055041 760 398.265275205 760 392 c 0
 760 375.375466926 758.433115236 358.201772112 749.243669619 341.900641559 c 0
 737.604805424 321.254494596 717.121538595 307.796462654 688.598693912 295.911944036 c 2
 676.036290774 290.677609396 l 1
 635.153005981 318.872978218 592.775742292 346.137781376 548.007478644 374.522863001 c 0
 462.327063755 428.848078501 373.271974755 485.098629127 302.278794148 550.419283336 c 0
 286.619634572 564.236294282 273.774805917 579.572236912 264.94295395 595.639414359 c 0
 257.879085864 608.490220533 253 622.169330503 253 637 c 0
188 1040 m 0
 188 977.22777599 213.649999777 902.755721481 246.568982843 855.206079275 c 2
 260.286440235 835.391974154 l 1
 240.927819318 820.949828391 l 2
 207.071982869 795.692299611 181.843173333 771.734203344 165.716037555 740.331217547 c 0
 152.796667887 715.174439073 145 684.127210676 145 641 c 0
 145 576.24377285 175.123808943 517.083256065 221.067905887 467.27720848 c 0
 303.243791433 384.380027075 399.409102716 324.490239033 485.492437999 271.065457445 c 0
 501.943736926 260.855501567 518.121558541 251.020186087 533.583159175 240.986594186 c 0
 586.884198221 206.397622039 630.280455824 172.563886121 661.450887545 139.909847612 c 0
 686.225573327 113.955970848 704.780717285 88.0578325001 711.311289383 60.8471154247 c 0
 717.754320251 34.0011534735 720 10.9033760002 720 -9 c 0
 720 -88.5086943285 673.062214804 -143.366518293 612.768090536 -170.415132375 c 0
 582.75172232 -183.880808672 549.46983189 -190.889502284 515.827994849 -191.98651871 c 2
 515.414568609 -192 l 1
 515 -192 l 2
 460.690104193 -192 417.25969081 -177.993932851 386.893287111 -154.915466039 c 0
 370.949809952 -142.95785817 358.194737387 -129.744373279 349.225753829 -112.714657664 c 0
 340.588458174 -96.3147292045 335.803911575 -78.2129160541 331.724515901 -55.1377914755 c 1
 224.496725987 -55.8295836685 l 1
 232.693584419 -143.210732698 271.073021028 -204.633120227 327.33540854 -244.025251995 c 0
 376.95093052 -278.763578362 442.300119216 -297 516 -297 c 0
 564.096100894 -297 615.820208952 -286.652648412 662.742900481 -265.399429308 c 0
 756.327635727 -223.011049225 831 -139.042490608 831 -3 c 2
 831 5.66517576991 l 1
 829.054939075 78.5673398598 810.132007634 138.506204288 778.505281389 183.687241781 c 2
 764.648560139 203.482557851 l 1
 784.020997591 218.01188594 l 2
 817.580511814 243.181521607 840.404934781 268.136022175 854.861734519 301.254260189 c 0
 866.475090466 327.858618924 873 360.80352674 873 405 c 0
 873 467.496520724 835.597168563 528.290059399 788.237641433 576.410495062 c 0
 715.509487238 650.307146419 631.711043663 706.002053294 554.286919739 755.905781855 c 0
 527.629668482 773.08771642 501.846652254 789.698604326 477.747399516 806.463301882 c 0
 465.3249031 815.071015934 453.689432916 822.999378284 442.708604329 830.481921993 c 0
 387.401001593 868.169565654 347.662131524 894.085500835 322.305625158 933.842800816 c 0
 301.887646377 965.856821033 294 1003.78581914 294 1055 c 0
 294 1169.46102551 395.37370602 1235.7901043 493.428651339 1237.99358622 c 2
 493.714064692 1238 l 1
 494 1238 l 2
 549.527909308 1238 592.201288746 1227.87865466 623.852398939 1202.34239926 c 0
 642.219154709 1187.52401964 657.947644625 1172.57003095 668.18216278 1149.29043139 c 0
 673.771544121 1136.57673471 677.122779804 1122.43320609 679.108456731 1105.15359488 c 1
 780.597393116 1105.82570705 l 1
 772.802361295 1191.02443012 735.03392204 1251.46034138 679.635432534 1290.40361113 c 0
 630.704026047 1324.80073962 566.29020349 1343 494 1343 c 0
 351.552147546 1343 188 1241.62147406 188 1040 c 0
EndSplineSet
Validated: 1
EndChar
StartChar: dieresis
Encoding: 168 168 173
Width: 1060
VWidth: -28
Flags: W
LayerCount: 2
Fore
SplineSet
349 1287.31707369 m 1
 164 1289.67877581 l 1
 164 1114.68292631 l 1
 349 1112.32122419 l 1
 349 1287.31707369 l 1
755 1284.31707369 m 1
 570 1286.67877581 l 1
 570 1111.68292631 l 1
 755 1109.32122419 l 1
 755 1284.31707369 l 1
EndSplineSet
Validated: 1
EndChar
StartChar: copyright
Encoding: 169 169 165
Width: 1060
VWidth: 6
Flags: W
LayerCount: 2
Fore
SplineSet
132 593 m 0
 132 835.187461215 314.295058224 1032 542.900390625 1032 c 0
 771.991769721 1032 945.799804688 834.486236356 945.799804688 593 c 0
 945.799804688 351.511124508 771.988116355 154.044921875 542.900390625 154.044921875 c 0
 314.298727416 154.044921875 132 350.809904956 132 593 c 0
41.08984375 592.240234375 m 0
 41.08984375 299.117416099 265.411028542 64.0673828125 539.290039062 64.0673828125 c 0
 813.169049584 64.0673828125 1037.49023438 299.1174161 1037.49023438 592.240234375 c 0
 1037.49023438 885.407706925 813.106832239 1121.43457031 539.290039062 1121.43457031 c 0
 265.473245887 1121.43457031 41.08984375 885.407706925 41.08984375 592.240234375 c 0
550 771 m 0
 579.649252448 771 603.163963946 767.037844224 623.180928444 755.736257099 c 0
 641.254649033 745.531826355 653.814073339 731.07427314 665.255829549 714.003691246 c 1
 744.419479384 761.109334123 l 1
 727.676285965 786.922153942 704.217978173 807.380359534 677.62509162 822.869803037 c 0
 636.382802281 846.89202076 588.188920277 858 553 858 c 0
 472.226958313 858 408.359164621 823.681914549 366.491178325 765.298785074 c 0
 332.832961204 718.363830185 313 654.62924381 313 579 c 0
 313 471.089389623 352.550943844 405.664777197 404.545867335 367.533147809 c 0
 446.541205257 336.734936097 498.737783627 323 548 323 c 0
 603.384690851 323 694.038108747 334.523733184 756.947615495 426.811337292 c 1
 678.542351354 470.15733698 l 1
 663.169309919 446.926419717 644.358320014 430.828037253 622.006614334 421.570655064 c 0
 599.157420038 412.107228544 574.829487672 410 549 410 c 0
 488.34104251 410 449.442642582 445.242820497 428.191218798 484.038080302 c 0
 411.410427267 514.672035646 404 549.353231882 404 581 c 0
 404 648.420006356 424.108411517 703.977300233 460.883838766 737.451847738 c 0
 484.26960255 758.738557895 514.89064655 771 550 771 c 0
EndSplineSet
Validated: 1
EndChar
StartChar: ordfeminine
Encoding: 170 170 193
Width: 960
VWidth: 6
Flags: HW
LayerCount: 2
Fore
SplineSet
798 534 m 1
 798 625 l 1
 142 625 l 1
 142 534 l 1
 798 534 l 1
274.65234375 872.421875 m 0
 247.125 894.736328125 234 928.680664062 234 966 c 0
 234 1020.93847656 270.399414062 1072.55566406 333.588867188 1099.71972656 c 0
 365.16015625 1113.29199219 399.756518673 1121 433.956732562 1121 c 0
 516.879913046 1121 573.293945312 1092.546875 614.390625 1047.92773438 c 2
 626.79296875 1034.46191406 l 1
 617.709960938 1018.6015625 l 2
 555.236328125 909.521484375 490.50050704 846 358 846 c 0
 325.169921875 846 296.465820312 854.737304688 274.65234375 872.421875 c 0
713 1067.00683594 m 2
 711.999023438 1181.41308594 l 2
 711.999023438 1282.41699219 691.03515625 1366.29492188 651.557617188 1427.56933594 c 0
 602.615234375 1495.97558594 530.165475802 1537 441.625512868 1537 c 0
 354.650390625 1537 254.673828125 1515.6953125 166.786132812 1465.76757812 c 1
 211.55859375 1390.01660156 l 1
 280.900390625 1433.40332031 351.298828125 1445 443.15926893 1445 c 0
 509.637259302 1445 555.130859375 1411.609375 587.248046875 1353.32128906 c 0
 612.3125 1307.83398438 620 1251.88769531 620 1192.43652344 c 2
 620 1136.81054688 l 1
 580.021484375 1170.171875 l 2
 568.21484375 1180.0234375 546.073701511 1192.23828125 522.582070589 1201.64550781 c 0
 493.20929399 1213.40722656 456.05615034 1221.36523438 417.85229392 1221.36523438 c 0
 379.63671875 1221.36523438 331.462890625 1211.96972656 288.98046875 1192.60546875 c 0
 251.190429688 1175.38085938 218.088867188 1150.45117188 193.018554688 1117.56835938 c 0
 161.7734375 1076.5859375 142 1022.46386719 142 951 c 0
 142 883.638671875 169.075195312 831.387695312 214.09765625 797.432617188 c 0
 250.319335938 770.11328125 299.499023438 754 358 754 c 0
 474.796732213 754 547.805917218 807.552734375 609.845703125 883.059570312 c 2
 635.094726562 913.134765625 l 1
 651.67578125 877.533203125 l 2
 679.219726562 818.39453125 706.280273438 785.076171875 740.6171875 759.544921875 c 1
 795.002929688 837.51953125 l 1
 769.029296875 856.935546875 745.374023438 880.94921875 732.900390625 898.13671875 c 0
 726.063476562 907.209960938 724.176757812 915.755859375 722.118164062 924.950195312 c 0
 714.903320312 960.725585938 713.00390625 1033.25390625 713 1067.00683594 c 2
EndSplineSet
EndChar
StartChar: guillemotleft
Encoding: 171 171 157
Width: 1060
VWidth: 6
Flags: W
LayerCount: 2
Fore
SplineSet
742.581217461 945.511889111 m 1
 695.342771134 814.253587795 582.340896807 660.865597119 446 563.026206602 c 1
 446 463.067384869 l 1
 591.152059202 360.855585957 675.712396253 246.500415792 725.250578417 94.9827917765 c 1
 832.601424008 131.689855108 l 1
 788.62551161 278.253598941 713.023799587 395.112900651 595.615936665 497.123011058 c 2
 574.269243769 515.670137673 l 1
 595.28634937 534.585532714 l 2
 714.943956686 642.277379299 800.778552073 775.457622405 848.354264807 906.106244021 c 1
 742.581217461 945.511889111 l 1
419.941263662 945.809324787 m 1
 405.533659529 893.213143278 374.728776265 843.570389452 335.940868389 795.896462575 c 0
 270.230550855 715.132403755 178.658476497 637.201261372 96 562.879583575 c 1
 96 470.18547842 l 1
 240.913349635 340.659351048 357.513679959 230.2074265 403.642096581 87.4480515689 c 1
 508.580944834 124.728958185 l 1
 462.136650908 277.79003316 360.644767533 387.534728357 239.063812798 499.617171003 c 2
 218.561593036 518.517654846 l 1
 344.390062598 628.240080304 480.326559318 744.182067488 526.894763837 920.442148464 c 1
 419.941263662 945.809324787 l 1
EndSplineSet
Validated: 1
EndChar
StartChar: logicalnot
Encoding: 172 172 194
Width: 1060
VWidth: 6
Flags: W
LayerCount: 2
Fore
SplineSet
883 573.055155504 m 1
 791.838338818 573.913162397 693.699205251 575 615 575 c 2
 496 575 l 2
 400.723627381 575 297.911781375 574.127869932 174.155915201 568.306899934 c 1
 175.4372768 553.571241536 178 538.891189594 178 524.09992474 c 2
 178 465.297086681 l 1
 318.325522093 472.109463343 430.643151521 473 494 473 c 0
 626.923605249 473 661.044382633 471.07196403 779 468.450728088 c 1
 779 199 l 1
 883 199 l 1
 883 573.055155504 l 1
EndSplineSet
Validated: 1
EndChar
StartChar: uni00AD
Encoding: 173 173 195
Width: 1060
VWidth: 6
Flags: W
LayerCount: 2
Fore
SplineSet
882 573.064572891 m 1
 791.077038629 573.921323287 693.419851908 575 615 575 c 2
 496 575 l 2
 400.723627381 575 297.911781375 574.127869932 174.155915201 568.306899934 c 1
 175.4372768 553.571241536 178 538.891189594 178 524.09992474 c 2
 178 465.297086681 l 1
 318.325522093 472.109463343 430.643151521 473 494 473 c 0
 616.674419771 473 749.159109509 470.158730531 882 470.158730531 c 1
 882 573.064572891 l 1
EndSplineSet
Validated: 1
EndChar
StartChar: registered
Encoding: 174 174 166
Width: 1060
VWidth: 6
Flags: W
LayerCount: 2
Fore
SplineSet
754 686 m 0
 754 770.190521469 728.501129632 815.239528539 686.478356322 841.346812738 c 0
 651.805582871 862.887798236 601.355952756 873 537 873 c 0
 483.039098635 873 419.742286205 865.807841174 349.241971222 854.85624163 c 1
 351.276519274 815.740005615 352 781.701735569 352 736 c 2
 352 308 l 1
 416.89604617 308 l 1
 415.855636026 558.738844704 l 1
 448.901529936 547.723547588 l 1
 448.901529936 547.723547588 489.588483229 534.359509692 517.225105805 530.793493875 c 2
 531.320078483 528.974787724 l 1
 536.967144384 515.883862227 l 2
 547.641244503 491.139357405 581.864703717 433.734117111 624.068166205 384.346807111 c 0
 652.470224916 351.110167377 684.491267167 321.923036019 713.648450611 306.182067754 c 1
 756.395522909 365.553001502 l 1
 739.938690473 376.345395678 724.350939746 389.504282073 707.865266984 405.386480144 c 0
 673.754594404 438.248497127 640.26838431 478.914900294 623.540980711 513.01306917 c 2
 610.852415415 538.878221504 l 1
 638.282477215 547.784085724 l 2
 675.156422558 559.756145901 707.426137772 585.90221314 728.385991554 615.875045521 c 0
 745.170720331 639.877401045 754 665.652581633 754 686 c 0
686 684 m 0
 686 668.136359249 680.127263421 652.708186788 670.038602058 638.923679184 c 0
 649.666328163 611.08829505 611.265777861 590 558 590 c 0
 522.133842769 590 480.038073886 600.171838312 430.821549033 622.162200481 c 2
 416.134745483 628.724389301 l 1
 414.820587236 786.423378959 l 1
 436.174009085 789.708520782 l 2
 476.438967843 795.903129822 510.739437322 798 539 798 c 0
 627.537476449 798 686 770.396114727 686 684 c 0
132 593 m 0
 132 835.187461215 314.295058224 1032 542.900390625 1032 c 0
 771.991769721 1032 945.799804688 834.486236356 945.799804688 593 c 0
 945.799804688 351.511124508 771.988116355 154.044921875 542.900390625 154.044921875 c 0
 314.298727416 154.044921875 132 350.809904956 132 593 c 0
41.08984375 592.240234375 m 0
 41.08984375 299.117416099 265.411028542 64.0673828125 539.290039062 64.0673828125 c 0
 813.169049584 64.0673828125 1037.49023438 299.1174161 1037.49023438 592.240234375 c 0
 1037.49023438 885.407706925 813.106832239 1121.43457031 539.290039062 1121.43457031 c 0
 265.473245887 1121.43457031 41.08984375 885.407706925 41.08984375 592.240234375 c 0
EndSplineSet
Validated: 1
EndChar
StartChar: macron
Encoding: 175 175 176
Width: 1060
VWidth: -34
Flags: W
LayerCount: 2
Fore
SplineSet
501 1311 m 2
 451.94189224 1311 401.160250195 1310 353 1310 c 0
 317.615860508 1310 283.786455591 1310.56226221 253 1312.68791845 c 1
 253 1208.74882721 l 1
 294.124396186 1207.0132783 337.547923613 1207 382 1207 c 2
 463 1207 l 2
 533.949552523 1207 601.066494512 1207.0078293 657 1208.75123695 c 1
 657 1311 l 1
 501 1311 l 2
EndSplineSet
Validated: 1
EndChar
StartChar: degree
Encoding: 176 176 175
Width: 1060
VWidth: -26
Flags: W
LayerCount: 2
Fore
SplineSet
222 1096 m 0
 222 967.824894376 326.824894376 863 455 863 c 0
 583.175105624 863 688 967.824894376 688 1096 c 0
 688 1224.17510562 583.175105624 1329 455 1329 c 0
 326.824894376 1329 222 1224.17510562 222 1096 c 0
322 1096 m 0
 322 1169.73347 381.266529997 1229 455 1229 c 0
 528.733470003 1229 588 1169.73347 588 1096 c 0
 588 1022.26653 528.733470003 963 455 963 c 0
 381.266529997 963 322 1022.26653 322 1096 c 0
EndSplineSet
Validated: 1
EndChar
StartChar: plusminus
Encoding: 177 177 145
Width: 1060
VWidth: -6
Flags: W
LayerCount: 2
Fore
SplineSet
559 343 m 2
 559 440.063300594 561 546.87964466 561 647 c 0
 561 658.740531188 561 670.481062377 561 682.221593565 c 1
 617.875884896 684.02146334 680.239301726 686.832235998 713.134870005 688.635462701 c 0
 766.274257838 691.548388913 809.409700515 693.889068841 920 693.996170868 c 1
 920 793.996365807 l 1
 740.900180086 793.831816582 742.277946229 788.019966663 586.492288083 785.004760377 c 2
 560.858382453 784.508620268 l 1
 562.861972451 1146.156615 l 1
 452.861023315 1146.84412093 l 1
 450.861886911 786 l 1
 426 786 l 2
 330.126952165 786 261.287301772 786.92511017 107 795.537951706 c 1
 107 695.637964169 l 1
 266.933866115 686.690248033 324.434785153 684 426 684 c 2
 451 684 l 1
 451 672.333333333 451 660.666666667 451 649 c 0
 451 547.609544965 449 442.569101099 449 344 c 2
 449 319 l 1
 424 319 l 2
 295.215512958 319 242.333580966 314.457916937 114 311.193089875 c 1
 114 211.231353572 l 1
 260.280166947 215.806112693 297.958082647 217 426 217 c 0
 646.447967518 217 725.075039001 212.991308998 920 210.119047286 c 1
 920 310.141644977 l 1
 756.830972987 313.143925731 726.279765545 315.393062154 559 318.453057865 c 1
 559 343 l 2
EndSplineSet
Validated: 1
EndChar
StartChar: uni00B2
Encoding: 178 178 196
Width: 1060
VWidth: 65
Flags: W
LayerCount: 2
Fore
SplineSet
789 1297 m 0
 789 1348.65880566 773.162214301 1388.90648421 747.03040849 1420.06356916 c 0
 704.217728801 1471.10934484 627.43544169 1502 536 1502 c 0
 472.940856402 1502 415.292682261 1489.82736783 369.757701718 1465.2208596 c 0
 319.092836818 1437.84222892 282.203180087 1395.46217333 266.340851775 1332.67923016 c 1
 364.644900492 1309.11319108 l 1
 374.91930146 1341.78187743 393.435221633 1368.83678949 423.878537436 1386.225059 c 0
 453.619367499 1403.21209063 491.347124174 1410 539 1410 c 0
 589.312134712 1410 640.054865209 1394.13689563 671.111986241 1360.04981157 c 0
 686.808225283 1342.82223214 697 1320.43662641 697 1295 c 0
 697 1281.87095953 696.191999666 1267.69857685 691.14126465 1252.87137429 c 0
 687.103947319 1241.01921383 680.418046739 1229.28979836 670.830895455 1217.96304302 c 0
 644.020450576 1186.28779967 595.744814269 1155.63919671 501.103211842 1108.59840024 c 0
 448.201294907 1082.14744177 387.633183761 1054.34256162 341.491119796 1024.73128497 c 0
 312.36247751 1006.03822681 290.275005806 986.871449004 280.215654884 970.77648753 c 0
 269.03602536 952.557832009 262.375868739 937.854982562 258.084202106 923.502523657 c 0
 252.730583706 905.598619502 251 887.809471173 251 864 c 0
 251 839.827206727 251.546076581 817.202983077 252.23844268 794 c 1
 801 794 l 1
 801 890.699857202 l 1
 375.292657774 885.619817319 l 1
 382.671517772 916.775003977 l 2
 388.497220592 941.372415883 406.995154398 958.599511618 427.065265006 973.199325587 c 0
 459.960137652 997.128392575 508.986466638 1020.285977 550.529635784 1041.7663991 c 0
 647.479222361 1091.89108819 711.798027517 1126.27434549 747.363700022 1166.81438205 c 0
 775.32740018 1198.68920255 789 1235.6256899 789 1297 c 0
EndSplineSet
Validated: 1
EndChar
StartChar: uni00B3
Encoding: 179 179 197
Width: 1060
VWidth: 65
Flags: W
LayerCount: 2
Fore
SplineSet
512 870 m 0
 414.821490679 870 358.342786972 900.857553051 307.155474893 951.670449263 c 1
 237.301686882 885.111651253 l 1
 277.011749672 844.922861539 314.522308402 819.020041761 359.445838253 802.784481746 c 0
 400.543578597 787.931578779 448.915299465 781 512 781 c 0
 589.40278469 781 654.84312426 795.666527151 702.305908643 823.496865688 c 0
 760.852812686 857.826502707 795 911.962120488 795 994 c 0
 795 1026.27221549 788.768895005 1054.41536646 776.345506247 1078.84677232 c 0
 760.866430776 1109.28738578 735.389892823 1135.09099908 696.276007743 1155.91787296 c 2
 663.203657087 1173.5278259 l 1
 692.138491338 1197.31868962 l 2
 728.866713158 1227.51744978 745 1280.61052551 745 1329 c 0
 745 1387.63886101 719.271247268 1433.90365716 672.796341439 1464.8669256 c 0
 635.324244893 1489.83219586 583.091608163 1505 519 1505 c 2
 508 1505 l 2
 424.026531366 1505 360.298145648 1485.22456778 313.58121707 1455.39869871 c 1
 376.906650023 1380.32215448 l 1
 411.615333684 1405.74334012 457.530035123 1420 516 1420 c 0
 581.635328146 1420 632.751809717 1399.19381293 653.917898356 1358.3516169 c 0
 659.893180143 1346.82168171 663 1334.0818693 663 1321 c 0
 663 1280.60527002 649.074960141 1243.81961529 616.814042472 1220.51552624 c 0
 591.544231601 1202.26155316 558.241753688 1194 518 1194 c 0
 512.647175324 1194 506.788462365 1194.19461304 500.651744647 1194.49626605 c 1
 497.312900041 1130.50174443 l 1
 566.498682611 1127.78858933 623.93232942 1114.44993695 661.002091141 1080.33448094 c 0
 685.250693044 1058.01839168 698 1027.59194967 698 993 c 0
 698 954.73371033 679.05354819 918.427987304 639.476622261 896.26152975 c 0
 608.478436901 878.899899358 566.706868364 870 512 870 c 0
EndSplineSet
Validated: 1
EndChar
StartChar: acute
Encoding: 180 180 174
Width: 1060
VWidth: -43
Flags: W
LayerCount: 2
Fore
SplineSet
650.51199399 1579.93906044 m 1
 540.605262945 1481.95390696 388.539076162 1384.84068131 254.979047502 1334.56865773 c 1
 301.413733599 1231.99651531 l 1
 375.868315719 1258.29465454 468.833120328 1300.05662852 554.543972396 1348.93941527 c 0
 621.889097545 1387.34782344 684.79307279 1430.28578122 730.769019841 1472.68648953 c 1
 650.51199399 1579.93906044 l 1
EndSplineSet
Validated: 1
EndChar
StartChar: uni00B5
Encoding: 181 181 169
Width: 1060
VWidth: 6
Flags: W
LayerCount: 2
Fore
SplineSet
426 131 m 2
 390.912149797 131 351.851948137 135.418831447 324.325686085 144.643542487 c 0
 317.739015106 146.850894011 311.736625112 149.1828949 305.492111129 153.64326203 c 0
 278.951878546 172.945249364 252.694843881 204.1868563 245.012064313 247.722607189 c 1
 245.000380299 249.860781624 l 2
 243.976792625 437.177325967 245.540581363 693.175660396 240.751697522 846.308963755 c 0
 238.790523836 909.021072633 235.459571333 959.559550189 230.830192515 992.23952309 c 1
 121.257741173 973.749171926 l 1
 123.084416273 962.806556029 124.591347729 950.387962749 125.994037894 936.372592016 c 0
 129.449259501 901.848779837 131.828387823 858.142168381 133.527555103 808.270682395 c 0
 139.33266877 637.887431622 140.497721931 397.937462789 139.002414447 214.284967159 c 2
 134.2044278 -375 l 1
 241.177081289 -375 l 1
 244.254068684 57.8295602594 l 1
 277.672603191 45.4523252569 l 2
 326.061937396 27.5303496255 385.003556585 27 433 27 c 2
 441.742328861 27 l 1
 583.464412552 29.905325698 673.414483287 91.8151144313 755.117518894 175.463460409 c 2
 786.201472279 207.287507923 l 1
 797.222376627 164.205790925 l 2
 814.593465858 96.3006239319 852.586278209 60.6256324695 900.146118343 25.2027400843 c 1
 954.342263775 102.531386615 l 1
 936.166055293 118.402438232 917.434031945 137.192377927 902.204782376 158.639758831 c 0
 885.82865329 181.702292321 871.959860863 208.193356347 871.998726996 238.527538797 c 2
 872.967968862 995 l 1
 764.963045641 995 l 1
 763.992344562 338.806070605 l 1
 761.963444367 334.107564891 l 2
 725.234195777 249.050357629 660.644314833 212.400415765 615.414145988 186.688153596 c 0
 609.1226653 183.111598279 603.197330602 179.740854612 597.768321847 176.506551524 c 0
 542.652121349 143.0045473 495.245328257 134.075074708 426.568659773 131 c 1
 426 131 l 2
EndSplineSet
Validated: 1
EndChar
StartChar: paragraph
Encoding: 182 182 170
Width: 1060
VWidth: 0
Flags: W
LayerCount: 2
Fore
SplineSet
884 1295.12470564 m 1
 776.892592126 1296.21539469 737.914955778 1303 620 1303 c 0
 394.26529481 1303 234.896444261 1288.81177375 128.381834792 1158.2156004 c 0
 79.8510436258 1098.90018898 61 1012.90273053 61 924 c 0
 61 831.971518113 68.3095406214 737.177686812 123.74403461 654.949854062 c 0
 196.805032334 548.595237123 303.510629913 509.742448429 468.803541368 497.935811896 c 2
 491.809933734 496.292498156 l 1
 494.000855735 229.000014025 l 2
 494.000855735 132.243459619 476.009188977 69.6534467853 462.743714838 36.6601508175 c 1
 568.668881164 0.893211538671 l 1
 572.557409738 10.830836867 577.385140517 24.9637353256 582.28437135 43.8461874935 c 0
 591.009559602 77.4745172164 598.989740636 124.44648428 598.999986637 183.885358698 c 0
 595.922220021 520.49662983 596.948453878 860.971603797 595.922677865 1199.47768811 c 1
 631.412711424 1198.80806483 671.394029166 1197.50675138 701.42148925 1196.1146904 c 0
 728.73362068 1194.84851096 753.000382829 1194.05633934 780 1193.39781209 c 1
 780 1041 l 1
 781.952157873 15.1647103548 l 1
 884 15.8360777372 l 1
 884 1295.12470564 l 1
EndSplineSet
Validated: 1
EndChar
StartChar: cedilla
Encoding: 184 184 198
Width: 1060
VWidth: 12
Flags: W
LayerCount: 2
Fore
SplineSet
596 -333 m 1
 667.219845084 -333 755 -275.77320427 755 -190 c 0
 755 -147.889454508 744.586718362 -115.574098119 727.289520967 -92.5230809292 c 0
 705.908098747 -64.0292434671 671.996024757 -46.456199523 623.694564428 -43.9664335267 c 2
 600 -42.7450642263 l 1
 600 -19 l 2
 600 -17.5119248501 599.937991919 -8.60857937269 599.937991919 2.77848474853 c 0
 599.937991919 11.248221462 599.972297484 21.0920592695 600.091941804 30.2806431933 c 1
 505 27.6753845137 l 1
 505 -99.6311398112 l 1
 520.72520886 -94.9952677404 534.30847616 -94 558 -94 c 0
 595.435254427 -94 629.555043152 -106.280826685 650.715853914 -129.134502308 c 0
 661.383389397 -140.65544063 669 -155.755497684 669 -173 c 0
 669 -173.999807497 669 -174.999614995 669 -175.999422492 c 0
 667.484329992 -195.19790926 659.825380276 -211.259372823 648.383444018 -223.78073703 c 0
 626.337646574 -247.906326685 593.598670625 -258 564 -258 c 0
 519.244431367 -258 482.723522201 -242.146764844 453.691611227 -226.903900923 c 1
 432.442095739 -286.178865177 l 1
 482.100090918 -314.277330098 581.830733639 -328.943814922 596 -333 c 1
EndSplineSet
Validated: 1
EndChar
StartChar: uni00B9
Encoding: 185 185 199
Width: 1060
VWidth: 65
Flags: W
LayerCount: 2
Fore
SplineSet
691 794 m 1
 691 1488.33225148 l 1
 566.566959542 1500.54653766 l 1
 491.870010176 1375.82651944 373.437392314 1288.01037993 239.893635362 1246.20147514 c 1
 266.740779652 1165.03569008 l 1
 380.391100257 1206.75086749 490.260178791 1272.42009392 553.520249735 1341.83044954 c 2
 597.116345281 1389.66505437 l 1
 596.045005255 794 l 1
 691 794 l 1
EndSplineSet
Validated: 1
EndChar
StartChar: ordmasculine
Encoding: 186 186 200
Width: 960
VWidth: 6
Flags: HW
LayerCount: 2
Fore
SplineSet
629.82421875 1353.40820312 m 0
 661.1328125 1307.79882812 674 1245.42480469 674 1166.24804688 c 0
 674 1061.9921875 659.471679688 985.888671875 625.779296875 932.041015625 c 0
 582.776367188 870.163085938 522.155944027 849.599609375 456.96307348 849.599609375 c 0
 384.76953125 849.599609375 324.469726562 889.291015625 291.041992188 949.6875 c 0
 263.915039062 1004.34765625 254 1072.75097656 254 1148.10058594 c 0
 254 1265.35058594 284.162109375 1343.1796875 339.095703125 1387.49609375 c 0
 382.374023438 1422.41015625 425.193054131 1433.59960938 469.233121969 1433.59960938 c 0
 531.974828655 1433.59960938 590.09375 1411.28710938 629.82421875 1353.40820312 c 0
222.487304688 874.365234375 m 0
 271.865234375 800.149414062 352.624023438 757.599609375 455.429317419 757.599609375 c 0
 565.637695312 757.599609375 651.6875 789.305664062 702.83203125 863.174804688 c 0
 744.482421875 928.872070312 766 1031.42675781 766 1182.86132812 c 0
 766 1304.79101562 734.350585938 1397.11914062 665.78515625 1456.0390625 c 0
 610.532226562 1499.515625 533.497351152 1525.59960938 443.15926893 1525.59960938 c 0
 376.6328125 1525.59960938 294.634765625 1494.82519531 238.043945312 1425.68652344 c 0
 192.680664062 1364.73730469 162 1274.62695312 162 1147.35742188 c 0
 162 1032.71191406 182.53515625 940.403320312 222.487304688 874.365234375 c 0
798 534 m 1
 798 625 l 1
 142 625 l 1
 142 534 l 1
 798 534 l 1
EndSplineSet
EndChar
StartChar: onequarter
Encoding: 188 188 201
Width: 1060
VWidth: 0
Flags: W
LayerCount: 2
Fore
SplineSet
946 650 m 1
 103 650 l 1
 103 559 l 1
 946 559 l 1
 946 650 l 1
EndSplineSet
Refer: 971 8324 N 1 0 0 1 0 0 2
Refer: 199 185 N 1 0 0 1 0 0 2
Validated: 1
EndChar
StartChar: onehalf
Encoding: 189 189 202
Width: 1060
VWidth: 0
Flags: W
LayerCount: 2
Fore
SplineSet
946 650 m 1
 103 650 l 1
 103 559 l 1
 946 559 l 1
 946 650 l 1
EndSplineSet
Refer: 969 8322 N 1 0 0 1 0 0 2
Refer: 199 185 N 1 0 0 1 0 0 2
Validated: 1
EndChar
StartChar: threequarters
Encoding: 190 190 203
Width: 1060
VWidth: 0
Flags: W
LayerCount: 2
Fore
SplineSet
946 650 m 1
 103 650 l 1
 103 559 l 1
 946 559 l 1
 946 650 l 1
EndSplineSet
Refer: 971 8324 N 1 0 0 1 0 0 2
Refer: 197 179 N 1 0 0 1 0 0 2
Validated: 1
EndChar
StartChar: Aring
Encoding: 197 197 76
Width: 960
VWidth: -8
Flags: HW
LayerCount: 2
Fore
SplineSet
674.241210938 470.56640625 m 1
 483.567172956 467.009765625 l 2
 470.227128422 466.283203125 457.702308832 465.688476562 445.846214988 465.125976562 c 0
 392.247329336 462.583007812 352.842492361 460.61328125 311.922681336 450.56640625 c 2
 273.421875 441.52734375 l 1
 470.576141215 1164.40820312 l 1
 674.241210938 470.56640625 l 1
464.31114614 1375 m 0
 409.354126755 1375 365.477617229 1420.17578125 365.477617229 1472 c 0
 365.477617229 1524.49414062 409.579046111 1566 464.31114614 1566 c 0
 519.562025679 1566 561.379790606 1523.65625 561.379790606 1472 c 0
 561.379790606 1421.01171875 519.784359755 1375 464.31114614 1375 c 0
465.193588363 1640 m 0
 373.431661871 1640 295.764681658 1564.37304688 295.764681658 1470 c 0
 295.764681658 1402.609375 334.916161198 1344.74511719 391.834546304 1316.97363281 c 2
 410.166766419 1308.02929688 l 1
 69.724609375 176.625976562 l 2
 60.4775390625 145.986328125 47.84765625 86.490234375 42 50 c 1
 152.669921875 50 l 1
 157.044921875 84.31640625 167.37109375 128.505859375 176.1328125 153.978515625 c 2
 239.4296875 346.014648438 l 1
 252.91015625 349.29296875 l 2
 351.140516395 375.241210938 521.410500842 378.454101562 645.381568453 381.221679688 c 0
 662.974398502 381.614257812 680.5625 381.978515625 699.7265625 382.38671875 c 1
 725.08203125 306.2890625 750.467773438 230.220703125 775.805664062 154.104492188 c 0
 782.880859375 130.2265625 791.2421875 83.119140625 795.059570312 50 c 1
 908.842773438 50 l 1
 903.54296875 98.3857421875 889.706054688 159.9921875 880.981445312 189.474609375 c 1
 524.481813421 1309.27050781 l 1
 542.410729864 1318.69335938 l 2
 596.788646541 1347.27148438 633.740052845 1404.16699219 633.740052845 1470 c 0
 633.740052845 1564.52441406 556.856412456 1640 465.193588363 1640 c 0
EndSplineSet
EndChar
StartChar: AE
Encoding: 198 198 82
Width: 960
VWidth: 0
Flags: W
HStem: -5 155<622 896> 491 140<330.475 429> 681 152<574 861> 1168 155<534 959>
LayerCount: 2
Back
SplineSet
979 27 m 1
 934 11 896 -5 821 -5 c 2
 479 -5 l 1
 479 120 l 1
 469 241 451 364 440 488 c 1
 418 490 399 491 381 491 c 0
 354 491 330 488 299 481 c 1
 152 -16 l 1
 22 36 l 1
 151 462 239 891 334 1320 c 1
 417 1320 l 1
 488 1323 591 1323 699 1323 c 2
 959 1323 l 1
 959 1170 l 1
 942 1170 l 2
 859 1170 840 1168 717 1168 c 2
 534 1168 l 1
 534 1123 l 2
 534 1102 551 907 559 828 c 1
 610 829 670 833 755 833 c 2
 861 833 l 1
 861 681 l 1
 755 681 l 2
 673 681 619 677 574 676 c 1
 576 667 576 657 576 648 c 1
 602 430 617 228 622 150 c 1
 941 150 l 1
 979 27 l 1
429 631 m 1
 429 645 l 1
 418 762 406 887 398 997 c 1
 329 625 l 1
 361 628 359 629 412 631 c 1
 429 631 l 1
EndSplineSet
Fore
SplineSet
446.425158092 465.431640625 m 1
 422.419717394 465.002929688 l 2
 310.894294795 463.014648438 252.181717845 450.432617188 252.181717845 450.432617188 c 1
 214.71875 443.34375 l 1
 386.62269909 1254.88867188 l 1
 446.425158092 465.431640625 l 1
851.694335938 1169 m 1
 851.694335938 1269.02148438 l 1
 739.990234375 1269.20703125 674.956077434 1270 555.727887149 1270 c 0
 476.881403896 1270 388.353018265 1269.98925781 331.607310452 1268.51660156 c 1
 32.796875 152.341796875 l 2
 24.1181640625 121.244140625 11.08203125 61.505859375 5 25 c 1
 115.75390625 25 l 1
 120.56640625 58.9052734375 131.041992188 95.4072265625 138.342773438 126.696289062 c 2
 193.108398438 342.53515625 l 1
 207.475585938 346.21875 l 2
 209.223632812 346.666992188 285.124366594 366.930664062 431.215871577 371.987304688 c 2
 452.871582642 372.737304688 l 1
 473.560067192 24.8154296875 l 1
 804.795898438 22 l 1
 810.694335938 22 l 2
 866.80078125 22 895.724609375 32.296875 932.606445312 43.8251953125 c 1
 903.359375 142.201171875 l 1
 879.099609375 134.135742188 841.065429688 124.018554688 802.802734375 124 c 2
 551.202773966 121.810546875 l 1
 509.879247636 691 l 1
 772.694335938 691 l 1
 772.694335938 791 l 1
 496.429191957 791 l 1
 469.54835504 1169 l 1
 851.694335938 1169 l 1
EndSplineSet
EndChar
StartChar: Ccedilla
Encoding: 199 199 83
Width: 960
VWidth: 6
Flags: HW
LayerCount: 2
Fore
SplineSet
393.0696525 -326.178710938 m 1
 435.973530903 -354.27734375 522.14156925 -368.943359375 534.383547888 -373 c 1
 595.917441339 -373 680 -315.7734375 680 -230 c 0
 680 -187.889648438 669.586914062 -155.57421875 652.2890625 -132.5234375 c 0
 630.908203125 -104.029296875 600.044225922 -86.4560546875 558.311473465 -83.966796875 c 2
 537.83955068 -82.7451171875 l 1
 537.83955068 0.3447265625 l 1
 557.061034955 2.8759765625 l 2
 692.994140625 19.458984375 799.611328125 114.97265625 865.168945312 247.423828125 c 1
 769.985351562 302.79296875 l 1
 747.806640625 258.272460938 719.751953125 219.100585938 684.095703125 187.875976562 c 0
 631.046875 141.419921875 569.995732902 113.901367188 495.38539139 110.857421875 c 2
 495.013297339 110.841796875 l 2
 490.856981482 129 486.699821874 129 482.543506017 110.841796875 c 0
 441.698379277 110.841796875 407.854695692 116.20703125 375.832669828 133.200195312 c 0
 350.269555431 146.765625 326.714567656 167.251953125 301.770766259 195.731445312 c 0
 195.642578125 300.137695312 165 463.009765625 165 638.490234375 c 0
 165 869.302734375 223.17578125 998.916992188 271.444335938 1071.00292969 c 0
 319.755312035 1147.38183594 402.93731672 1221.08007812 511.055529046 1221.08007812 c 0
 557.317535162 1221.08007812 601.34191447 1202.28417969 643.46875 1162.34375 c 0
 674.057617188 1135.17578125 701.723632812 1098.69824219 726.68359375 1052.3125 c 1
 819.329101562 1110.92480469 l 1
 735.234375 1258.69628906 620.096679688 1332 513.64753114 1332 c 0
 370.302727861 1332 252.53515625 1241.66796875 184.81640625 1136.515625 c 0
 134.967773438 1059.11328125 56 899.891601562 56 637.400390625 c 0
 56 405.969726562 113.313476562 240.837890625 227.854492188 117.220703125 c 0
 291.767578125 51.1630859375 365.03856736 19.6865234375 437.13284434 7.7724609375 c 2
 455.759484384 4.6943359375 l 1
 455.759484384 -139.630859375 l 1
 469.346401608 -134.995117188 481.082129837 -134 501.55152137 -134 c 0
 533.895859994 -134 563.374821304 -146.28125 581.658054821 -169.134765625 c 0
 590.875187266 -180.655273438 597.455598831 -195.755859375 597.455598831 -213 c 0
 597.455598831 -214 597.455598831 -215 597.455598831 -215.999023438 c 0
 596.146097773 -235.198242188 589.528561178 -251.259765625 579.643178194 -263.780273438 c 0
 560.595506559 -287.90625 532.308764962 -298 506.735525557 -298 c 0
 468.066431824 -298 436.512687589 -282.146484375 411.428823579 -266.904296875 c 1
 393.0696525 -326.178710938 l 1
EndSplineSet
EndChar
StartChar: multiply
Encoding: 215 215 128
Width: 1060
VWidth: 6
Flags: W
LayerCount: 2
Fore
SplineSet
398.674203125 539.674203125 m 2
 416.410530629 521.937875621 l 1
 398.611603654 504.263416665 l 2
 268.300853735 374.863930732 166.329128993 257.097555589 104.199591576 183.12234089 c 1
 183.670391895 116.557055153 l 1
 252.019509709 192.027156071 340.15991051 291.197553011 476.504177321 424.850814556 c 2
 494.389481839 442.383119643 l 1
 534.986397649 400.796035155 579.121324153 355.957125115 612.636282825 322.048596319 c 0
 703.396647349 230.222422097 762.482384707 170.496033028 819.944697261 98.4939371784 c 1
 898.884763019 162.961657548 l 1
 853.962014849 208.799628734 818.070923012 248.736956322 772.037967742 299.95614214 c 0
 727.014964768 350.051590974 654.705884995 429.677408533 574.018394008 515.774116792 c 1
 713.312718457 651.81009447 859.875705658 798.778675435 902.117929235 841.358808301 c 1
 830.57099726 925.976814386 l 1
 784.797294874 880.267065712 637.662451533 736.732340637 495.288471928 600.757191576 c 1
 385.877068614 714.041564919 271.827441621 833.502746024 164.604610911 934.370330012 c 1
 97.0107588572 850.390089582 l 1
 154.225725494 796.191338008 206.714169418 740.436270952 261.701880383 682.048753169 c 0
 304.651446627 636.443680347 349.138951289 589.209454961 398.674203125 539.674203125 c 2
EndSplineSet
Validated: 1
EndChar
StartChar: Oslash
Encoding: 216 216 127
Width: 960
VWidth: 0
Flags: HW
LayerCount: 2
Fore
SplineSet
763.997070312 637.383789062 m 0
 763.997070312 637.255859375 763.997070312 637.127929688 763.997070312 637 c 0
 763.997070312 573.873046875 754.227539062 494.599609375 738.465820312 424.171875 c 0
 725.938476562 368.1953125 710.126953125 318.099609375 689.739257812 284.629882812 c 0
 668.565429688 244.814453125 641.138671875 208.499023438 608.264667794 180.296875 c 0
 569.244185557 144.75390625 519.479919741 123 458.679059258 123 c 0
 409.996662317 123 369.133342855 132.529296875 334.339895101 151.379882812 c 2
 315.191411866 161.75390625 l 1
 421.663992495 441.786132812 542.74903808 754.766601562 648.954101562 1035.69921875 c 2
 670.072265625 1085.76269531 l 1
 694.375 1037.15625 l 2
 696.24609375 1033.41503906 699.185546875 1028.53515625 701.334960938 1024.23632812 c 0
 729.021484375 969.358398438 743.197265625 888.03125 751.896484375 813.447265625 c 0
 762.763671875 720.274414062 763.989257812 637.888671875 763.997070312 637.383789062 c 0
210.4609375 284.177734375 m 2
 168.861328125 370.576171875 150 493.6328125 150 585 c 0
 150 813.405273438 210.551757812 984.125976562 283.92578125 1080.89648438 c 0
 313.717142087 1126.29882812 344.393359515 1158.04003906 382.01192355 1176.47753906 c 0
 411.99867301 1191.17480469 445.269332869 1197 483.956146657 1197 c 0
 515.384820486 1197 545.90271564 1190.41796875 573.869579311 1174.375 c 2
 592.120902991 1163.90527344 l 1
 485.901127284 872.969726562 352.761457785 528.73046875 234.094726562 235.091796875 c 1
 210.4609375 284.177734375 l 2
297.514644827 31.064453125 m 2
 347.413399456 4.755859375 403.8084745 -7.21875 458.679059258 -7.21875 c 0
 594.837066309 -7.21875 711.762695312 69.8896484375 782.715820312 214.27734375 c 0
 828.76953125 308.911132812 872 464.583984375 872 633.379882812 c 2
 872 644.80078125 l 1
 870.025390625 941.107421875 803.828125 1108.69238281 725.999023438 1203.12890625 c 2
 715.991210938 1215.27148438 l 1
 731.458007812 1253.63378906 747.458007812 1294.23339844 760.602539062 1328.84082031 c 1
 659.41796875 1368.49414062 l 1
 650.133789062 1344.30175781 638.016601562 1314.64550781 627.383789062 1288.95019531 c 1
 606.923184438 1299.04882812 l 2
 558.405068136 1323.16992188 511.908540012 1327.97851562 479.810826896 1328 c 0
 350.920322951 1324.97070312 256.03515625 1253.72949219 194.327148438 1164.41992188 c 0
 126.887695312 1067.39160156 41 899.325195312 41 578.3671875 c 0
 41 392.337890625 87.537109375 242.065429688 172.787109375 131.419921875 c 0
 175.19921875 128.758789062 176.202148438 127.174804688 177.795898438 125.215820312 c 2
 189.495117188 113.068359375 l 1
 176.536132812 80.619140625 159.415039062 41.0458984375 147.158203125 14.5498046875 c 1
 247.553710938 -28.4130859375 l 1
 253.463867188 -13.130859375 258.90234375 1.4404296875 266.260742188 18.109375 c 2
 276.552734375 41.4248046875 l 1
 297.514644827 31.064453125 l 2
EndSplineSet
EndChar
StartChar: Thorn
Encoding: 222 222 204
Width: 960
VWidth: 0
Flags: HW
LayerCount: 2
Fore
SplineSet
712.728515625 900.084960938 m 0
 727.708007812 870.171875 734 836.462890625 734 800 c 0
 734 755.344726562 725.323242188 717.702148438 705.525390625 687.133789062 c 0
 680.598632812 648.646484375 640.352539062 625.2109375 591.508565462 611.015625 c 0
 530.637073131 590.524414062 448.834416496 587 341 587 c 2
 340.506835938 587 l 2
 300.608398438 587 254.797851562 587.5234375 212.702148438 588.693359375 c 1
 213.245117188 633.272460938 214 660.775390625 214 878 c 2
 214 1028.45117188 l 1
 275.916015625 1029.82617188 322.241210938 1033 383.304046858 1033 c 0
 486.348025451 1033 561.188823143 1018.98828125 617.333007812 988.633789062 c 0
 661.826171875 967.510742188 693.908203125 937.666992188 712.728515625 900.084960938 c 0
104 15.841796875 m 1
 212.008789062 15.158203125 l 1
 212.13671875 192.875976562 213 235.776367188 213 463 c 2
 213 488.943359375 l 1
 272.405273438 486.743164062 336.280273438 485 384.137646432 485 c 0
 464.525463165 485 556.34759593 489.698242188 639.48828125 516.186523438 c 0
 713.247070312 537.444335938 773.44140625 572.004882812 809.120117188 626.399414062 c 0
 832.109375 661.448242188 846 705.889648438 846 764 c 0
 846 850.583007812 826.418945312 933.47265625 777.762695312 992.040039062 c 0
 670.272460938 1121.02832031 552.738044649 1135 364.96485623 1135 c 0
 300.46484375 1135 263.80859375 1133.37597656 214 1130.53027344 c 1
 214 1271.0390625 l 1
 180.575195312 1269.89257812 147.291992188 1269.22851562 104 1269.04980469 c 1
 104 15.841796875 l 1
EndSplineSet
EndChar
StartChar: germandbls
Encoding: 223 223 167
Width: 960
VWidth: 0
Flags: HW
LayerCount: 2
Fore
SplineSet
166.478515625 93.056640625 m 0
 174.372070312 192.735351562 176.384765625 315.01171875 176.384765625 443.850585938 c 0
 176.384765625 626.916015625 171.384765625 832.159179688 171.384765625 1009.37304688 c 0
 171.384765625 1112.56738281 238.981445312 1224.76074219 342.07669461 1225.99902344 c 0
 342.153350229 1200.99902344 342.229163479 1200.99902344 342.305819098 1225.99902344 c 0
 397.429633121 1225.99902344 443.433955547 1214.20117188 478.521169983 1187.90234375 c 0
 523.149903107 1154.453125 545.876188327 1099.08007812 545.876188327 1030 c 0
 545.876188327 981.635742188 537.837456726 942.783203125 521.750727461 912.178710938 c 0
 501.474052583 873.599609375 469.707458494 851.360351562 434.144305322 839.098632812 c 0
 388.795346324 823.462890625 335.667947883 822.111328125 280.199604758 822.005859375 c 1
 280.199604758 718.966796875 l 1
 382.091770291 718.620117188 472.901723424 715.134765625 545.873661219 689.603515625 c 0
 602.209960938 670.642578125 654.87890625 638.401367188 688.346679688 584.709960938 c 0
 714.982421875 541.98046875 728.384765625 487.708007812 728.384765625 420 c 0
 728.384765625 358.813476562 722.473632812 300.86328125 701.51171875 253.081054688 c 0
 686.938476562 219.86328125 664.342773438 191.208984375 631.602539062 172.96875 c 0
 605.525390625 158.44140625 575.821579679 151 544.151015706 151 c 0
 472.033240528 151 423.299641105 162.856445312 395.542725567 207.40625 c 0
 377.195076715 236.854492188 371.426530765 274.41796875 369.650815978 321 c 1
 277.612688196 321 l 1
 277.837600838 215.883789062 313.511946776 145.311523438 369.628914372 101.624023438 c 0
 415.06969164 66.248046875 475.69417813 48 544.151015706 48 c 0
 651.6796875 48 727.862304688 96.5556640625 775.0859375 172.98046875 c 0
 813.178710938 234.626953125 832.384765625 316.140625 832.384765625 406 c 0
 832.384765625 499.139648438 813.862304688 574.239257812 779.793945312 632.5546875 c 0
 737.376953125 705.159179688 670.12109375 754.04296875 578.071548463 779.903320312 c 2
 541.266742731 791.71484375 l 1
 569.012707466 822.157226562 l 2
 615.955078125 869.240234375 642.384765625 938.471679688 642.384765625 1036 c 0
 642.384765625 1152.1484375 596.889648438 1227.09179688 533.716585408 1272.80761719 c 0
 483.804511133 1309.75195312 417.203413441 1328 342.305819098 1328 c 0
 171.098632812 1328 68.384765625 1167.71875 68.384765625 1016.52734375 c 0
 68.384765625 830.586914062 77.384765625 629.411132812 77.384765625 440.303710938 c 0
 77.384765625 326.995117188 76.419921875 211.791992188 76.384765625 207.620117188 c 0
 76.37890625 157.885742188 72.7958984375 128.739257812 66.7294921875 108.424804688 c 0
 61.875 92.16796875 54.203125 81.1767578125 48.970703125 75.1396484375 c 0
 42.0732421875 67.328125 34.5703125 61.2392578125 27 56.2255859375 c 1
 84.24609375 -29.4716796875 l 1
 100.484375 -19.7744140625 115.2578125 -8.962890625 127.497070312 3.65625 c 0
 148.42578125 25.2353515625 163.086914062 52.1826171875 166.478515625 93.056640625 c 0
EndSplineSet
EndChar
StartChar: ae
Encoding: 230 230 65
Width: 960
VWidth: 6
Flags: W
LayerCount: 2
Fore
SplineSet
148.032226562 198.997070312 m 0
 128.252929688 231.384765625 120 273.327148438 120 324 c 0
 120 407.224609375 149.250976562 485.690429688 211.0703125 518.512695312 c 0
 228.682617188 527.864257812 248.629882812 533 269.006832827 533 c 0
 318.997488108 533 360.827280137 523.032226562 402.280892614 495.62890625 c 2
 413.239913358 488.383789062 l 1
 413.239913358 324.939453125 l 1
 405.648472578 272.427734375 388.525432095 209.1328125 347.027159032 169.420898438 c 0
 326.399121397 149.681640625 299.753928643 137 268.127362823 137 c 0
 216.573242188 137 173.435546875 157.400390625 148.032226562 198.997070312 c 0
503.825323691 588.256835938 m 1
 503.825323691 615 l 2
 503.825323691 687.430664062 505.26992188 747.46484375 518.794349752 795.244140625 c 0
 528.197979699 828.463867188 544.572955365 856.817382812 571.152874955 874.193359375 c 0
 592.153656712 887.922851562 617.704665107 894 651 894 c 0
 687.090820312 894 712.23828125 869.114257812 727.860351562 840.841796875 c 0
 757.02734375 788.055664062 768 700.665039062 768 623 c 2
 768 598 l 1
 743 598 l 2
 659.392578125 598 605.29589303 596.03515625 527.309921122 590.057617188 c 2
 503.825323691 588.256835938 l 1
463.486508152 114.204101562 m 2
 508.960432236 59.7275390625 566.349285377 30 632 30 c 0
 696.874023438 30 787.200195312 60.8681640625 872.354492188 167.232421875 c 1
 802.3046875 232.700195312 l 1
 784.157226562 209.578125 763.334960938 186.870117188 739.453125 168.983398438 c 0
 714.166015625 150.044921875 684.516601562 136 651 136 c 0
 585.67357744 136 535.460478085 168.9921875 509.154534014 203.689453125 c 2
 503.825323691 210.71875 l 1
 503.825323691 489.354492188 l 1
 868.944335938 499.352539062 l 1
 868.532226562 581.263671875 865.436523438 682.211914062 846.658203125 771.565429688 c 0
 830.033203125 850.676757812 801.16015625 918.557617188 755.834960938 957.883789062 c 0
 726.875 983.010742188 690.689453125 998 642 998 c 0
 595.309098891 998 564.479552762 988.283203125 541.053357637 973.625 c 0
 511.814415459 955.330078125 492.32522277 928.048828125 472.836030081 895.079101562 c 2
 454.00128675 863.216796875 l 1
 437.250131532 893.374023438 421.03060906 925.122070312 396.806535387 948.529296875 c 0
 374.581881799 967.94140625 355.63978129 979.516601562 337.68536682 986.6796875 c 0
 315.142077127 995.672851562 293.479975153 998 267.24789282 998 c 0
 215.94921875 998 177.619140625 989.875976562 143.626953125 971.01171875 c 0
 101.7734375 947.786132812 63.7060546875 906.0859375 18.2265625 834.932617188 c 1
 94.201171875 786.879882812 l 1
 129.56640625 839.579101562 156.586914062 867.900390625 186.749023438 882.489257812 c 0
 211.86328125 894.63671875 235.813476562 895 259 895 c 2
 267.24789282 895 l 2
 294.562994366 895 318.258011865 886.409179688 337.516171907 871.396484375 c 0
 367.468824605 848.046875 385.159569846 811.479492188 396.016386556 773.356445312 c 0
 409.669643042 725.416015625 413.239913358 672.553710938 413.239913358 629 c 2
 413.239913358 591.34375 l 1
 401.858334761 596.79296875 390.470744163 602.232421875 379.095177568 607.694335938 c 0
 347.22469624 622.99609375 321.612708968 636 259 636 c 0
 189.296875 636 139.9296875 613.176757812 103.634765625 577.383789062 c 0
 74.4345703125 548.586914062 53.1572265625 510.303710938 38.91796875 466.720703125 c 0
 22.91796875 417.747070312 16 362.516601562 16 309 c 0
 16 214.649414062 41.12890625 127.586914062 112.36328125 77.458984375 c 0
 161.08203125 43.17578125 220.897460938 29 277.801532859 29 c 0
 359.151649301 29 405.968826397 81.2099609375 431.049180923 113.528320312 c 2
 446.947490718 134.016601562 l 1
 463.486508152 114.204101562 l 2
EndSplineSet
EndChar
StartChar: ccedilla
Encoding: 231 231 81
Width: 960
VWidth: 12
Flags: HW
LayerCount: 2
Fore
SplineSet
394.365213697 -311.178710938 m 1
 436.861446807 -339.27734375 522.210771403 -353.943359375 534.336434567 -358 c 1
 595.285672202 -358 680 -300.7734375 680 -215 c 0
 680 -172.889648438 669.586914062 -140.57421875 652.2890625 -117.5234375 c 0
 630.908203125 -89.029296875 599.373246709 -71.4560546875 558.037012253 -68.966796875 c 2
 537.759600624 -67.7451171875 l 1
 537.759600624 -6.3544921875 l 1
 557.022431298 -4.123046875 l 2
 635.91015625 4.640625 700.319335938 32.8740234375 748.12109375 65.7158203125 c 0
 804.913085938 104.735351562 838.361328125 150.438476562 859.240234375 180.26953125 c 1
 774.83984375 241.224609375 l 1
 746.645507812 199.784179688 710.884765625 162.993164062 661.536132812 137.514648438 c 0
 614.98828125 113.482421875 565.525188002 100 503.527940056 100 c 2
 492.402650372 100 l 2
 450.228174813 100 387.58239736 100.8203125 330.073876194 138.592773438 c 0
 246.579101562 186.786132812 180 291.55078125 180 502 c 0
 180 611.122070312 200.443359375 695.649414062 247.084960938 756.493164062 c 0
 305.950195312 833.282226562 389.356660431 865 497.537399457 865 c 0
 578.500792543 865 629.4453125 832.844726562 662.009765625 793.513671875 c 0
 677.984375 774.220703125 687.668945312 754.067382812 693.926757812 737.040039062 c 1
 798.53125 777.794921875 l 1
 778.056640625 821.55859375 750.11328125 866.701171875 702.76171875 903.185546875 c 0
 647.57421875 945.495117188 584.568220661 968 506.951106113 968 c 0
 389.416833272 968 294.362304688 943.665039062 218.401367188 888.79296875 c 0
 124.353515625 820.85546875 71 701.818359375 71 502 c 0
 71 305.774414062 110.234375 161.946289062 231.125976562 67.90234375 c 0
 296.37109375 19.2822265625 368.382246728 1.76953125 436.644991727 -4.0673828125 c 2
 456.459406776 -5.76171875 l 1
 456.459406776 -124.630859375 l 1
 469.917229777 -119.995117188 481.5414526 -119 501.816357028 -119 c 0
 533.853380372 -119 563.052251391 -131.28125 581.161769282 -154.134765625 c 0
 590.291326412 -165.655273438 596.809215103 -180.755859375 596.809215103 -198 c 0
 596.809215103 -199 596.809215103 -200 596.809215103 -200.999023438 c 0
 595.512156089 -220.198242188 588.957495107 -236.259765625 579.166036728 -248.780273438 c 0
 560.299343922 -272.90625 532.281364905 -283 506.951106113 -283 c 0
 468.64942145 -283 437.39548077 -267.146484375 412.54994764 -251.904296875 c 1
 394.365213697 -311.178710938 l 1
EndSplineSet
EndChar
StartChar: eth
Encoding: 240 240 205
Width: 960
VWidth: 6
Flags: HW
LayerCount: 2
Fore
SplineSet
546.324097154 881.083984375 m 2
 635.852539062 783.301757812 695 673.977539062 695 541 c 0
 695 394.74609375 673.2265625 266.704101562 595.5390625 196.248046875 c 0
 572.599609375 175.444335938 549.583984646 160.86328125 527.848979457 150.249023438 c 0
 500.830986713 137.055664062 471.215901828 131.58203125 434.796871479 131.001953125 c 0
 434.704838994 131.001953125 434.611999207 131.001953125 434.519966722 131.001953125 c 0
 378.52223616 131.001953125 331.100480048 154.412109375 289.81640625 194.912109375 c 0
 218.573242188 260.368164062 180 371.123046875 180 504 c 0
 180 592.606445312 191.272460938 678.41796875 235.580078125 747.799804688 c 0
 291.8046875 835.84375 383.714805836 889 531.241264559 889 c 2
 540.193441974 889 l 1
 546.324097154 881.083984375 l 2
125.702148438 800.485351562 m 0
 83.2509765625 710.474609375 72 606.73828125 72 524 c 0
 72 403.165039062 98.62890625 295.764648438 149.604492188 214.715820312 c 0
 212.981445312 113.94921875 313.958007812 51.5263671875 432.944112243 51 c 2
 434.519966722 51 l 2
 512.92357085 51 576.067382812 76.03515625 631.588867188 116.891601562 c 0
 676.072265625 149.626953125 710.431640625 193.077148438 736.415039062 243.9921875 c 0
 783.1953125 335.658203125 802 451.116210938 802 564 c 0
 802 760.525390625 712.286132812 888.159179688 567.874023438 1091.98632812 c 0
 544.783763985 1127.96777344 520.828676923 1169.22167969 498.746531659 1207.55371094 c 1
 663.99609375 1251.34570312 l 1
 643.4296875 1338.75195312 l 1
 454.122078708 1287.52246094 l 1
 430.981559868 1330.51074219 408.957540384 1372.60058594 385.08560548 1419.54101562 c 1
 285.959960938 1356.79003906 l 1
 304.869140625 1327.74902344 329.714341657 1287.7265625 346.833998457 1256.99707031 c 1
 190.05859375 1218.42285156 l 1
 210.619140625 1131.04003906 l 1
 392.030828881 1177.16308594 l 1
 418.546679471 1132.25878906 454.40705649 1071.48144531 462.475237668 1056.84179688 c 2
 482.300972446 1020.86816406 l 1
 446.629504212 1018.05371094 l 2
 374.279054224 1012.34570312 318.202208017 990.354492188 265.326171875 958.48828125 c 0
 199.193359375 918.702148438 155.172851562 862.974609375 125.702148438 800.485351562 c 0
EndSplineSet
EndChar
StartChar: divide
Encoding: 247 247 146
Width: 1060
VWidth: 6
Flags: W
LayerCount: 2
Fore
SplineSet
862.840979405 569.114914596 m 1
 701.523533296 571.459094115 610.914336081 575 458 575 c 0
 384.349309647 575 268.600691624 574.105874921 121.784422939 569.774032283 c 1
 125.196254718 462.64251442 l 1
 265.424285702 466.296790981 454.525106842 469.000001214 455 469 c 0
 532.048856374 468.999803032 586.220410405 467.736820264 656.175391461 466.105310765 c 0
 709.667331656 464.857756877 772.468257998 463.392991125 862.15935613 462.100060386 c 1
 862.840979405 569.114914596 l 1
580 233 m 1
 380 233 l 1
 380 13 l 1
 580 13 l 1
 580 233 l 1
579 1001 m 1
 378 1001 l 1
 378 782 l 1
 579 782 l 1
 579 1001 l 1
EndSplineSet
Validated: 1
EndChar
StartChar: oslash
Encoding: 248 248 140
Width: 960
VWidth: 6
Flags: HW
LayerCount: 2
Fore
SplineSet
181.83203125 350.260742188 m 2
 173.206054688 386.920898438 170.168945312 426.767578125 170.168945312 469 c 0
 170.168945312 579.236328125 182.239257812 675.3515625 216.536132812 750.344726562 c 0
 257.801416175 841.177734375 325.61995797 903 440.327826246 903 c 0
 504.114765617 903 555.23279891 879.838867188 592.302195405 838.916015625 c 2
 607.409515161 822.239257812 l 1
 192.846679688 303.447265625 l 1
 181.83203125 350.260742188 l 2
658.485351562 946.38671875 m 2
 599.988405832 1002.15527344 523.351809633 1032 410.361073474 1032 c 0
 320.452207981 1032 254.25390625 996.958984375 198.407226562 939.249023438 c 0
 153.547851562 892.89453125 120.541992188 830.786132812 98.3251953125 758.67578125 c 0
 73.349609375 677.611328125 62.1689453125 584.369140625 62.1689453125 489 c 0
 62.1689453125 397.860351562 77.732421875 318.336914062 106.985351562 253.224609375 c 2
 113.59375 238.516601562 l 1
 10 121.6171875 l 1
 84.7509765625 51.580078125 l 1
 175.215820312 150.9921875 l 1
 193.659179688 134.783203125 l 2
 254.221679688 81.5625 328.006728577 51.98046875 424.562057332 51 c 2
 426.225824941 51 l 2
 493.367842504 51 547.666228264 65.96484375 591.640303376 91.77734375 c 0
 649.111328125 123.991210938 694.287109375 173.521484375 726.640625 236.146484375 c 0
 773.260742188 326.384765625 792.168945312 443.745117188 792.168945312 568 c 0
 792.168945312 651.329101562 778.241210938 746.689453125 747.178710938 819.169921875 c 2
 740.86328125 833.90625 l 1
 873.016601562 979.466796875 l 1
 789.903320312 1056.34667969 l 1
 677.16015625 929.634765625 l 1
 658.485351562 946.38671875 l 2
426.521051165 131.001953125 m 0
 426.42292933 131.001953125 426.323946777 131.001953125 426.225824941 131.001953125 c 0
 361.906101219 131.001953125 307.79190908 152.723632812 267.152254931 193.208984375 c 2
 249.604492188 209.963867188 l 1
 661.3203125 719.8671875 l 1
 671.604492188 672.299804688 l 2
 680.114257812 632.942382812 683.168945312 591.20703125 683.168945312 548 c 2
 683.168945312 530 l 2
 683.168945312 379.802734375 660.614257812 264.75 590.685767277 196.295898438 c 0
 570.533780183 175.385742188 548.922015611 160.87109375 525.729973061 150.249023438 c 0
 496.924328673 137.055664062 465.349754952 131.58203125 426.521051165 131.001953125 c 0
EndSplineSet
EndChar
StartChar: thorn
Encoding: 254 254 206
Width: 960
VWidth: -2
Flags: HW
LayerCount: 2
Fore
SplineSet
659.759765625 759.764648438 m 0
 689.15625 698.44140625 699.64453125 619.518554688 699.64453125 527 c 0
 699.64453125 398.319335938 676.2578125 304.393554688 632.350585938 238.634765625 c 0
 576.821289062 155.469726562 503.919662582 123 425.995836091 123 c 0
 341.254882812 123 279.233398438 193.06640625 227.14453125 244.153320312 c 2
 219.64453125 251.508789062 l 1
 219.64453125 705.147460938 l 1
 223.408203125 711.190429688 l 2
 263.200195312 775.081054688 297.862304688 821.8984375 348.072009599 850.587890625 c 0
 380.977671006 873.514648438 420.101232214 883 471.434761313 883 c 0
 559.004375275 883 624.14453125 834.059570312 659.759765625 759.764648438 c 0
233.096679688 -398.518554688 m 1
 226.657226562 -335.372070312 219.64453125 -259.745117188 219.64453125 -176 c 2
 219.64453125 86.0947265625 l 1
 236.993164062 74.4833984375 254.620117188 62.8134765625 271.791992188 51.0537109375 c 0
 317.575195312 19.7001953125 350.858059771 -0.859375 414.636104785 -0.859375 c 0
 477.082138895 -0.859375 529.303147002 12.3740234375 575.228515625 36.5751953125 c 0
 641.715820312 66.78515625 691.684570312 114.079101562 728.48046875 177.385742188 c 0
 781.528320312 268.65625 806.64453125 394.359375 806.64453125 546.327148438 c 0
 806.64453125 750.072265625 748.440429688 906.328125 613.084960938 971.067382812 c 0
 568.501953125 992.391601562 523.272251706 1004.38769531 470.623351934 1004.38769531 c 0
 384.226478089 1004.38769531 319.9375 970.690429688 261.243164062 916.62109375 c 2
 219.64453125 878.301757812 l 1
 219.64453125 1250 l 2
 219.64453125 1268.37011719 215.977539062 1294.39648438 212.920898438 1313.28515625 c 1
 100 1299.51464844 l 1
 108.318359375 1256.12890625 113.64453125 1200.61035156 113.64453125 1142 c 2
 113.64453125 749.036132812 l 1
 112.64453125 -171.028320312 l 2
 112.64453125 -251.650390625 116.647460938 -336.490234375 123.814453125 -404.704101562 c 1
 233.096679688 -398.518554688 l 1
EndSplineSet
EndChar
StartChar: Aogonek
Encoding: 260 260 209
Width: 960
VWidth: 32
Flags: HW
LayerCount: 2
Fore
SplineSet
541.189392721 -151.478515625 m 0
 511.790083251 -181.6875 493.512716525 -216.625 493.512716525 -263 c 0
 493.512716525 -332.21875 514.007402586 -385.35546875 556.119227963 -420.157226562 c 0
 590.204909091 -448.32421875 640.952382905 -466 717.831054688 -466 c 0
 786.522460938 -466 857.498046875 -428.830078125 895.873046875 -395.223632812 c 1
 845.440429688 -326.041015625 l 1
 816.6171875 -346.83984375 775.987304688 -372 721.831054688 -372 c 0
 661.807426462 -372 615.247168827 -349.978515625 595.691308876 -307.779296875 c 0
 589.535920054 -294.497070312 586.205630555 -279.30078125 586.205630555 -263 c 0
 586.205630555 -226.631835938 609.185748826 -199.2578125 634.885790308 -176.622070312 c 0
 668.626953125 -147.345703125 719.983398438 -120.826171875 771.607421875 -93.87890625 c 0
 822.634765625 -67.2431640625 873.880859375 -40.2138671875 910.103515625 -13.3125 c 1
 906.201171875 36.4658203125 890.530273438 107.208984375 880.981445312 139.475585938 c 1
 527.059585607 1251 l 1
 408.179544004 1251 l 1
 69.724609375 126.626953125 l 2
 60.4775390625 95.9873046875 47.84765625 36.4912109375 42 -0 c 1
 152.669921875 -0 l 1
 157.044921875 34.31640625 167.37109375 78.505859375 176.1328125 103.978515625 c 2
 239.4296875 296.014648438 l 1
 252.91015625 299.29296875 l 2
 351.165470562 325.241210938 521.502493681 328.454101562 645.522371161 331.221679688 c 0
 663.122127856 331.614257812 680.5625 331.978515625 699.7265625 332.38671875 c 1
 725.086914062 256.272460938 750.479492188 180.19140625 775.819335938 104.056640625 c 0
 782.366210938 81.798828125 789.700195312 39.4326171875 794.202148438 6.7919921875 c 1
 786.275390625 -1.869140625 l 2
 775.69921875 -13.4248046875 762.278320312 -22.052734375 747.06640625 -30.435546875 c 0
 728.025390625 -40.9267578125 705.671875 -50.8642578125 681.802734375 -61.533203125 c 0
 632.167591294 -85.6259765625 578.066551302 -113.584960938 541.189392721 -151.478515625 c 0
674.241210938 470.56640625 m 1
 483.644266126 467.009765625 l 2
 470.298969352 466.283203125 457.769218491 465.688476562 445.908456668 465.125976562 c 0
 392.288468071 462.583007812 352.86811663 460.61328125 311.932194663 450.56640625 c 2
 273.421875 441.52734375 l 1
 470.648119558 1164.40820312 l 1
 674.241210938 470.56640625 l 1
EndSplineSet
EndChar
